<svg width="1920" height="1372" viewBox="0 0 1920 1372" fill="none" xmlns="http://www.w3.org/2000/svg">
<g clip-path="url(#clip0_553_321)">
<rect width="1920" height="5031" transform="translate(0 -3195)" fill="white"/>
<path d="M-214.978 372.601C96.3376 51.1306 540.284 -72.9046 943.625 48.9034L950.354 50.9022C1151.67 110.694 1313.52 202.114 1430.99 321.298C1733.89 342.396 2002.14 498.081 2044.32 523.634L1941.29 698.093C1929.94 691.225 1778.08 600.643 1587.54 552.833C1589.41 557.194 1591.23 561.598 1593 565.98C1690.62 807.592 1645.59 980.834 1590.56 1083.6C1496.56 1259.31 1285.54 1419.82 1044.46 1356.98C798.53 1292.8 669.727 1038 687.319 828.695C701.031 664.902 801.202 526.474 984.958 417.204C1034.9 387.504 1086.59 365.546 1138.98 350.026C1069.16 308.821 987.982 274.332 896.316 247.115L888.68 244.819C558.746 145.191 192.908 249.401 -66.0837 516.843L-215 372.579L-214.978 372.601ZM1338.89 524.404C1253.88 528.218 1169.46 548.331 1092.93 593.868C1046.1 621.679 903.67 706.379 891.568 850.722C881.423 971.699 959.423 1124.39 1091.68 1158.9C1235.84 1196.46 1360.63 1074.67 1409.33 983.639C1459.75 889.437 1457.67 773.38 1403.26 638.657C1386.96 598.296 1365.42 560.169 1338.89 524.404Z" fill="#F4F4F4"/>
</g>
<defs>
<clipPath id="clip0_553_321">
<rect width="1920" height="5031" fill="white" transform="translate(0 -3195)"/>
</clipPath>
</defs>
</svg>
