<svg width="161" height="112" viewBox="0 0 161 112" fill="none" xmlns="http://www.w3.org/2000/svg">
<path d="M0.00113834 13.8512C28.4763 -3.73373 62.8975 -4.63662 89.8327 11.4954L90.2827 11.7621C103.746 19.7414 113.767 29.2901 120.063 40.0397C141.593 47.0669 158.125 63.1941 160.705 65.8076L150.022 76.548C149.327 75.8453 140.014 66.5387 127.109 59.6214C127.164 59.9706 127.214 60.3222 127.261 60.671C129.856 79.9107 123.393 91.6167 117.51 98.0465C107.457 109.041 89.217 116.812 72.9335 107.89C56.3238 98.7832 51.7159 78.0238 56.8606 63.2124C60.8826 51.6206 70.6922 43.4329 86.0112 38.8713C90.1748 37.6314 94.3213 36.9828 98.3996 36.8124C94.1094 32.5655 88.8728 28.5977 82.7427 24.9651L82.2326 24.6604C60.1993 11.4652 31.7973 12.3537 8.10796 26.9833L-5.58164e-05 13.8493L0.00113834 13.8512ZM109.641 53.0497C103.418 51.7813 96.9376 51.702 90.5567 53.6038C86.6537 54.7638 74.7797 58.2997 71.2339 68.5147C68.262 77.0761 71.0821 89.5314 80.0152 94.4281C89.7524 99.7619 101.036 93.2245 106.244 87.5282C111.635 81.6339 113.631 73.2063 112.186 62.4785C111.753 59.2647 110.899 56.1171 109.641 53.0497Z" fill="#78D604"/>
</svg>
