<svg width="29" height="29" viewBox="0 0 29 29" fill="none" xmlns="http://www.w3.org/2000/svg">
<path d="M6.04167 26.5833C5.37708 26.5833 4.80816 26.3467 4.3349 25.8734C3.86163 25.4002 3.625 24.8313 3.625 24.1667V9.66667C3.625 9.00209 3.86163 8.43316 4.3349 7.9599C4.80816 7.48663 5.37708 7.25 6.04167 7.25H8.45833C8.45833 5.57847 9.0474 4.15365 10.2255 2.97552C11.4036 1.7974 12.8285 1.20834 14.5 1.20834C16.1715 1.20834 17.5964 1.7974 18.7745 2.97552C19.9526 4.15365 20.5417 5.57847 20.5417 7.25H22.9583C23.6229 7.25 24.1918 7.48663 24.6651 7.9599C25.1384 8.43316 25.375 9.00209 25.375 9.66667V24.1667C25.375 24.8313 25.1384 25.4002 24.6651 25.8734C24.1918 26.3467 23.6229 26.5833 22.9583 26.5833H6.04167ZM10.875 7.25H18.125C18.125 6.24306 17.7726 5.38716 17.0677 4.68229C16.3628 3.97743 15.5069 3.625 14.5 3.625C13.4931 3.625 12.6372 3.97743 11.9323 4.68229C11.2274 5.38716 10.875 6.24306 10.875 7.25ZM14.4698 16.9167C15.9601 16.9167 17.3094 16.4233 18.5177 15.4365C19.726 14.4497 20.3201 13.342 20.3 12.1135C20.3 11.7712 20.1892 11.4792 19.9677 11.2375C19.7462 10.9958 19.4642 10.875 19.1219 10.875C18.8399 10.875 18.5882 10.9656 18.3667 11.1469C18.1451 11.3281 17.984 11.6 17.8833 11.9625C17.6618 12.7278 17.2288 13.342 16.5844 13.8052C15.9399 14.2684 15.2351 14.5 14.4698 14.5C13.7045 14.5 12.9946 14.2684 12.3401 13.8052C11.6856 13.342 11.2576 12.7278 11.0562 11.9625C10.9556 11.5799 10.8045 11.303 10.6031 11.1318C10.4017 10.9606 10.1601 10.875 9.87812 10.875C9.53576 10.875 9.24878 10.9958 9.01719 11.2375C8.78559 11.4792 8.66979 11.7712 8.66979 12.1135C8.66979 13.342 9.26389 14.4497 10.4521 15.4365C11.6403 16.4233 12.9795 16.9167 14.4698 16.9167Z" fill="white"/>
</svg>
