<svg width="1919" height="613" viewBox="0 0 1919 613" fill="none" xmlns="http://www.w3.org/2000/svg">
<rect width="1919" height="613" fill="#F5F5F5"/>
<path d="M-59.9399 462.163C-35.6191 462.367 239.408 462.788 335.808 368.398C373.876 331.125 391.682 271.647 346.134 254.487C296.644 235.842 173.827 267.7 132.03 311.74C69.9141 377.197 186.384 475.785 303.232 519.446C515.813 598.879 856.501 556.889 1065.44 460.986C1226.07 387.24 1406.42 236.846 1300.96 135.224C1224.04 61.0956 998.551 16.3184 871.304 64.221C790.224 94.756 756.886 159.956 778.344 210.75C827.47 326.996 1172.44 388.72 1443.77 368.762C1723.68 348.17 1904.15 242.206 1963.81 203.658" stroke="white" stroke-width="80" stroke-miterlimit="10"/>
</svg>
