<svg width="1920" height="597" viewBox="0 0 1920 597" fill="none" xmlns="http://www.w3.org/2000/svg">
<path d="M-58.9399 457.781C-34.6191 457.985 240.408 458.406 336.808 364.016C374.876 326.743 392.682 267.265 347.134 250.105C297.644 231.459 174.827 263.318 133.03 307.358C70.9141 372.815 187.384 471.403 304.232 515.064C516.813 594.497 857.501 552.507 1066.44 456.604C1227.07 382.858 1407.42 232.464 1301.96 130.842C1225.04 56.7136 999.551 11.9364 872.304 59.839C791.224 90.3739 757.886 155.574 779.344 206.368C828.47 322.614 1173.44 384.338 1444.77 364.38C1724.68 343.788 1905.15 237.824 1964.81 199.276" stroke="white" stroke-width="80" stroke-miterlimit="10"/>
</svg>
