<svg width="124" height="66" viewBox="0 0 124 66" fill="none" xmlns="http://www.w3.org/2000/svg">
<path d="M0.00012207 65.6154V53.6446H7.00893C8.4649 53.6446 9.5275 53.9628 10.1955 54.6013C10.8623 55.2388 11.1958 55.9668 11.1958 56.7842C11.1958 57.3811 11.0015 57.9198 10.6141 58.4023C10.2267 58.8848 9.64863 59.2166 8.87987 59.3975C10.6669 59.7719 11.5591 60.7016 11.5591 62.1867C11.5591 63.0758 11.2437 63.8693 10.6141 64.5671C9.98324 65.266 8.63761 65.6154 6.57358 65.6154H0.00012207ZM3.9039 58.2318H5.86598C6.3577 58.2318 6.70551 58.1236 6.90699 57.9083C7.10968 57.692 7.21042 57.4612 7.21042 57.2157C7.21042 56.5491 6.73789 56.2163 5.79402 56.2163H3.9039V58.2328V58.2318ZM3.9039 62.95H5.96673C6.47883 62.95 6.85422 62.8398 7.09408 62.6203C7.33275 62.4009 7.45268 62.1544 7.45268 61.8799C7.45268 61.6053 7.33635 61.3526 7.10368 61.1218C6.87101 60.8909 6.44525 60.7755 5.82401 60.7755H3.9027V62.95H3.9039Z" fill="#0A2A78"/>
<path d="M17.0292 53.6446V65.6154H12.792V53.6446H17.0292Z" fill="#0A2A78"/>
<path d="M24.5917 56.5129V65.6155H20.5764V56.5129H17.7148V53.6458H27.4545V56.5129H24.5929H24.5917Z" fill="#0A2A78"/>
<path d="M38.526 62.7566V65.6154H28.1387V53.6446H38.526V56.4067H32.2955V58.1434H37.3314V60.8004H32.2955V62.7555H38.526V62.7566Z" fill="#0A2A78"/>
<path d="M50.0207 56.5129V65.6155H46.0054V56.5129H43.1438V53.6458H52.8835V56.5129H50.0219H50.0207Z" fill="#0A2A78"/>
<path d="M65.2802 53.6446V65.6154H61.0418V60.9585H57.8048V65.6154H53.5676V53.6446H57.8048V58.0466H61.0418V53.6446H65.2802Z" fill="#0A2A78"/>
<path d="M77.5454 62.7566V65.6154H67.1581V53.6446H77.5454V56.4067H71.3149V58.1434H76.3509V60.8004H71.3149V62.7555H77.5454V62.7566Z" fill="#0A2A78"/>
<path d="M100.661 53.6446L96.9994 65.6154H93.4398L91.5089 59.0117L89.6859 65.6154H85.974L82.3065 53.6446H86.293L88.2239 60.5342L90.1081 53.6446H93.435L95.4846 60.5477L97.4179 53.6446H100.661Z" fill="#0A2A78"/>
<path d="M108.432 65.6154L107.653 63.2568H103.954L103.125 65.6154H99.6843L103.947 53.6446H108.427L112.757 65.6154H108.432ZM104.673 60.6434H106.908L105.791 57.171L104.675 60.6434H104.673Z" fill="#0A2A78"/>
<path d="M123.808 53.6446L119.487 60.5456V65.6143H115.371V60.5456L110.726 53.6446H115.363L117.784 57.5912L120.103 53.6446H123.808Z" fill="#0A2A78"/>
<path d="M0.00144268 50.0324C-0.0345136 34.7679 9.03606 21.1776 23.6739 14.565L23.9172 14.4539C31.1959 11.1287 38.2302 9.51561 44.7766 9.63695C53.8496 2.94992 65.6217 0.378299 67.5022 0L69.3707 6.7166C68.8649 6.81857 62.1339 8.2145 55.4844 11.5764C55.6558 11.6386 55.8272 11.7028 55.9962 11.7681C65.3256 15.3553 68.7882 20.6627 70.0479 24.4844C72.2041 31.0165 70.6627 39.96 62.1854 44.156C53.5356 48.4346 42.9716 45.2664 37.7555 39.7296C33.6721 35.398 32.7061 29.6307 34.8802 22.5889C35.4711 20.6749 36.3221 18.9088 37.3684 17.2835C34.2858 17.9361 31.0677 19.0231 27.7537 20.5373L27.4768 20.6627C15.5034 26.0721 8.08322 37.3201 8.11318 50.0191L0.000244141 50.0324H0.00144268ZM47.7334 16.794C45.4526 18.9088 43.6332 21.4081 42.7283 24.3417C42.1734 26.1353 40.4882 31.5936 44.0862 35.4113C47.1018 38.611 53.4553 40.4903 58.1068 38.1889C63.1754 35.6794 63.354 29.7337 62.237 26.3494C61.0816 22.8468 57.8575 20.058 52.6558 18.0574C51.0977 17.4579 49.4533 17.0377 47.7334 16.794Z" fill="#0A2A78"/>
</svg>
