<svg width="131" height="70" viewBox="0 0 131 70" fill="none" xmlns="http://www.w3.org/2000/svg">
<path d="M0 69.3249V56.6772H7.40508C8.94338 56.6772 10.066 57.0135 10.7718 57.6881C11.4764 58.3616 11.8286 59.1307 11.8286 59.9944C11.8286 60.625 11.6233 61.1942 11.2141 61.704C10.8048 62.2138 10.194 62.5643 9.3818 62.7555C11.2698 63.151 12.2126 64.1333 12.2126 65.7023C12.2126 66.6417 11.8793 67.4801 11.2141 68.2173C10.5476 68.9557 9.12584 69.3249 6.94512 69.3249H0ZM4.1245 61.5238H6.19751C6.71704 61.5238 7.0845 61.4095 7.29738 61.1821C7.51152 60.9536 7.61796 60.7096 7.61796 60.4503C7.61796 59.746 7.11871 59.3944 6.12149 59.3944H4.1245V61.5249V61.5238ZM4.1245 66.5088H6.30395C6.84502 66.5088 7.24163 66.3923 7.49505 66.1605C7.74721 65.9287 7.87392 65.6683 7.87392 65.3782C7.87392 65.0881 7.75101 64.8211 7.50519 64.5772C7.25937 64.3333 6.80954 64.2113 6.15316 64.2113H4.12323V66.5088H4.1245Z" fill="#0A2A78"/>
<path d="M17.9919 56.6772V69.3249H13.5151V56.6772H17.9919Z" fill="#0A2A78"/>
<path d="M25.982 59.7079V69.3253H21.7397V59.7079H18.7163V56.6787H29.0066V59.7079H25.9833H25.982Z" fill="#0A2A78"/>
<path d="M40.7038 66.3044V69.3249H29.7292V56.6772H40.7038V59.5955H34.1211V61.4304H39.4418V64.2377H34.1211V66.3033H40.7038V66.3044Z" fill="#0A2A78"/>
<path d="M52.8487 59.7079V69.3253H48.6064V59.7079H45.583V56.6787H55.8733V59.7079H52.85H52.8487Z" fill="#0A2A78"/>
<path d="M68.9709 56.6772V69.3249H64.4929V64.4047H61.0729V69.3249H56.5962V56.6772H61.0729V61.3282H64.4929V56.6772H68.9709Z" fill="#0A2A78"/>
<path d="M81.9294 66.3044V69.3249H70.9548V56.6772H81.9294V59.5955H75.3467V61.4304H80.6674V64.2377H75.3467V66.3033H81.9294V66.3044Z" fill="#0A2A78"/>
<path d="M106.352 56.6772L102.484 69.3249H98.7227L96.6826 62.3479L94.7566 69.3249H90.8348L86.96 56.6772H91.1719L93.212 63.9564L95.2026 56.6772H98.7176L100.883 63.9707L102.926 56.6772H106.352Z" fill="#0A2A78"/>
<path d="M114.563 69.3249L113.739 66.8329H109.832L108.956 69.3249H105.321L109.824 56.6772H114.558L119.132 69.3249H114.563ZM110.592 64.0718H112.952L111.773 60.4031L110.593 64.0718H110.592Z" fill="#0A2A78"/>
<path d="M130.808 56.6772L126.242 63.9685V69.3238H121.893V63.9685L116.986 56.6772H121.886L124.443 60.847L126.893 56.6772H130.808Z" fill="#0A2A78"/>
<path d="M0.00126631 52.8612C-0.0367229 36.7336 9.54669 22.375 25.0121 15.3885L25.2692 15.2711C32.9595 11.7579 40.3914 10.0536 47.308 10.1818C56.8939 3.11671 69.3316 0.399688 71.3185 0L73.2926 7.09635C72.7582 7.20408 65.6467 8.67894 58.6212 12.2309C58.8023 12.2966 58.9833 12.3645 59.1619 12.4334C69.0188 16.2235 72.6772 21.8309 74.0081 25.8688C76.2862 32.7701 74.6577 42.2193 65.7011 46.6525C56.5622 51.173 45.4009 47.8258 39.89 41.9759C35.5756 37.3994 34.555 31.306 36.8521 23.866C37.4764 21.8439 38.3755 19.9779 39.4809 18.2607C36.224 18.9502 32.824 20.0986 29.3226 21.6984L29.0301 21.8309C16.3797 27.5462 8.53998 39.4301 8.57164 52.8472L0 52.8612H0.00126631ZM50.432 17.7436C48.0222 19.9779 46.0999 22.6185 45.1439 25.7179C44.5576 27.613 42.7771 33.3799 46.5786 37.4134C49.7646 40.794 56.4773 42.7796 61.3919 40.348C66.7471 37.6967 66.9358 31.4148 65.7556 27.8392C64.5348 24.1386 61.1285 21.1921 55.6327 19.0784C53.9865 18.4449 52.2491 18.001 50.432 17.7436Z" fill="#0A2A78"/>
</svg>
