<svg width="124" height="66" viewBox="0 0 124 66" fill="none" xmlns="http://www.w3.org/2000/svg">
<path d="M0 65.6153V53.6445H7.00881C8.46478 53.6445 9.52738 53.9627 10.1954 54.6013C10.8622 55.2388 11.1956 55.9667 11.1956 56.7841C11.1956 57.3811 11.0013 57.9197 10.614 58.4023C10.2266 58.8848 9.64851 59.2166 8.87975 59.3975C10.6667 59.7719 11.559 60.7016 11.559 62.1866C11.559 63.0758 11.2436 63.8693 10.614 64.5671C9.98312 65.2659 8.63748 65.6153 6.57346 65.6153H0ZM3.90378 58.2317H5.86586C6.35758 58.2317 6.70538 58.1236 6.90687 57.9083C7.10955 57.692 7.2103 57.4611 7.2103 57.2157C7.2103 56.5491 6.73777 56.2163 5.7939 56.2163H3.90378V58.2328V58.2317ZM3.90378 62.95H5.9666C6.47871 62.95 6.8541 62.8397 7.09396 62.6203C7.33263 62.4009 7.45256 62.1544 7.45256 61.8799C7.45256 61.6053 7.33622 61.3526 7.10356 61.1217C6.87089 60.8909 6.44513 60.7754 5.82389 60.7754H3.90258V62.95H3.90378Z" fill="white"/>
<path d="M17.0292 53.6445V65.6153H12.792V53.6445H17.0292Z" fill="white"/>
<path d="M24.5917 56.5126V65.6153H20.5764V56.5126H17.7148V53.6455H27.4545V56.5126H24.5929H24.5917Z" fill="white"/>
<path d="M38.526 62.7565V65.6153H28.1387V53.6445H38.526V56.4066H32.2955V58.1433H37.3314V60.8004H32.2955V62.7555H38.526V62.7565Z" fill="white"/>
<path d="M50.0204 56.5126V65.6153H46.0051V56.5126H43.1436V53.6455H52.8832V56.5126H50.0216H50.0204Z" fill="white"/>
<path d="M65.2799 53.6445V65.6153H61.0415V60.9585H57.8046V65.6153H53.5674V53.6445H57.8046V58.0466H61.0415V53.6445H65.2799Z" fill="white"/>
<path d="M77.5455 62.7565V65.6153H67.1582V53.6445H77.5455V56.4066H71.315V58.1433H76.351V60.8004H71.315V62.7555H77.5455V62.7565Z" fill="white"/>
<path d="M100.661 53.6445L96.9995 65.6153H93.4399L91.509 59.0117L89.686 65.6153H85.9741L82.3066 53.6445H86.2932L88.2241 60.5342L90.1082 53.6445H93.4351L95.4847 60.5477L97.418 53.6445H100.661Z" fill="white"/>
<path d="M108.432 65.6153L107.652 63.2567H103.954L103.125 65.6153H99.6841L103.946 53.6445H108.427L112.757 65.6153H108.432ZM104.673 60.6434H106.908L105.791 57.171L104.674 60.6434H104.673Z" fill="white"/>
<path d="M123.808 53.6445L119.487 60.5456V65.6143H115.371V60.5456L110.726 53.6445H115.363L117.784 57.5911L120.103 53.6445H123.808Z" fill="white"/>
<path d="M0.00119854 50.0324C-0.0347577 34.7679 9.03582 21.1776 23.6736 14.565L23.9169 14.4539C31.1957 11.1287 38.2299 9.5156 44.7764 9.63695C53.8493 2.94992 65.6214 0.378299 67.5019 0L69.3705 6.7166C68.8647 6.81857 62.1337 8.2145 55.4841 11.5764C55.6555 11.6386 55.8269 11.7028 55.9959 11.7681C65.3254 15.3553 68.788 20.6627 70.0476 24.4844C72.2038 31.0165 70.6625 39.96 62.1852 44.156C53.5353 48.4346 42.9714 45.2664 37.7553 39.7296C33.6719 35.398 32.7058 29.6307 34.88 22.5889C35.4709 20.6749 36.3218 18.9088 37.3682 17.2835C34.2855 17.9361 31.0674 19.0231 27.7535 20.5373L27.4766 20.6627C15.5032 26.0721 8.08297 37.3201 8.11294 50.0191L0 50.0324H0.00119854ZM47.7332 16.794C45.4523 18.9088 43.6329 21.4081 42.7281 24.3417C42.1731 26.1353 40.488 31.5936 44.086 35.4113C47.1015 38.611 53.455 40.4903 58.1066 38.1889C63.1752 35.6794 63.3538 29.7337 62.2367 26.3494C61.0813 22.8468 57.8573 20.058 52.6556 18.0574C51.0975 17.4579 49.4531 17.0377 47.7332 16.794Z" fill="white"/>
</svg>
