<svg width="141" height="49" viewBox="0 0 141 49" fill="none" xmlns="http://www.w3.org/2000/svg">
<path d="M17 48.0441V36.0732H24.0088C25.4648 36.0732 26.5274 36.3915 27.1954 37.03C27.8622 37.6675 28.1956 38.3954 28.1956 39.2128C28.1956 39.8098 28.0013 40.3485 27.614 40.831C27.2266 41.3135 26.6485 41.6453 25.8797 41.8262C27.6667 42.2006 28.559 43.1303 28.559 44.6154C28.559 45.5045 28.2436 46.298 27.614 46.9958C26.9831 47.6946 25.6375 48.0441 23.5735 48.0441H17ZM20.9038 40.6604H22.8659C23.3576 40.6604 23.7054 40.5523 23.9069 40.337C24.1096 40.1207 24.2103 39.8898 24.2103 39.6444C24.2103 38.9778 23.7378 38.645 22.7939 38.645H20.9038V40.6615V40.6604ZM20.9038 45.3787H22.9666C23.4787 45.3787 23.8541 45.2684 24.094 45.049C24.3326 44.8296 24.4526 44.5831 24.4526 44.3086C24.4526 44.034 24.3362 43.7813 24.1036 43.5504C23.8709 43.3196 23.4451 43.2041 22.8239 43.2041H20.9026V45.3787H20.9038Z" fill="#0A2A78"/>
<path d="M34.0292 36.0732V48.0441H29.792V36.0732H34.0292Z" fill="#0A2A78"/>
<path d="M41.5917 38.9416V48.0442H37.5764V38.9416H34.7148V36.0744H44.4545V38.9416H41.5929H41.5917Z" fill="#0A2A78"/>
<path d="M55.526 45.1852V48.0441H45.1387V36.0732H55.526V38.8353H49.2955V40.572H54.3314V43.2291H49.2955V45.1842H55.526V45.1852Z" fill="#0A2A78"/>
<path d="M67.0207 38.9416V48.0442H63.0054V38.9416H60.1438V36.0744H69.8835V38.9416H67.0219H67.0207Z" fill="#0A2A78"/>
<path d="M82.2802 36.0732V48.0441H78.0418V43.3872H74.8048V48.0441H70.5676V36.0732H74.8048V40.4753H78.0418V36.0732H82.2802Z" fill="#0A2A78"/>
<path d="M94.5453 45.1852V48.0441H84.158V36.0732H94.5453V38.8353H88.3148V40.572H93.3507V43.2291H88.3148V45.1842H94.5453V45.1852Z" fill="#0A2A78"/>
<path d="M117.661 36.0732L113.999 48.0441H110.44L108.509 41.4404L106.686 48.0441H102.974L99.3064 36.0732H103.293L105.224 42.9629L107.108 36.0732H110.435L112.484 42.9764L114.418 36.0732H117.661Z" fill="#0A2A78"/>
<path d="M125.432 48.0441L124.653 45.6855H120.954L120.125 48.0441H116.684L120.947 36.0732H125.427L129.757 48.0441H125.432ZM121.673 43.0721H123.908L122.791 39.5997L121.675 43.0721H121.673Z" fill="#0A2A78"/>
<path d="M140.808 36.0732L136.487 42.9743V48.043H132.371V42.9743L127.726 36.0732H132.363L134.784 40.0198L137.103 36.0732H140.808Z" fill="#0A2A78"/>
<path d="M95 7.48828L85.7764 14.9766V10.1455C82.2999 9.37677 73.683 8.01157 64.7158 10.8369C66.949 11.8965 68.9418 13.3748 70.2236 15.5205C72.5869 19.465 72.2363 25.3057 67.5596 28.2617C64.445 30.2294 59.3978 31.8055 54.5107 30.3633C51.9169 29.5975 48.4511 27.6652 46.6484 22.8125C45.5368 19.8119 46.4289 16.7129 48.542 13.9082C42.5331 13.6233 32.8585 14.2021 23.9453 19.3486C16.3541 23.7294 13.1194 29.4908 11.1865 32.9277L11.1367 33.0078C8.48283 37.7536 7.06082 42.9801 7.01074 48.1533H0C0.0500739 42.0007 1.72302 35.7942 4.8877 30.1758L4.9375 30.0957C7.04064 26.3471 10.9568 19.3662 20.1602 14.0596C34.3809 5.85044 50.0935 7.48907 54.5703 8.18359C54.7205 8.21031 54.871 8.22817 55.0312 8.25488C57.2845 6.87479 59.7981 5.71651 62.3818 4.90625V4.89746C71.8509 1.91238 80.8375 2.78026 85.7764 3.68945V0L95 7.48828ZM56.7734 14.9766C54.0695 17.1669 52.7883 19.4828 53.2891 20.8184C54.0101 22.7502 55.1213 23.9169 56.6934 24.3799C58.9467 25.0477 61.8112 24.1926 63.5137 23.1152H63.5039C64.8758 22.2515 64.9155 19.9719 64.0342 18.5117C62.8724 16.5708 59.7677 15.582 56.7734 14.9766Z" fill="#0A2A78"/>
</svg>
