<svg width="292" height="375" viewBox="0 0 292 375" fill="none" xmlns="http://www.w3.org/2000/svg">
<g clip-path="url(#clip0_249_215)">
<path d="M90.0868 24.6546C78.2141 22.7963 73.4908 35.1022 79.3628 44.0083C71.742 48.273 72.7964 58.5322 79.8857 62.677C73.5422 72.9019 84.892 78.7423 93.8415 78.237L92.7014 94.5678C89.5639 95.4927 86.3578 94.6106 83.0146 95.604C81.4716 96.0579 80.2972 97.214 79.0113 97.6593C76.0024 98.704 72.2392 98.961 68.8874 100.117C33.1064 112.526 26.7714 157.596 50.9112 184.16C49.8139 194.094 48.6223 204.062 47.688 214.004C47.3622 217.464 47.5251 221.326 47.2165 224.709C45.8192 239.764 42.8446 249.072 48.7338 264.196C51.4512 271.184 56.3289 275.525 62.1409 279.91L1.2944 280.381C0.059967 280.269 -0.231476 282.445 0.188568 283.121C0.488586 283.601 6.73782 284.115 7.82654 284.157C29.146 284.962 51.3141 282.856 73.0964 283.652L93.8758 287.591L94.2016 288.054C93.9958 288.653 93.8329 289.261 93.8244 289.912C93.7129 298.818 93.4643 307.613 92.9071 316.485C92.6071 321.341 90.9783 329.245 91.5013 333.741C91.9556 337.654 94.8359 337.783 98.042 338.622C97.5962 340.643 96.9533 342.921 96.6961 344.959C96.1903 349.009 95.2217 356.742 96.5332 360.382C97.8448 364.021 105.937 367.07 109.383 368.509C115.847 371.206 128.688 375.976 135.46 374.837C139.832 374.101 142.352 370.256 141.83 365.914C141.049 359.406 132.563 354.824 131.8 350.748C131.337 348.239 132.511 344.394 132.537 341.756C133.086 340.309 139.712 341.979 142.532 338.125C145.507 334.049 148.259 320.347 149.562 314.875C151.405 307.151 153.411 299.041 154.808 291.239C155.057 289.869 155.151 284.269 155.588 283.626C163.183 282.333 171.036 283.695 178.699 284.123C178.794 288.859 178.571 293.612 178.674 298.347C178.836 305.789 178.031 316.117 178.725 322.942C179.214 327.72 179.934 329.116 184.786 330.05L183.8 343.957C184.991 347.948 182.951 351.305 187.066 353.771C191.926 356.682 217.841 362.018 223.678 361.812C232.405 361.512 233.125 353.6 228.565 347.708C226.55 345.113 220.635 340.968 219.589 338.476C219.221 337.603 219.821 330.546 220.249 330.289C229.302 330.872 229.37 326.787 231.162 319.534C234.042 307.81 235.817 295.658 236.708 283.626C237.291 282.787 244.055 283.267 245.615 283.207C248.135 283.113 250.621 283.07 253.133 283.01C262.828 282.804 272.549 282.684 282.202 282.256V280.869L237.42 279.713C236.794 279.31 237.103 278.899 237.094 278.428C236.94 270.73 238.569 265.129 236.76 257.088C233.948 244.576 222.101 238.248 211.497 232.947C200.893 227.646 189.029 223.339 177.499 219.399C177.105 214.364 175.227 209.663 174.559 204.636C173.496 196.663 173.247 188.442 171.696 180.478C174.362 181.463 176.222 183.775 178.545 185.273C188.352 191.593 201.33 194.496 212.629 190.617C232.774 183.698 235.628 156.217 234.171 138.088C233.879 134.406 232.259 128.651 232.311 125.5C232.345 123.324 234.308 119.548 234.582 116.602C235.628 105.538 232.156 92.6667 221.535 87.3744C220.301 86.7578 217.969 86.4581 217.172 85.6788C216.375 84.8995 214.052 79.7956 212.723 78.0144C205.891 68.8856 189.106 59.6198 177.525 60.9985C173.976 61.4181 175.03 63.7217 173.573 65.9055C171.481 69.0483 168.241 67.5582 165.146 68.2005C164.101 68.9284 165.566 72.2939 163.56 74.0666C160.86 76.4387 157.225 74.3577 155.845 75.2055C155.271 75.5566 154.645 78.1086 153.711 79.1277C152.305 80.6605 149.45 81.6197 147.367 81.4056C142.215 80.8661 140.647 73.0475 136.189 83.0498C135.657 84.2487 134.534 89.0871 134.303 89.3183C134.089 89.5324 132.477 89.7893 131.748 90.2603C130.214 91.2451 128.877 92.5297 127.419 93.6173C127.839 89.6181 128.234 85.499 127.419 81.534C145.053 76.4473 143.938 53.7023 139.541 39.6066C155.494 37.9624 154.997 18.6686 139.061 18.1634C139.532 9.68543 129.931 5.6691 122.722 7.66442C118.933 8.70918 116.79 11.4067 114.021 13.9244H113.275C104.214 6.00308 90.9783 13.5647 90.0782 24.6632L90.0868 24.6546ZM82.346 29.0306C84.7805 26.6071 88.4238 26.9582 91.5098 27.2751C92.5213 26.7527 93.2157 23.0361 93.8415 21.6488C96.7132 15.2689 103.785 11.2783 110.498 14.8065C111.655 15.4145 112.769 17.2557 114.055 17.1358C115.255 17.0244 118.616 12.6313 120.553 11.5437C128.217 7.26193 138.272 11.3125 136.738 20.9551C150.753 19.3366 152.776 35.3163 138.418 37.2945C138.212 36.2925 136.48 34.674 136.378 34.1688C136.223 33.3895 137.132 31.9765 137.132 30.9574C137.123 28.5767 134.723 25.8963 132.323 25.6137L131.611 26.7698C137.252 30.632 134.577 35.205 127.857 33.792C126.014 33.4066 121.144 30.024 120.236 30.2894C118.581 30.7776 121.033 35.4276 116.704 36.5666C111.432 37.9539 108.303 33.6464 103.648 33.0726C102.697 35.5132 105.586 38.3307 103.863 40.5058C101.771 43.1348 97.9991 39.1442 97.5791 41.2252C97.3733 42.2271 101.608 47.4509 99.405 49.7888C96.3704 49.686 95.7531 46.9799 92.2213 46.5689C80.683 45.2415 79.1142 59.4913 86.4178 64.9378C89.0838 66.9245 91.587 66.916 94.5787 67.5154L93.7815 74.9144C89.6325 75.6851 81.0858 72.9362 81.2916 67.798C81.3602 65.9568 83.7347 63.422 83.4947 62.2317C80.6401 58.712 76.4653 56.7595 77.0997 51.5015C77.6483 46.9114 82.1831 46.1492 82.6117 44.8561C83.0404 43.563 79.9886 38.9216 79.9029 36.5066C79.8257 34.4257 80.8287 30.5378 82.3546 29.022L82.346 29.0306ZM121.822 34.4599C123.125 34.0917 123.579 35.3677 124.488 35.753C128.242 37.3116 131.74 37.5599 135.332 35.3934C140.449 50.7479 144.118 77.1752 122.045 79.6329C118.77 80.0011 112.238 78.1942 115.615 83.2467C117.57 86.1584 122.07 87.1689 124.873 88.9672C123.87 93.249 127.599 98.1474 122.413 100.511C115.324 103.739 102.037 100.768 96.4046 95.4756L97.5791 65.0577C95.5731 63.9358 93.7472 64.7665 91.2441 63.8331C82.6546 60.6474 83.409 46.9713 93.3786 49.5918C95.9589 50.2683 96.8075 53.7965 99.885 52.3921C102.962 50.9877 103.297 46.8771 101.754 44.2567C105.594 43.9056 107.917 41.6533 106.889 37.7312C111.938 40.0605 120.279 41.542 121.813 34.4685L121.822 34.4599ZM177.302 63.8074C189.217 64.1242 202.333 70.1873 209.928 79.4188C210.734 80.3951 213.374 84.026 213.657 85.0194C214 86.2012 210.837 85.5932 209.817 85.8073C207.074 86.3725 204.065 89.2413 205.016 92.2471C205.479 93.6943 207.494 94.2253 207.142 95.9466C199.976 98.3701 203.533 105.786 209.483 107.362C209.483 107.773 204.039 108.638 204.365 112.894C204.451 113.964 206.045 116.225 205.291 116.679C204.613 117.09 201.742 117.527 200.722 117.707C191.918 119.205 182.248 119.017 173.41 117.784C168.335 117.073 162.712 115.883 158.203 113.416C166.244 108.98 169.021 100.194 156.797 100.605C157.86 98.096 160.234 97.3596 159.506 93.9598C158.057 87.2031 142.018 91.5963 138.315 94.9618C136.652 95.1159 137.621 89.7208 137.895 88.4705C138.126 87.4429 140.544 81.5169 141.187 81.5169C144.161 84.7197 148.379 85.636 152.468 83.9318C153.814 83.3666 155.305 81.5768 156.12 81.4998C157.148 81.397 159.42 82.9042 160.972 83.1697C165.223 83.889 168.069 82.4503 170.255 78.8793C170.615 78.297 170.701 77.1152 170.881 76.9525C171.156 76.7042 174.104 76.4729 174.987 76.1646C180.019 74.4262 179.514 67.661 177.319 63.8245L177.302 63.8074ZM167.992 70.8038C169.441 70.8723 170.573 70.7867 171.961 70.35C173.796 69.7762 174.233 68.3975 175.896 67.995C177.062 75.5652 171.936 72.3282 169.184 74.0923C167.907 74.9144 168.112 77.0467 166.972 78.4083C164.855 80.9431 160.577 80.3951 158.177 78.4683C162.772 78.3055 167.744 75.9762 167.984 70.8038H167.992ZM223.918 101.992C224.664 98.8239 218.989 96.1692 216.452 95.2529C214.052 94.388 208.051 94.1054 208.017 90.5858C207.991 86.8178 215.886 88.2736 218.063 88.9844C231.291 93.3261 234.668 112.226 229.602 123.735C228.659 125.868 227.116 127.546 226.25 129.696C227.459 131.314 228.83 129.661 229.979 129.011C232.474 147.285 232.371 180.923 210.4 187.457C197.721 191.234 184.177 185.744 174.499 177.583C174.182 167.872 176.419 158.033 181.494 149.726L193.152 148.57C192.098 152.586 189.818 156.363 190.358 160.679C190.863 160.722 191.301 160.722 191.763 160.456C193.409 159.54 195.484 149.872 196.993 147.739C203.748 145.898 210.005 143.577 214.129 137.608C214.72 136.752 214.857 135.425 215.5 134.791C216.846 133.455 219.332 134.32 219.898 130.8C220.404 127.606 217.806 126.998 217.403 124.352C219.101 123.616 219.101 126.407 220.378 126.185C222.084 125.885 221.312 124.044 220.755 123.093C218.346 118.983 206.319 116.962 207.588 111.618C208.205 109.015 218.741 111.181 220.832 111.806L221.381 110.368C219.144 106.54 205.762 104.707 205.942 100.357C207.511 96.2634 214.137 97.7192 217.403 98.9781C218.518 99.4063 223.43 102.532 223.936 101.992H223.918ZM120.742 116.294C124.376 107.996 125.739 97.7449 133.712 92.2128L134.423 97.5394C134.174 99.4148 130.025 100.862 130.72 103.097C131.526 105.718 135.76 100.263 136.78 99.4662C140.938 96.212 147.856 92.6838 153.291 93.1377C154.782 93.2662 157.448 94.0026 156.574 95.9294C155.46 98.3872 147.324 101.898 144.907 103.859C143.913 104.664 142.43 105.932 142.833 107.31L143.887 107.987C147.53 106.172 151.148 104.013 155.288 103.525C157.26 103.294 162.72 102.84 162.412 105.932C162.06 109.417 147.016 114.504 146.982 117.595C146.956 120.036 153.145 117.578 154.748 117.416C159.257 116.97 164.786 117.647 159.077 122.211C155.94 124.72 151.619 126.185 148.242 128.617C146.553 129.833 139.798 134.851 138.821 135.973C137.08 137.968 134.92 143.055 133.197 145.727C121.547 163.796 103.417 188.262 80.4944 191.354C59.1578 194.231 43.5561 174.166 40.7615 154.933C47.5508 147.088 58.4634 142.567 68.5616 140.768C71.2791 140.289 77.0911 139.364 79.6371 139.681C80.9573 139.844 81.6945 140.186 81.0258 141.573L68.193 151.584C67.9616 152.663 69.7189 153.057 70.5419 152.535L120.733 116.268L120.742 116.294ZM92.9071 97.3424L98.0248 100.845C105.491 104.844 114.124 106.103 122.276 103.405C120.544 106.865 120.382 112.774 117.578 115.24C113.481 118.846 107.412 121.663 103.168 125.294C101.659 117.39 99.1735 109.546 95.6331 102.309C95.2645 101.556 92.6928 97.5736 92.9071 97.351V97.3424ZM81.2487 99.2093C84.0776 98.4043 87.0179 97.4024 90.0097 97.9076C95.2388 106.839 98.6506 116.722 100.785 126.844L91.7327 133.669C90.7469 133.798 91.1498 133.592 91.0555 132.976C89.2553 121.303 87.5751 109.451 81.2573 99.2179L81.2487 99.2093ZM40.2215 150.437C37.7012 126.108 55.0859 104.673 78.9342 100.785C83.3061 109.837 86.4864 119.719 87.7209 129.764C87.9094 131.263 88.4066 135.219 87.798 136.255C87.5065 136.761 85.3378 138.431 84.7291 138.79C84.3005 139.047 84.4119 139.587 83.7947 138.807C83.4689 137.172 81.3002 126.758 80.0743 126.716C79.9886 126.716 78.5399 127.247 78.8656 127.855L80.5887 136.435C80.6229 138.011 79.097 136.949 78.197 136.932C66.1271 136.735 53.0028 140.272 43.3675 147.662C43.016 147.936 40.5643 150.916 40.2043 150.437H40.2215ZM203.876 122.023L208.222 118.837L215.535 122.948L203.876 122.014V122.023ZM198.278 122.014L176.136 132.094C174.01 131.648 172.981 129.764 171.456 128.557C170.101 127.486 163.338 122.793 163.32 121.809C163.312 121.243 163.715 120.635 164.006 120.156C165.052 119.188 170.641 120.832 172.467 121.038C180.937 121.997 189.62 122.631 198.047 121.089L198.287 122.023L198.278 122.014ZM183.825 132.265C183.937 131.511 184.726 131.408 185.24 131.126C186.989 130.158 198.853 124.575 200.027 124.438C201.553 124.258 202.736 125.089 204.151 125.234C206.516 125.482 208.96 125.585 211.334 125.748C210.666 127.075 208.917 127.709 207.597 128.3C200.404 131.511 191.618 132.059 183.825 132.265ZM156.788 127.144L160.672 124.438L167.512 129.944L156.788 127.152V127.144ZM195.947 134.14C202.839 133.464 209.628 131.314 214.84 126.664L217.335 129.824C217.832 133.061 211.668 131.451 209.86 131.605C205.916 131.957 206.131 136.461 203.619 136.932C201.87 137.257 198.63 135.673 196.633 135.082C195.964 134.885 195.81 135.365 195.947 134.14ZM191.463 137.112C187.366 143.235 183.654 136.17 179.394 135.973C176.007 135.819 173.341 139.424 169.175 138.773C165.755 138.242 164.461 132.607 159.394 132.779C156.24 132.89 151.362 136.221 149.862 131.169L153.291 128.711C157.457 130.706 162.283 132.453 166.861 133.155C168.447 133.395 170.418 132.89 171.841 133.301C172.733 133.558 173.17 134.8 174.765 135.039C175.999 135.228 180.002 135.065 181.708 135.082C186.183 135.125 190.555 134.877 195.012 134.603L191.463 137.103V137.112ZM145.593 134.14C148.242 132.633 147.196 133.866 148.876 135.271C152.785 138.533 157.268 134.954 161.109 136.093C162.617 136.538 165.138 140.88 167.829 141.488C173.307 142.721 175.485 138.61 178.914 138.756C182.617 138.919 184.503 143.672 189.749 141.685C191.532 141.008 192.741 138.953 194.112 138.131C197.773 135.939 201.999 142.704 206.662 138.097C208.608 136.17 207.759 133.558 211.566 134.132C213.263 134.389 211.428 136.401 210.846 137.146C200.079 150.822 163.295 147.397 149.828 138.516C149.056 138.011 144.993 134.971 145.593 134.14ZM140.475 137.865C141.692 137.763 141.247 137.805 141.384 138.568C142.224 143.149 143.69 145.102 137.672 144.382L140.475 137.865ZM94.3044 272.699C93.7301 275.953 94.7245 280.681 94.3044 284.115C85.9549 282.35 76.6882 281.211 68.6816 278.274C51.0569 271.809 48.1509 253.645 49.0595 236.818C49.1624 234.959 49.5824 229.539 50.0882 228.066C50.534 226.764 56.6546 226.516 58.412 226.13C66.7014 224.298 78.8742 219.571 83.4947 212.06C86.9579 206.426 88.0037 199.395 88.3123 192.887C93.8415 191.071 99.1821 188.382 103.871 184.905C104.3 192.664 104.943 202.05 113.309 205.287C119.859 207.821 139.172 206.597 145.456 203.617C155.665 198.778 154.165 180.709 153.008 171.221C152.742 169.028 152.682 163.95 150.059 163.924L124.162 164.875L135.82 147.414C137.569 146.891 143.698 147.337 144.718 146.061C145.987 144.476 144.213 140.306 144.213 138.328L155.622 145.324C157.26 153.083 157.423 163.625 162.617 170.005C164.015 171.717 165.978 172.873 167.401 174.543C170.213 190.172 170.65 206.186 174.927 221.515C188.935 226.901 203.233 231.885 216.315 239.318C226.833 245.296 233.828 251.813 234.205 264.761C234.582 277.709 231.831 296.823 229.379 310.285C228.967 312.546 226.567 325.434 225.839 326.307C225.273 326.975 222.813 327.258 221.775 327.369C211.66 328.448 198.416 328.106 188.275 326.958C186.44 326.753 184.571 326.316 182.737 326.059C181.957 316.314 182.677 306.286 182.462 296.438C182.308 289.33 182.291 280.646 181.451 273.693C181.331 272.691 181.031 270.104 179.634 270.832C178.005 271.68 178.271 279.362 178.245 281.323L156.334 278.531C158.323 264.692 155.888 254.228 145.85 244.508C142.412 241.177 128.414 230.455 124.282 229.71C122.945 229.47 121.642 230.095 122.516 231.5C123.253 232.682 129.888 236.167 131.577 237.357C155.922 254.544 155.982 264.778 150.59 293.526C148.456 304.907 145.618 318.831 142.112 329.767C141.658 331.197 140.166 335.959 139.335 336.781C138.392 337.714 133.943 338.048 132.314 338.151C122.053 338.785 107.866 337.389 97.9562 334.76C97.2276 334.563 95.5817 334.229 95.1959 333.646C95.7874 322.051 96.6875 310.456 97.1161 298.801C97.4162 290.64 98.282 281.837 97.5962 273.624C97.2447 269.437 94.9473 269.103 94.313 272.708L94.3044 272.699ZM166.569 169.996C160.5 164.061 160.277 154.188 158.648 146.241C160.131 147.234 162.549 146.626 163.08 148.561L166.561 169.996H166.569ZM165.644 148.107L178.228 149.503C177.105 152.158 175.605 154.564 174.61 157.296C173.307 160.884 172.193 165.517 171.704 169.302C171.481 171.041 172.321 173.276 170.993 174.646L165.635 148.099L165.644 148.107ZM117.621 172.788L121.084 168.095L149.793 166.271C149.467 167.547 151.199 170.767 149.493 171.323L117.621 172.788ZM147.299 198.718C146.579 199.523 144.461 200.705 143.39 201.099C138.083 203.069 124.531 203.891 118.778 203.445C107.506 202.563 107.489 191.645 107 182.867L115.058 175.605C126.794 175.168 138.589 174.62 150.248 173.267C150.659 179.699 151.808 193.683 147.29 198.727L147.299 198.718ZM50.9454 223.561L53.7486 186.764C62.6124 193.486 73.3707 197.391 84.4805 193.931L85.4406 194.445C83.829 200.885 83.0746 209.166 77.7512 213.773C70.9876 219.631 59.7578 222.945 50.954 223.57L50.9454 223.561ZM188.017 330.221C197.644 330.863 207.305 331.702 216.932 330.683C216.975 333.604 215.68 337.543 216.812 340.343C217.026 340.874 219.306 343.358 219.915 344.008C222.933 347.22 227.227 349.609 228.119 354.43C217.489 353.103 207.039 350.637 196.701 347.965C195.784 342.544 193.169 338.51 187.632 337.132L188.026 330.212L188.017 330.221ZM101.317 339.093C110.729 340.754 120.15 342.142 129.734 341.405C129.46 343.794 128.38 346.766 128.388 349.138C128.397 357.171 138.229 359.902 138.598 367.952C137.44 369.074 111.123 360.211 107.823 358.412C107 353.531 105.508 348.787 100.339 347.177L101.325 339.093H101.317ZM187.563 340.472C190.649 340.72 192.655 343.143 193.435 346.029L192.912 346.997L187.606 345.558L187.563 340.48V340.472ZM187.563 348.393L227.647 357.008C227.047 357.676 226.379 358.327 225.461 358.541C222.015 359.329 208.051 356.186 203.782 355.244C201.553 354.756 188.077 351.793 187.623 350.422C187.417 349.814 187.589 349.035 187.563 348.393ZM99.9022 349.789C101.325 350.363 102.474 351.407 103.263 352.718C103.674 353.394 105.243 356.528 103.854 356.777C99.1135 355.415 98.8392 354.602 99.9022 349.789ZM99.4392 358.173L118.453 365.486L137.192 370.513C136.386 371.54 135.015 372.131 133.712 372.148C126.759 372.234 108.955 365.306 102.534 361.829C101.651 361.35 98.162 359.543 99.4392 358.173Z" fill="#2A5BAE"/>
<path d="M14.573 94.0797C13.4843 94.3794 13.7844 93.7971 13.51 93.4802C12.7642 92.641 8.13518 87.0489 7.11507 88.0252C6.58359 90.4915 14.3158 95.5269 13.1757 96.8714C11.787 97.0769 5.64063 99.0123 5.26344 99.92C5.17772 100.126 5.07483 101.076 5.48631 101.076L13.6386 98.7468C13.9044 100.134 11.7098 108.167 13.4157 108.526C14.2387 108.698 14.3587 107.91 14.5559 107.345C15.2759 105.229 15.4817 101.932 15.516 99.6803C16.3475 98.7211 20.7794 105.581 22.5024 104.801C23.5311 103.774 17.7876 98.7982 17.3847 97.5822C17.4619 96.5288 26.4543 95.1158 23.6597 92.6924L16.4503 95.0217C16.2018 94.7562 17.3333 88.9758 17.4019 87.8197C17.4362 87.2117 17.8134 85.439 16.6904 85.713C15.1474 88.0594 14.8388 91.3479 14.5816 94.0882L14.573 94.0797Z" fill="#2A5BAE"/>
<path d="M284.996 129.011C283.908 129.25 284.251 128.865 283.959 128.411C283.085 127.058 282.51 124.061 280.342 124.352C281.439 130.818 286.025 131.057 276.613 131.811C276.441 134.423 282.039 132.633 282.673 133.207L280.35 139.261L282.133 139.184L284.774 134.62C286.651 135.904 286.437 139.501 289.197 139.27L286.865 132.753L292 132.256V130.869H286.411C285.656 130.158 290.106 124.326 288.04 122.965L285.005 129.011H284.996Z" fill="#2A5BAE"/>
<path d="M10.8526 213.311L16.4417 211.915L15.9789 218.663C18.7049 219.691 18.1905 214.681 18.782 212.84C19.9307 211.821 22.391 218.389 24.3626 215.863L20.1793 210.51L25.297 208.412C24.3798 206.605 20.2479 209.2 19.7164 208.644L20.1793 202.598C17.5562 202.735 18.8763 206.023 17.1533 207.239C16.5103 206.503 14.4101 203.326 13.4329 203.523C10.9983 204.028 16.4846 208.609 16.4417 209.346C14.9416 211.204 10.604 210.339 10.8612 213.294L10.8526 213.311Z" fill="#2A5BAE"/>
<path d="M214.155 24.6974C213.177 28.3027 209.988 30.6748 206.199 30.2723C206.302 32.9013 208.66 33.3209 209.688 36.3353C210.554 38.8701 209.817 41.2251 211.566 42.8351C213.897 39.4953 214.635 35.2049 219.727 35.3933C220.138 33.6549 218.458 33.6121 217.601 32.6273C216.52 31.377 215.74 29.296 215.56 27.669C215.457 26.7527 216.495 25.5709 215.535 24.9029L214.146 24.706L214.155 24.6974ZM212.277 37.2516L209.945 31.9165L213.906 29.3474L216.469 34.4513C214.575 34.5541 213.743 36.3781 212.277 37.2516Z" fill="#2A5BAE"/>
<path d="M56.0975 6.07159C55.626 7.79288 57.2976 7.86995 57.9491 8.72631C59.4836 10.7302 59.8436 13.0509 61.4381 14.8835C62.8782 13.6076 62.3553 11.5694 63.7355 10.2078C64.7899 9.16305 65.8443 9.53985 66.7958 8.59785C66.9501 7.96415 64.2669 6.3285 63.6154 5.26661C62.4496 3.38262 62.8954 1.4815 61.4381 0C59.7579 2.56908 59.8865 5.53209 56.0975 6.07159ZM60.8037 9.72825L58.8835 7.21055L61.6609 5.11247C62.1067 7.03071 64.7127 7.53597 62.261 9.3172C61.9695 9.53129 61.0952 9.92521 60.8037 9.72825Z" fill="#2A5BAE"/>
<path d="M239.314 216.111C241.963 216.813 241.243 214.176 242.795 212.831C243.943 211.838 245.298 212.232 246.301 211.213C244.243 208.584 243.558 206.477 243.969 203.069C241.809 202.7 241.68 205.552 240.24 206.554C239.16 207.299 237.857 206.999 236.983 207.967C238.56 210.553 239.743 212.951 239.314 216.111ZM240.712 211.452L240.283 208.96L241.877 207.744L243.506 210.51L240.712 211.452Z" fill="#2A5BAE"/>
<path d="M146.673 146.857C141.967 151.207 149.253 158.161 153.831 153.537C158.409 148.912 150.968 142.884 146.673 146.857ZM151.328 148.202C153.188 148.758 153.119 151.944 150.933 152.304C146.527 153.023 147.024 146.909 151.328 148.202Z" fill="#2A5BAE"/>
<path d="M186.089 84.694C187.494 82.5017 183.603 77.3293 183.32 81.731C183.2 83.6236 184.82 86.6637 186.089 84.694Z" fill="#2A5BAE"/>
<path d="M196.101 78.3141L194.764 78.6995C193.778 80.1039 196.435 82.7329 198.013 82.4246C199.95 81.9365 196.967 78.6052 196.093 78.3141H196.101Z" fill="#2A5BAE"/>
<path d="M194.087 90.817C193.752 92.9236 194.455 95.0902 196.881 95.0046C197.618 93.0949 196.281 90.68 194.087 90.817Z" fill="#2A5BAE"/>
<path d="M174.036 88.0252C172.013 87.7426 170.958 88.3164 170.504 90.3202L171.233 91.5363C172.356 92.0158 174.473 89.2498 174.036 88.0252Z" fill="#2A5BAE"/>
<path d="M180.097 98.7298C182.385 99.3892 183.594 94.996 181.708 94.5422C180.508 94.251 179.419 97.7535 180.097 98.7298Z" fill="#2A5BAE"/>
<path d="M118.084 53.0943C118.187 55.4064 120.201 56.8366 120.673 59.123C121.247 61.9405 121.007 65.246 119.404 67.6866C118.838 68.5516 114.364 71.6088 116.953 72.1654C118.684 72.5336 120.896 69.5193 121.144 69.4679C121.659 69.348 123.442 70.0331 124.813 69.8361C130.608 69.0054 132.203 61.538 127.891 57.967C125.576 56.0487 124.488 57.3675 122.593 56.7424C121.427 56.357 120.647 52.3749 118.093 53.0943H118.084ZM123.219 58.6777C130.377 58.4294 129.64 68.6372 122.747 67.5239L123.219 58.6777Z" fill="#2A5BAE"/>
<path d="M126.014 55.4151C135.306 55.0383 127.814 48.7183 126.236 44.2396C123.399 43.563 126.845 51.767 128.328 52.3921C126.922 53.4454 125.568 53.1029 126.005 55.4151H126.014Z" fill="#2A5BAE"/>
<path d="M88.3038 54.4303C88.3981 54.6015 91.0898 55.809 91.7413 56.3485C92.5042 56.9737 95.7274 60.9814 96.6361 60.0737C96.1389 56.3057 92.5042 53.4626 88.9296 52.709C88.2781 53.0001 87.9866 53.8736 88.3038 54.4388V54.4303Z" fill="#2A5BAE"/>
<path d="M116.73 43.8199C116.095 44.2481 115.735 48.4014 117.15 49.1379C120.964 51.1246 119.841 41.7304 116.73 43.8199Z" fill="#2A5BAE"/>
<path d="M132.22 42.8951C130.197 42.741 129.923 48.8125 132.769 48.4614C134.86 48.2559 134.569 43.0749 132.22 42.8951Z" fill="#2A5BAE"/>
</g>
<defs>
<clipPath id="clip0_249_215">
<rect width="292" height="375" fill="white" transform="matrix(-1 0 0 1 292 0)"/>
</clipPath>
</defs>
</svg>
