<svg width="147" height="201" viewBox="0 0 147 201" fill="none" xmlns="http://www.w3.org/2000/svg">
<g clip-path="url(#clip0_757_318)">
<g clip-path="url(#clip1_757_318)">
<path d="M6.135 210.024C3.02016 210.579 0.958875 212.038 -0.101217 214.738C-0.506932 215.783 -0.03578 219.274 -2.03163 218.89C-2.82343 218.736 -3.34039 213.302 -6.71698 211.3C-7.97339 210.556 -10.4862 210.768 -10.2179 208.86C-3.68067 208.258 -4.0144 204.401 -2.03818 200.006C-0.0292349 201.754 -0.4873 204.513 1.25989 206.468C3.00708 208.423 5.95832 207.744 6.135 210.03V210.024ZM-1.07624 206.492L-2.42426 206.864L-4.23689 209.232L-2.03163 212.387L0.814912 209.622L-1.07624 206.492Z" fill="#2A5BAE"/>
<path d="M146.165 200.573C146.178 202.245 146.695 204.548 147.821 205.877C149.103 207.395 150.288 207.094 151.59 207.791C155.045 209.628 149.332 210.118 148.102 211.483C146.165 213.627 147.526 218.453 144.209 217.709C143.986 215.187 143.685 212.209 141.179 210.691C140.276 210.142 137.292 209.953 137.665 208.559C137.868 207.797 141.133 207.348 142.265 206.208C144.431 204.034 142.874 199.882 146.165 200.573ZM144.87 211.802L147.389 209.032L145.184 206.509L142.939 208.636L144.87 211.802Z" fill="#2A5BAE"/>
</g>
<path d="M7.01609 6.51557C32.4855 13.731 83.7792 36.514 85.198 69.922C86.9716 111.682 34.4353 128.297 24.4179 104.692C14.4005 81.0871 70.5531 13.403 120.178 69.8499C159.878 115.007 130.125 171.521 110.286 194.133" stroke="#78D604" stroke-width="13" stroke-linecap="round"/>
</g>
<defs>
<clipPath id="clip0_757_318">
<rect width="1920" height="5031" fill="white" transform="translate(-1377 -1566)"/>
</clipPath>
<clipPath id="clip1_757_318">
<rect width="273" height="329" fill="white" transform="translate(-41 200)"/>
</clipPath>
</defs>
</svg>
