<svg width="184" height="161" viewBox="0 0 184 161" fill="none" xmlns="http://www.w3.org/2000/svg">
<g clip-path="url(#clip0_249_234)">
<path d="M13.3041 127.836C4.3115 130.378 2.50476 121.594 7.99684 116.083C8.68463 115.402 10.44 114.558 10.8507 113.999C11.5077 113.104 11.1381 108.133 11.1586 106.588C11.1586 105.906 11.5898 105.093 11.4769 104.564C11.3845 104.178 9.53667 102.013 9.09525 100.935C7.99684 98.2103 7.98658 94.7637 9.04393 92.0289L0.256604 92.6491C-0.379862 91.7442 0.277135 90.7987 0.800679 90.0057C2.85379 86.8947 6.31329 84.475 9.23897 82.2079C7.16533 76.7687 6.07718 70.4551 11.4563 66.5816L10.0602 63.2774C6.55966 63.8061 1.98122 64.9143 0.769882 60.3698C-1.05739 53.4971 7.17559 54.6052 10.9944 53.0701C14.8132 51.5349 13.2528 50.813 12.411 48.4849C9.33136 39.9347 17.8826 27.0433 23.9187 21.2889C55.28 -8.64186 135.136 -7.21852 163.387 26.7281C168.376 32.7163 174.443 43.6049 169.392 50.9452C171.835 55.1441 177.656 54.0562 181.177 56.1506C185.304 58.6007 182.778 64.8126 179.493 66.907C176.752 68.6556 173.673 68.066 170.644 67.9745C177.543 71.2786 178.241 76.5043 176.393 83.3872C178.857 85.5425 181.803 88.3485 183.24 91.3071C186.166 97.3257 179.76 93.4319 176.67 93.4217C176.886 97.1732 176.024 101.006 173.919 104.127C177.102 106.435 175.613 109.851 176.024 113.196C178.251 114.823 181.752 116.703 182.265 119.652C183.322 125.762 177.769 127.196 172.78 126.758C173.786 137.718 170.419 146.065 160.389 151.169C140.351 161.366 99.9866 161.742 77.6179 160.451C64.2213 159.678 31.8745 156.76 21.4653 149.023C17.821 146.319 13.2939 139.213 13.2939 134.658V127.816L13.3041 127.836ZM82.6891 2.63302C59.9303 3.76153 27.6657 12.7997 16.9381 34.7497C14.9158 38.8977 11.8259 47.7834 17.3077 50.3352C20.8904 52.0026 28.8667 52.8362 33.014 53.3852C68.7382 58.0822 116.062 58.7228 151.633 53.3852C155.318 52.8362 166.774 51.3519 168.448 47.9257C170.891 42.9135 165.317 33.0721 162.145 29.0665C144.847 7.22837 109.082 1.32152 82.6891 2.63302ZM168.663 54.0054C168.242 53.6394 167.544 52.1652 166.949 52.1246C165.306 53.3039 162.863 53.2124 161.457 54.4832L172.8 59.9326L172.266 60.8069L158.777 54.8492L146.223 56.5979L154.723 62.3929L155.082 63.9688L143.194 56.9741L134.171 57.6552L140.382 63.2673L140.022 64.3144L131.502 58.0212L107.593 59.0583C107.152 59.4344 111.813 64.8736 112.049 65.7073C112.233 66.3478 112.182 66.3681 111.659 66.785C110.632 66.9985 106.762 60.1868 105.663 59.3938C105.263 59.0989 105.048 59.1091 104.596 59.0481C99.7607 58.3873 93.3345 59.5361 88.3249 59.1091C87.5139 59.3836 87.0006 63.1758 86.4155 64.2331C85.8304 65.2904 85.1426 64.9143 85.3581 63.5418C85.5943 62.0168 86.2718 60.6036 86.3231 59.0583C80.6873 59.0176 75.1131 58.8346 69.4773 58.7228C68.2762 58.7024 67.3113 58.1737 65.9768 58.3771C64.3343 58.6211 64.2521 59.7293 63.3077 60.6544C62.5891 61.3559 58.6677 65.4836 58.1647 65.382C57.3845 64.8634 57.7951 64.6093 58.1852 64.0094C59.5095 61.9659 61.8397 60.5121 62.9382 58.3669L46.8007 57.2994C44.6757 57.5637 39.9946 61.8236 37.7875 63.1148C36.9868 63.5824 35.8987 64.1416 36.2785 62.6878L43.7929 56.9639C40.3334 56.5776 36.8328 56.3234 33.3939 55.8557C30.6735 55.4897 25.0274 54.0664 22.7382 54.1782C20.8185 54.2697 14.4436 58.0314 13.8482 58.0009C13.5813 58.0009 13.2015 57.4621 13.4889 56.9436C14.0022 55.9879 18.4472 54.1376 19.6996 53.7919L16.2709 52.4499C14.7721 53.2937 13.9303 54.6256 12.257 55.3779C9.75225 56.5064 2.84353 56.1099 3.04884 59.2108C3.28495 62.7589 7.32958 60.6849 9.24924 60.7866C13.879 61.0204 11.713 65.8293 14.9158 65.7378C18.9297 65.626 22.9948 57.8993 29.2876 59.2108C34.79 60.3596 32.9832 68.2286 37.2948 68.432C40.8364 68.5946 45.3122 61.8846 50.6195 62.6369C56.6659 63.5011 57.8464 76.6365 64.8783 70.628C68.2557 67.7508 69.9495 62.7589 75.5751 62.5861C82.5864 62.3828 84.1879 71.3295 89.4336 71.604C94.1044 71.848 96.0857 66.0123 100.715 65.4023C108.261 64.4059 110.303 73.4035 114.502 73.4543C118.701 73.5051 118.701 66.1241 123.392 65.3921C130.486 64.2839 132.241 72.0513 137.548 72.0615C142.486 72.0818 141.613 64.5279 148.502 65.3921C152.382 65.8801 154.107 70.6788 157.043 70.6585C161.313 70.628 158.018 63.9993 163.233 63.0436C166.898 62.3726 171.301 66.8663 176.547 65.382C179.883 64.4364 183.281 59.2819 178.559 57.7467C174.617 56.4657 172.256 57.1266 168.684 54.0156L168.663 54.0054ZM29.6059 61.8541C24.237 60.9086 20.4387 67.0798 15.8808 68.0863C13.9919 68.5031 13.3144 67.7 11.5179 69.3876C6.75471 73.8813 13.3041 77.0127 17.2051 78.1717C29.0926 81.7198 44.9221 79.4323 56.553 75.6503L56.8917 72.7325C53.925 74.898 49.48 71.4921 47.3242 69.3978C46.4619 68.5641 45.8255 68.066 45.7331 66.7646L43.0743 69.042C44.727 70.323 49.1515 72.885 48.6895 75.2843C48.2892 77.3278 44.9118 77.5413 43.2693 77.277C39.5943 76.6873 39.738 70.8516 39.0091 70.7195L36.3298 70.9838C36.9765 76.3213 32.162 81.3132 27.5425 77.0635C26.5775 73.9525 31.4947 71.1363 33.3425 69.2351L32.0388 66.8053C30.2526 67.1713 21.5577 69.1945 21.5679 66.2461C21.5679 63.9383 27.3474 62.8606 29.0618 62.5556C29.6469 62.4539 29.6777 62.7793 29.5956 61.8744L29.6059 61.8541ZM31.0225 65.0058C28.7641 63.9281 26.1258 64.4059 24.2883 66.053C25.9103 65.9615 27.7889 65.8903 29.38 65.6666C29.7701 65.6056 31.0328 65.5446 31.0122 65.0159L31.0225 65.0058ZM52.9908 67.1103C51.3894 64.5686 49.0283 64.9651 46.6159 66.0631L52.9908 67.1103ZM81.3443 68.859C78.7676 63.6943 73.5117 64.8126 70.0009 68.3405C71.438 68.371 72.8957 67.5068 74.3945 67.4966C76.6119 67.4763 79.168 68.493 81.3443 68.859ZM128.884 75.2335V77.4193C129.192 78.3445 136.943 80.0728 138.328 80.3473C146.592 81.9842 166.21 83.6007 173.108 78.497C176.67 75.8638 174.361 73.251 171.681 71.177C169.002 69.103 165.481 67.8321 162.329 66.7545C161.58 68.2083 164.239 68.7166 165.306 69.4181C166.004 69.8756 167.483 70.9025 167.688 71.665L166.764 73.4238C168.94 73.7695 170.213 76.0265 168.376 77.6633C164.783 80.8557 157.874 75.7622 154.897 73.4238C152.772 71.7565 149.148 66.8561 146.295 68.0863C143.821 69.1538 144.724 70.9431 144.344 72.824C143.677 76.118 142.681 79.29 138.595 79.0765C136.101 78.9443 133.463 76.8703 135.916 74.6743C133.576 72.2851 131.553 74.9895 128.884 75.2437V75.2335ZM104.74 68.5235C96.7016 65.3514 95.9522 76.7687 87.0314 73.5966C86.241 73.312 85.3068 72.4376 84.7114 72.3766C83.2742 72.2445 80.0303 73.0273 78.357 73.0883C76.8069 73.1493 72.3311 73.495 71.6023 72.0208C71.1198 71.0448 72.1874 69.6215 71.2635 69.9163C63.5643 72.3868 65.9357 79.9813 73.2037 80.083C72.6699 79.1985 71.9718 78.7003 72.1977 77.5413C72.7726 74.6133 82.4119 73.5051 85.0194 73.7593C85.9022 74.5523 85.2965 75.1725 84.7217 75.8943C83.264 77.7345 77.0841 81.5064 74.7641 81.8215C69.7853 82.5027 63.6259 79.3408 65.0529 73.7796C63.0613 74.6337 61.1417 74.7557 59.027 74.1253C58.4521 77.3787 61.5626 79.7882 64.1084 81.2013C76.8788 88.2875 104.483 88.0029 117.951 82.8179C121.709 81.3742 128.176 78.1412 126.041 73.2205C125.64 72.3156 122.304 68.9708 121.421 69.5808C121.401 70.8618 119.532 72.7833 119.347 73.6882C119.009 75.325 120.364 76.362 118.567 78.8732C114.143 85.0545 104.154 79.3713 100.531 74.9387L100.818 73.9322L101.742 73.434L110.776 74.837C109.595 71.0651 101.824 73.8915 100.654 72.0411C99.4836 70.1908 104.093 69.6316 104.75 68.5235H104.74ZM128.135 69.5706C129.028 68.676 124.49 67.334 123.885 67.822C124.963 69.3673 126.266 70.2925 128.135 69.5706ZM49.1002 68.859C51.143 69.3063 53.4425 72.7935 55.4751 71.1363C55.8139 69.4283 51.5639 68.6353 50.332 68.5133C49.9522 68.4726 49.0078 68.2591 49.1002 68.859ZM80.9953 70.628C78.5623 70.4145 75.9857 68.6861 73.6451 70.1806C73.1934 70.4653 72.9573 70.4348 73.1935 71.1566C73.3782 71.7361 78.1414 71.4006 79.0448 71.3295C79.476 71.2888 80.944 71.1973 80.9953 70.6381V70.628ZM41.2983 69.9163C40.9493 73.4238 42.6637 77.0737 46.6467 75.02C47.1086 74.6337 46.7083 74.1355 46.4106 73.8102C45.1479 72.4275 42.8279 71.0855 41.2983 69.9163ZM165.347 72.0208C165.173 71.1973 161.939 69.591 161.467 69.9265L161.097 71.3193L165.347 72.0208ZM34.5641 70.9736L30.8275 73.7695C30.5298 74.3795 28.7949 75.9248 29.2466 76.5857C33.2193 77.887 34.7284 74.349 34.5641 70.9736ZM129.829 71.0346C129.438 71.0448 127.796 71.4921 127.786 71.848C128.443 73.6475 130.455 73.3933 131.666 72.2038C131.03 71.5633 130.824 71.0143 129.829 71.0448V71.0346ZM137.025 76.9008C137.117 77.0127 138.873 77.2973 139.252 77.277C141.747 77.1143 142.127 74.776 142.301 72.7223C141.501 73.8 135.649 75.1928 137.025 76.9008ZM157.905 73.0781C160.112 75.1217 164.619 78.497 167.472 76.057C167.483 74.6235 159.404 72.458 157.905 73.0781ZM117.849 75.1827C115.806 75.7825 114.328 76.1993 112.182 75.5385C112.151 76.0875 112.86 75.9452 113.219 76.4332C114.348 78.0293 112.747 79.6357 112.89 79.7373C115.529 79.9407 118.044 77.9073 117.849 75.1827ZM82.4119 75.5385C81.0877 75.569 73.9942 76.5552 74.2816 78.131C74.3843 78.7308 76.0062 79.4628 76.6735 79.1578L82.4119 75.5385ZM111.813 77.3075C111.412 76.7077 105.212 75.4673 104.031 75.5385C105.499 77.1143 109.102 80.1643 111.268 78.6597C111.689 78.3648 112.12 77.765 111.813 77.3075ZM56.5324 77.9988C43.5157 81.7809 29.3492 83.5194 16.0553 80.0017L10.1013 77.4702C10.5119 83.2449 17.6465 84.8614 22.4302 85.6137C29.9446 86.8032 37.4693 86.4474 44.9631 85.3087C49.0078 84.6987 52.9498 83.5702 56.8917 82.5535L56.5324 77.9887V77.9988ZM126.708 80.1033C125.301 81.1098 123.998 82.2485 122.468 83.0924C108.805 90.6564 75.7598 90.7174 62.3838 82.5739C61.2751 81.8927 60.1664 80.9777 59.2015 80.1135C58.0723 84.4649 62.2298 87.2607 65.638 88.8365C78.9216 94.9976 105.325 94.8959 118.814 89.3042C122.961 87.586 127.139 85.268 126.718 80.1135L126.708 80.1033ZM174.556 80.1033C170.583 82.6552 165.296 83.7125 160.574 83.9769C149.857 84.597 139.068 83.0822 128.843 80.1033L128.463 84.4344C139.868 88.1757 154.938 90.3107 166.702 87.2302C170.347 86.2745 174.894 84.5767 174.556 80.0932V80.1033ZM145.853 90.2802C139.622 89.7617 133.473 88.4705 127.58 86.4372C126.872 86.4779 125.784 87.952 125.055 88.4705C112.141 97.4884 82.2066 97.0919 67.6911 92.0492C63.6259 90.6361 59.571 88.4909 57.3639 84.7089C42.6739 88.6535 24.9658 91.3681 10.9944 83.9769C9.9473 83.9769 4.90691 88.7857 4.08566 89.9345C21.0238 88.0334 38.4958 89.355 55.1261 92.9134C70.8016 96.2786 86.1383 101.88 99.5965 110.522C110.026 102.785 121.493 96.3396 134.15 92.9134L145.843 90.2802H145.853ZM180.582 91.6832C180.92 91.4291 176.003 85.3799 175.079 85.4612C172.728 87.708 169.7 88.5722 166.754 89.7617L180.571 91.6832H180.582ZM151.879 112.738C157.309 112.657 163.356 112.118 168.54 110.461C169.628 110.115 176.024 107.838 172.79 106.242C171.507 105.601 171.127 106.72 170.203 107.198C168.694 107.98 167.123 108.631 165.532 109.241L151.879 112.738ZM40.59 112.749C37.9518 111.762 35.2827 112.301 32.665 111.996C29.7804 111.661 26.0642 110.817 23.2207 110.115C19.8844 109.282 16.4967 108.438 13.6634 106.425C13.4889 107.167 14.0638 107.218 14.4641 107.553C19.1247 111.447 33.3015 113.318 39.3581 113.094C39.7893 113.074 40.6721 113.359 40.59 112.749ZM18.6114 117.659V112.22L13.2939 109.587V114.68C13.2939 115.778 18.3856 117.924 18.6114 117.659ZM169.248 112.393V118.361L173.324 116.256C173.324 114.711 173.858 113.033 173.868 111.518C173.868 111.041 174.073 110.441 173.334 110.644L169.248 112.393ZM27.4809 114.152L20.3976 112.749L20.7877 118.686L26.752 120.333L27.4809 119.947V114.152ZM167.472 113.094L161.447 114.152V120.12L167.472 119.062V113.094ZM37.3974 115.199L29.2466 114.497V120.811L37.3974 121.512V115.199ZM139.468 114.497L132.354 115.707C131.769 116.104 131.964 118.666 132.179 119.438L139.468 120.821V114.507V114.497ZM149.395 115.199L141.593 114.497V120.292C141.593 120.384 141.305 120.506 141.316 120.648L141.767 121.177H149.384V115.209L149.395 115.199ZM151.171 115.372V121.167L159.681 120.465C158.993 118.666 159.27 116.541 159.681 114.68C157.628 114.701 153.994 114.497 152.054 114.853C151.653 114.924 151.386 115.026 151.171 115.382V115.372ZM48.3816 115.372V121.512L55.4751 120.811C55.2698 119.703 55.896 115.941 55.1261 115.361C54.2945 114.741 48.669 114.457 48.3816 115.361V115.372ZM46.6159 115.199H39.1734V121.34L39.7072 121.868H46.6159V115.199ZM57.251 115.555V120.465L60.1049 119.56L60.0843 115.9L57.251 115.544V115.555ZM130.249 119.062C130.752 116.205 131.071 115.494 127.796 116.276L127.817 118.32L130.249 119.072V119.062ZM64.6936 116.246H62.2093C61.9937 118.32 62.158 119.53 64.17 120.455C64.8886 120.547 64.632 120.425 64.6936 119.937C64.8475 118.798 64.5806 117.415 64.6936 116.246ZM70.7194 116.602L66.1102 116.246V121.512L70.7194 122.915V116.602ZM122.458 116.602V121.512C125.65 120.821 125.486 119.062 125.291 116.246L122.458 116.602ZM59.376 122.224C49.0899 124.491 38.1365 124.725 27.7683 122.814C22.0299 121.756 16.1477 120.079 11.405 116.632C9.3211 118.117 6.1593 122.153 7.83259 124.664C9.90624 127.755 17.359 123.363 20.7672 124.135C24.9761 125.091 23.2207 130.52 27.6862 130.622C32.1517 130.723 36.761 126.138 41.7706 126.464C47.314 126.83 48.1865 132.95 53.1653 133.458C58.1441 133.967 62.2401 129.453 67.147 128.7C77.6692 127.094 79.3015 136.132 87.9143 135.939C94.2071 135.797 96.948 130.439 102.081 129.951C107.214 129.463 110.642 134.302 115.118 133.377C117.438 132.899 119.388 130.103 121.431 129.107C128.309 125.752 131.471 133.418 137.199 134.129C143.184 134.871 143.122 130.215 147.331 129.137C151.54 128.06 156.909 130.744 160.461 129.503C162.853 128.67 163.674 125.64 165.799 124.613C169.443 122.854 176.763 126.077 179.319 122.915C181.875 119.754 176.291 115.575 175.623 116.266C175.859 118.666 171.671 120.048 169.69 120.75C157.771 124.969 142.445 124.268 130.26 121.543L138.79 127.663L138.944 128.914C134.694 127.257 131.266 123.708 127.19 121.584C124.07 123.871 119.84 125.244 116.083 126.27C103.877 129.605 90.5115 129.697 78.1004 127.389C72.6288 126.372 67.3318 124.756 62.3838 122.244C61.9321 122.255 59.1296 124.552 58.5034 125.05C56.8404 126.372 55.1261 128.67 53.0011 128.904C51.9745 127.948 59.0372 123.18 59.376 122.244V122.224ZM108.64 116.612L82.4119 117.13C90.1727 118.259 99.5554 118.676 107.296 117.202C107.686 117.13 108.702 117.13 108.64 116.612ZM120.692 116.602C118.526 116.165 117.038 117.405 115.026 117.659C114.892 118.015 115.385 118.401 115.385 118.533V123.973L120.702 122.57V116.602H120.692ZM77.8027 124.674V118.879C76.3039 118.015 74.1995 117.964 72.4851 117.303V123.617L77.8027 124.674ZM113.599 118.361L107.573 119.062V125.203C107.84 125.549 107.881 125.599 108.302 125.589C109.564 125.579 112.449 124.756 113.599 124.146V118.351V118.361ZM86.6619 119.764L79.2193 119.062V124.857C81.293 125.965 84.2597 125.874 86.6619 126.087V119.774V119.764ZM105.807 119.408L98.3646 120.109V126.423C100.736 126.382 103.713 126.545 105.807 125.549V119.408ZM96.5887 120.109H88.4378V125.904C88.6637 126.25 88.9306 126.362 89.3207 126.433C91.2608 126.789 94.4637 126.403 96.5887 126.789V120.12V120.109ZM170.306 135.034C170.593 132.747 170.306 129.402 170.306 126.962C170.306 126.596 169.474 126.423 169.084 126.423C165.46 126.413 164.67 130.754 161.447 131.872C157.761 133.153 156.108 131.527 153.121 131.516C152.279 131.516 146.12 132.919 145.514 133.285C144.703 133.784 144.057 134.912 143.143 135.492C139.406 137.85 134.653 136.335 131.163 134.312C124.234 134.963 117.202 135.969 110.232 136.244C105.879 136.417 99.7197 135.644 95.7264 136.264C93.5295 136.61 91.6407 138.226 88.6329 138.359C83.8286 138.582 82.5248 136.396 79.3836 135.908C77.5871 135.634 75.2876 136.02 73.3885 135.888C69.2823 135.593 63.3693 134.414 59.5402 134.536C58.6882 134.566 57.405 135.624 56.2861 135.807C54.0379 136.183 51.5742 135.99 49.5621 134.912C48.8538 134.536 48.4021 133.733 47.7862 133.519C46.4927 133.072 35.1903 131.242 34.133 131.415C31.5768 131.811 29.9446 133.458 26.6391 133.062C21.9888 132.492 22.266 127.45 20.6851 126.677C19.289 125.996 17.164 126.83 15.7781 127.338C15.4188 133.641 16.1888 140.707 20.9417 145.374C29.1542 153.446 56.1526 156.262 67.7219 157.309C89.8545 159.312 114.841 159.343 136.717 155.449C148.45 153.354 168.489 149.4 170.316 135.024L170.306 135.034ZM44.84 130.642C43.3822 128.741 41.3291 128.751 39.1734 129.249C39.0912 129.788 39.8406 129.666 40.241 129.768C41.75 130.144 43.3207 130.388 44.84 130.652V130.642ZM128.135 132.391C125.784 129.768 122.417 130.601 120.333 133.092L128.135 132.391ZM76.0267 133.448C72.8752 130.032 67.4139 130.439 63.6259 132.574L76.0267 133.448ZM99.0729 133.804H106.875C106.762 133.306 105.448 132.747 105.037 132.635C103.61 132.269 102.686 132.32 101.27 132.635C100.777 132.747 99.2782 133.265 99.0832 133.804H99.0729Z" fill="#2A5BAE"/>
<path d="M72.4033 7.49291C74.9491 7.21841 73.6454 11.1936 72.7831 12.4644C69.9395 16.6735 64.3037 12.1798 69.1799 8.89592C69.7753 8.48925 71.7463 7.55391 72.4033 7.49291ZM68.9438 12.3526C69.8677 13.6438 72.5778 10.5023 72.1261 9.19075C71.3972 9.47542 68.2149 11.3258 68.9438 12.3526Z" fill="#2A5BAE"/>
<path d="M135.803 23.9833C138.359 23.1293 143.513 27.8263 140.885 30.0731C137.179 33.235 133.586 24.7254 135.803 23.9833ZM139.827 28.8531C140.803 27.8771 137.815 25.9149 136.994 25.6913C136.624 26.7893 138.832 29.8393 139.827 28.8531Z" fill="#2A5BAE"/>
<path d="M60.0329 16.2668C61.6138 17.253 58.2467 25.4168 54.5819 22.194C51.3996 19.3981 58.1543 15.0976 60.0329 16.2668ZM58.6676 17.9748C58.3186 17.6495 54.6024 19.7845 55.475 21.1265C57.8669 21.6246 57.9182 19.6015 58.6676 17.9748Z" fill="#2A5BAE"/>
<path d="M114.533 27.8262C117.346 27.5009 122.294 31.9844 119.265 34.2923C115.375 37.2508 112.613 28.4362 114.533 27.8262ZM116.853 33.0011C117.202 33.1943 117.89 33.1231 118.229 32.8994C119.645 31.9539 116.145 29.4834 115.734 29.9104C115.58 30.4899 116.576 32.8486 116.853 33.0011Z" fill="#2A5BAE"/>
<path d="M88.7046 11.041C89.9673 12.3119 87.8731 19.1134 84.1878 17.4461C79.7325 15.433 86.8876 9.22118 88.7046 11.041ZM87.3701 12.7084C87.0313 12.3525 83.7258 14.64 84.5368 15.86L86.2512 15.799L87.3701 12.6982V12.7084Z" fill="#2A5BAE"/>
<path d="M126.236 14.5791C129.634 18.1781 124.193 21.6754 121.832 17.3546C121.134 16.0837 120.877 14.1724 121.082 12.749C121.791 11.6104 125.538 13.8471 126.225 14.5791H126.236ZM122.817 14.4672C122.612 15.5957 123.731 18.5339 125.312 17.4562C126.79 16.4599 123.084 14.1622 122.817 14.4672Z" fill="#2A5BAE"/>
<path d="M40.8568 25.3964C44.4087 24.8067 41.9963 31.3338 39.9843 31.9336C36.5042 32.9706 34.9131 29.0869 37.7772 26.9316C38.1878 26.6164 40.4359 25.4574 40.8568 25.3862V25.3964ZM39.779 30.1442C40.1896 29.7782 41.2264 27.4602 40.939 27.0942C39.9432 27.5212 38.1673 28.4057 37.8901 29.5342C37.6848 30.3679 38.968 30.8559 39.7687 30.1442H39.779Z" fill="#2A5BAE"/>
<path d="M105.314 8.17399C106.526 7.78765 110.078 10.2277 110.57 11.3155C111.412 13.1353 110.365 15.311 108.178 15.0975C105.119 14.8027 103.672 8.70266 105.304 8.17399H105.314ZM107.316 12.9625C107.604 13.237 108.415 13.481 108.784 13.3997C110.56 12.3423 106.772 9.77016 106.156 10.2582C106.598 10.919 106.813 12.4948 107.316 12.9625Z" fill="#2A5BAE"/>
<path d="M79.1784 27.1451C80.0407 29.5037 80.0099 34.2618 76.5607 34.1499C71.3458 33.9873 75.3904 26.3114 79.1784 27.1451ZM78.1518 28.8531C77.2793 29.1276 74.5178 32.2386 76.2116 32.7164C77.9055 33.1943 78.2545 29.8901 78.1518 28.8531Z" fill="#2A5BAE"/>
<path d="M96.6811 28.7616C94.4945 26.4334 97.605 17.9951 100.551 24.4001C102.44 28.5074 98.8677 31.0898 96.6811 28.7616ZM99.422 27.7958C99.5555 26.4233 99.2783 24.7661 98.0054 23.9324C97.913 24.8983 97.0404 27.3586 98.2209 27.7551L99.422 27.7958Z" fill="#2A5BAE"/>
<path d="M96.1268 74.8778C97.2868 74.6033 102.84 78.8631 103.672 79.9205C107.439 84.7192 99.6068 86.8034 96.7735 83.2348C95.7572 81.9538 94.1353 75.3455 96.1268 74.8676V74.8778ZM98.4571 82.4622C99.5658 83.5907 103.261 83.4382 102.953 82.0555C102.82 81.4658 97.5024 76.7688 96.9481 77.2975C97.3279 78.6395 97.4819 81.4658 98.4674 82.4622H98.4571Z" fill="#2A5BAE"/>
<path d="M90.5114 74.8779C91.2505 75.3455 90.3574 81.0592 89.916 82.0962C87.8423 87.0576 78.8907 85.1361 82.4016 80.2662C83.3871 78.9039 88.8278 73.8104 90.5114 74.8779ZM88.7867 77.2975C88.3967 76.8502 82.6069 81.5676 83.5102 82.8791C87.7705 84.4142 89.1563 80.9271 88.7867 77.2975Z" fill="#2A5BAE"/>
<path d="M25.633 68.2695C34.5538 67.3951 28.6408 71.6855 24.8836 73.8408C22.5328 75.1828 16.897 77.5822 15.3367 74.0441C13.6634 70.2418 23.1282 68.5135 25.633 68.2695ZM27.1215 69.9266C24.7707 70.2723 22.1838 70.618 19.9459 71.411C18.7551 71.838 16.9483 72.2446 17.205 73.7798C20.839 74.9388 24.6065 72.2955 27.1318 69.9266H27.1215Z" fill="#2A5BAE"/>
<path d="M148.584 70.6687C150.237 70.2621 156.458 76.7281 156.458 78.5174C156.458 81.6793 150.596 81.1303 148.882 79.0258C147.763 77.6533 146.685 71.1262 148.584 70.6586V70.6687ZM149.395 73.0783C149.261 76.3824 149.888 79.6256 154.014 78.8834C155.082 78.1616 152.362 75.4471 151.705 74.8269C151.017 74.1763 150.134 73.6781 149.395 73.0783Z" fill="#2A5BAE"/>
</g>
<defs>
<clipPath id="clip0_249_234">
<rect width="184" height="161" fill="white"/>
</clipPath>
</defs>
</svg>
