<svg width="255" height="308" viewBox="0 0 255 308" fill="none" xmlns="http://www.w3.org/2000/svg">
<g clip-path="url(#clip0_757_397)">
<path d="M73.9775 308C75.3406 300.739 73.3846 292.892 76.997 286.124L80.5911 248.676L76.4347 244.678L45.9464 221.392C44.2411 218.505 46.8266 217.648 46.197 216.238C38.3733 206.915 29.0153 195.656 26.1119 184.043C22.6707 170.302 26.9127 156.964 31.6436 143.897C33.4039 139.031 38.63 129.508 39.0212 125.09C39.5163 119.483 35.2682 111.835 36.0995 103.69C36.4723 100.034 42.1323 87.1057 45.8364 85.9555C46.8388 85.6459 47.8901 85.6901 48.9292 85.7067C49.6749 83.8487 47.2728 83.8155 47.0833 83.1077C46.7288 81.8137 46.8999 66.5403 47.4073 65.8049C47.7129 65.3569 49.5405 64.7431 49.5405 64.4169V52.2513C51.5575 50.4098 60.1453 50.3379 62.5597 50.9794C65.1575 51.6706 63.9961 55.6079 64.21 57.5046H67.2723C66.9484 54.2033 67.3885 51.6209 70.2674 49.4089C68.232 42.6902 59.6808 44.9851 55.9523 40.9262C53.104 37.824 55.7323 36.1208 54.9499 34.9263C54.8337 34.7438 51.9304 33.5439 51.0441 32.6425C47.8474 29.402 48.6847 25.1994 53.1956 23.7284C50.8424 19.7083 51.313 13.8632 57.3215 13.3877C63.2626 12.9121 63.8189 18.1931 65.8665 18.7184C67.9141 19.2438 69.0327 17.6014 71.8566 19.3488C75.1939 21.417 73.7942 23.7506 74.9188 25.9735C75.4445 27.0076 77.0887 27.2509 77.8528 28.3514C82.1069 34.5116 71.7954 39.7096 75.2856 46.3841C79.7109 46.3012 83.6595 47.8495 85.9149 51.4107C86.1655 49.5859 90.1691 47.2357 90.3891 46.8984C92.4062 43.8238 84.014 39.2451 82.8587 37.0442C81.1901 33.8757 83.5433 33.1623 83.0727 30.8177C82.7487 29.2196 80.4138 27.7818 80.3221 25.0722C80.1815 20.9414 83.7878 20.8916 84.289 19.5368C85.2487 16.9489 83.5189 9.89836 90.1935 9.91495C95.7374 9.93154 94.8206 14.2724 96.2936 16.0365C97.1493 17.0595 101.116 16.2687 101.978 19.7359C102.504 21.8372 101.312 24.0215 101.593 25.039C102.106 26.897 105.322 26.8528 104.521 31.7467C103.952 35.2028 100.187 36.4913 98.7141 39.2175C94.5088 46.9758 99.527 44.9187 102.73 48.3693C103.763 49.4808 104.509 51.0513 104.564 52.5222C106.929 50.4154 108.964 48.1426 112.504 47.5399C111.348 44.8192 109.392 43.4035 110.083 40.1133C110.291 39.129 111.397 38.5097 111.299 37.365C111.195 36.1539 108.909 33.8646 109.013 31.8794C109.215 28.0472 113.194 27.9366 113.634 26.7311C114.435 24.5247 112.455 20.6649 116.324 19.2106C117.907 18.6189 119.319 19.0447 120.633 18.6852C122.791 18.0936 123.231 14.9028 127.821 16.2798C131.171 17.2807 130.266 21.3064 130.969 23.3856C131.482 24.8897 134.416 25.6307 134.416 28.4786C134.416 31.3264 131.653 32.0011 131.171 33.1513C130.792 34.0581 132.087 36.2369 131.128 38.1502C130.358 39.693 127.326 40.1354 126.489 41.175C125.853 41.9547 126.666 42.9612 126.55 43.9068C126.238 46.456 122.882 47.3352 121.061 48.95L125.345 54.1978C128.188 51.5213 131.091 50.7859 135.156 50.6421C136.623 49.7407 134.251 46.1242 139.074 45.8975C139.874 45.8588 140.889 46.4837 141.476 46.362C142.063 46.2403 143.138 44.3326 143.945 43.6634C146.751 41.3354 149.593 40.7603 153.389 40.8709C153.823 37.7134 154.758 34.954 158.951 36.7733C160.931 37.6304 159.782 40.3787 160.229 40.8709C160.412 41.0755 164.623 41.6838 165.821 42.1704C167.893 43.0109 169.373 44.8911 171.781 45.3445C170.723 39.3281 173.248 29.496 181.328 28.7882C183.266 28.6168 185.411 29.5237 186.622 29.2306C187.648 28.9818 188.712 27.2178 189.898 26.615C194.794 24.1266 202.624 26.5155 203.528 31.8296C203.754 33.1623 203.113 36.8507 203.259 37.0774C203.528 37.4922 205.282 38.1336 206.034 38.9686C210.001 43.3759 206.969 48.2919 203.571 51.9748C207.917 50.161 213.601 50.6531 218.241 51.4273V64.4224C218.241 64.6989 219.787 65.1579 220.105 65.6334C220.777 66.6454 221.126 81.6257 220.698 83.1077C220.472 83.8818 218.412 83.6994 218.852 85.1537C225.588 85.0707 230.41 97.1479 231.529 102.169C233.362 110.419 230.196 114.672 229.31 121.988C228.479 128.861 237.256 145.943 239.585 154.05C242.476 164.103 244.713 173.36 241.901 183.706C238.607 195.816 229.304 206.273 221.749 216.398C221.113 218.08 223.729 218.804 221.578 221.729L187.172 248.14L190.808 285.001C193.914 292.301 193.37 300.275 193.797 308.011H190.741C190.301 303.504 190.607 298.328 190.124 293.916C189.525 288.441 184.8 287.595 181.322 283.63C172.551 273.627 172.264 256.125 170.571 243.865C168.443 243.445 169.562 246.906 169.214 248.438C167.997 253.752 159.397 255.08 155.999 250.694C154.214 248.388 154.685 245.972 154.685 243.312L113.689 243.002L113.2 243.666C113.066 246.381 113.53 249.179 111.293 251.341C107.571 254.941 99.7043 253.459 98.5857 248.438C98.4635 247.885 98.7875 241.454 97.2288 243.312C96.2814 253.144 95.2484 264.248 92.0272 273.721C89.3256 281.672 85.1203 285.372 78.4212 290.719L77.052 308.005H73.9959L73.9775 308ZM94.1543 41.4626C95.7863 40.246 95.658 38.2498 96.9415 36.5244C98.3413 34.6388 102.718 32.4434 102.003 29.6896C101.642 28.2961 98.8791 27.7265 98.5063 26.7145C97.84 24.9229 100.193 21.7377 99.0136 20.2447C97.9195 18.8567 95.6763 19.2438 94.4233 18.2705C92.4306 16.7277 93.8915 12.0771 89.5884 12.6799C85.811 13.2052 88.0481 19.4152 87.3513 21.2124C86.9907 22.1359 85.2487 22.1193 84.344 22.91C80.9578 25.8906 86.465 28.8767 86.6851 31.3264C86.8195 32.8084 84.3012 33.7817 85.2242 35.3908L91.4038 41.4681C94.3866 37.824 86.7706 30.6241 86.8317 29.0149C86.8501 28.6057 87.7669 28.0085 88.6716 28.4454C89.8085 28.9984 89.3317 30.8177 91.0981 30.3919C90.3035 27.9532 89.7045 23.7616 91.416 21.5552C92.6629 21.2234 92.6568 23.5017 92.7546 24.1985C92.9502 25.5367 93.0052 26.8417 92.938 28.1855L96.5931 25.9791C96.9049 28.8933 93.8487 31.2213 93.5675 34.0637C93.3475 36.3088 94.7411 39.0129 94.1604 41.457L94.1543 41.4626ZM72.2966 28.0528C70.7136 26.5929 72.7184 22.4511 69.6684 21.2621C67.7491 20.5156 66.3371 22.5561 64.369 21.7156C61.8629 20.6483 61.7896 14.7812 56.8386 16.2466C51.8876 17.712 56.7713 22.534 56.1723 24.475C55.0966 26.5321 51.5147 25.9348 52.0832 28.8933C52.6944 32.0951 57.9082 32.1006 58.0672 35.1254C58.165 36.9613 56.2518 38.3714 58.709 40.0691C59.4241 40.5612 68.1097 42.8727 68.4764 42.5575C66.7711 37.47 63.7577 33.5826 58.0733 31.7799C56.8325 28.4122 62.7736 32.272 62.9692 32.0564L60.616 26.145L62.3519 24.8731L66.6489 34.2683C68.831 34.5835 67.3029 31.9181 68.7821 30.4029C69.5094 29.6564 70.0045 30.0214 70.2185 30.7513C71.2637 34.2959 67.6513 39.3502 72.1316 42.563C70.903 38.5318 78.1584 33.1347 75.2428 29.5237C74.5338 28.6445 72.8712 28.5781 72.2905 28.0472L72.2966 28.0528ZM130.633 26.6924C130.04 26.0676 128.854 26.051 128.218 24.7349C127.375 22.9709 128.444 19.3212 126.776 18.829C124.27 18.088 123.451 21.0299 121.837 21.4446C120.223 21.8594 118.219 21.052 117.057 22.0916C115.144 23.8059 117.393 26.0454 116.324 28.0528C115.389 29.8002 112.332 29.6232 112.008 31.8739C111.868 33.3724 114.881 36.2203 114.887 37.8682C114.893 39.5161 112.473 40.5778 112.583 41.634C112.669 42.5243 114.514 45.0183 115.242 45.8809C117.522 41.0423 117.723 37.2489 115.566 32.3826L117.063 31.5089L118.604 34.2683C118.811 34.4121 119.368 33.9641 119.514 33.7208C120.229 32.5374 122.283 24.1376 122.882 23.7671L125.297 24.5856L123.487 29.8444L126.537 29.297C126.977 31.5365 124.508 31.8683 123.151 33.1402C121.232 34.954 118.463 43.0662 118.109 45.7261C118.035 46.2901 117.583 47.4293 118.885 46.9813C119.129 46.8984 123.041 44.4266 123.176 44.222C124.001 42.9612 122.931 39.9529 124.233 38.8193C124.777 38.3493 126.256 38.3161 127.1 37.824C130.663 35.7337 127.521 34.9927 127.742 32.9135C127.937 31.0499 133.108 29.3025 130.633 26.6924ZM195.613 49.7518C199.61 49.7684 200.979 51.361 203.455 47.7279C208.18 40.7935 200.564 39.87 199.977 37.7687C199.665 36.635 200.998 34.8987 200.918 33.5218C200.668 28.9818 194.372 26.9136 190.491 29.3633C189.311 30.1099 188.59 32.2333 187.227 32.543C185.24 32.9964 182.85 29.6122 178.474 32.8748C172.869 37.0553 175.399 43.5363 174.819 49.1988L179.171 48.8836C182.098 45.1676 176.487 40.4009 176.652 39.5437C176.989 37.7852 179.061 40.2184 179.702 39.8036L181.237 35.3908L182.16 38.6977C182.288 38.8636 184.88 36.7622 185.216 38.4322C185.387 39.2949 182.807 41.3962 182.3 42.4248C181.438 44.1722 180.271 50.7748 183.37 50.8633C182.905 47.0588 188.62 42.0377 189.354 39.3889C189.904 37.4037 188.364 35.7005 189.488 33.7264L191.621 36.4857C193.07 35.894 193.431 32.9909 195.594 33.1734C196.255 36.248 192.227 38.2055 191.328 40.6442C190.68 42.4082 195.112 39.964 194.977 41.7391C194.898 42.7455 190.032 43.4035 188.853 44.4819C187.795 45.4441 183.449 53.6392 186.126 53.6171C187.581 51.5379 192.673 49.6799 193.804 47.8551C194.696 46.4228 193.999 45.1676 194.953 43.9178L196.817 43.669L197.123 45.3279C197.758 44.515 200.35 40.7769 201.089 43.3814L195.594 49.7462L195.613 49.7518ZM150.993 43.68C146.427 43.8349 143.89 46.644 143.102 50.5425C143.365 51.4826 146.953 51.9692 148.151 52.6052C152.613 54.9664 153.309 60.4741 152.82 64.6934H157.099C154.214 57.8917 158.456 50.2218 166.811 49.7075C167.508 46.5666 166.39 44.233 162.6 44.2385C164.122 52.6936 158.743 46.6164 156.769 46.4284C154.171 46.185 146.781 52.5167 150.987 43.6856L150.993 43.68ZM92.6201 64.6878H102.094L102.705 58.052L97.8095 57.77C97.8523 55.5692 101.532 56.9903 102.437 55.8567C102.437 47.479 92.5284 45.0736 88.6471 52.8042L93.537 53.0807V54.7341L88.641 55.2927L90.4625 59.4732C95.2851 57.1728 96.8254 61.2262 91.0859 60.8225L92.614 64.6934L92.6201 64.6878ZM76.7281 64.6878H89.2583L87.7364 61.392C87.119 61.3533 84.1484 63.969 83.1582 62.1994L87.4185 59.44L83.7084 52.5609C82.4737 51.7591 78.6412 55.3037 78.2562 53.3462C77.92 51.6319 81.9541 51.8752 81.3062 50.5978C79.3869 46.8044 70.4507 50.2163 69.6989 55.5802C69.3566 58.0465 73.8125 53.6337 75.1939 54.7397C75.9029 56.5922 70.793 58.0852 70.9214 58.3285L76.7281 64.6878ZM105.15 64.6878H116.764L114.325 63.2998C113.439 61.8787 117.277 62.6473 117.888 62.8464C119.661 63.4104 120.358 64.9311 122.259 64.6934L122.619 60.2419L117.387 58.3341C118.866 56.6641 121.079 57.7977 122.87 58.0576C122.925 47.9822 106.801 47.1251 106.367 58.0576C107.314 58.3285 112.198 58.2898 111.868 59.9875C111.538 61.6851 106.905 59.5119 105.823 60.3359L105.144 64.6934L105.15 64.6878ZM184.543 64.627C186.652 59.0806 183.84 52.0632 176.665 51.9692C176.121 52.4172 179.103 55.0881 176.848 56.4373C174.788 57.7424 172.062 54.9553 170.375 55.3535C169.611 55.5304 165.112 60.3414 163.908 57.1341C163.431 55.8567 165.228 52.4724 163.535 53.0807C159.807 54.4079 157.032 61.8455 160.552 64.6104L184.549 64.627H184.543ZM187.667 64.6878H203.253C204.622 63.2114 204.463 59.1304 204.133 57.2557C203.284 52.384 195.46 51.5158 191.297 53.324C185.472 55.8567 188.828 60.2363 187.667 64.6934V64.6878ZM61.1417 53.6282H52.5844V64.6878H61.1417V53.6282ZM126.238 64.6878H149.77C151.512 60.4299 149.483 56.841 145.791 54.1867C144.226 54.0153 145.755 55.9949 145.516 57.206C144.758 61.0326 140.29 56.4926 139.055 56.3765C136.103 56.0945 129.667 63.1505 132.045 53.6282C127.112 55.1268 123.237 60.3027 126.244 64.6878H126.238ZM215.783 64.6878V54.4577C213.485 52.7379 209.512 53.9932 206.615 53.6282V64.6878H215.783ZM72.7551 64.6878C72.6451 62.5699 65.3714 57.6152 64.2895 60.6234L64.1978 64.6878H72.7551ZM217.617 67.4527H50.1395V81.2773H216.7L217.978 80.7575C217.697 76.4498 217.483 71.9042 217.623 67.4527H217.617ZM61.1417 85.7011C60.6832 82.5989 54.5831 84.5731 51.9671 84.0422V85.7011H61.1417ZM79.4786 85.7011C79.4664 85.2919 78.0728 84.0422 77.9505 84.0422H64.1978V85.7011H79.4786ZM95.3646 85.6956C94.8083 82.0072 90.328 85.1703 88.9466 85.1261C87.9381 85.0984 86.9662 83.6551 85.5909 84.0422C87.7792 86.7407 92.1739 85.4025 95.3646 85.6901V85.6956ZM116.764 84.0422L108.818 84.3132C110.651 86.6357 114.025 85.4468 116.764 85.6956V84.0422ZM136.323 84.0477C133.481 84.4127 129.532 83.1408 127.167 84.8717C127.167 85.9776 135.889 86.6136 136.323 84.0477ZM148.548 85.7011C148.273 82.8478 140.113 83.5611 138.768 85.7011H148.548ZM158.939 85.6956C157.496 83.4892 153.242 83.2846 151.61 85.4247L158.939 85.6956ZM173.608 84.0422H161.995L163.529 85.6956C166.475 85.0707 172.734 87.3214 173.608 84.0422ZM193.168 84.0422H178.193C178.07 84.0422 176.677 85.2919 176.665 85.7011H192.251L193.162 84.8661V84.0422H193.168ZM204.17 84.0422C201.456 84.3187 197.593 82.9749 196.218 85.6956H204.17V84.0422ZM215.783 84.0422H207.226V85.7011H215.783V84.0422ZM217.617 88.4661H50.1395C49.351 90.8881 51.5636 90.8549 52.2482 91.8116C52.6761 92.4144 52.5049 93.3599 52.9206 93.9682C53.4157 94.6926 54.7421 94.7535 55.5122 96.0419C57.0892 98.7018 54.6198 100.958 57.4865 103.115L206.303 103.386C208.259 102.971 209.952 103.22 211.444 101.948C213.467 100.211 211.676 99.7027 211.676 98.2594C211.676 96.147 212.978 94.9636 214.842 93.9682L217.629 88.4716L217.617 88.4661ZM75.8112 123.304H57.4743C57.6087 125.367 57.6148 128.624 54.4242 128.281C57.1442 120.014 45.1029 116.414 49.0576 108.777C50.0845 106.797 53.7702 105.437 54.1797 103.977L53.5379 102.81C50.4084 100.809 43.2142 106.781 43.4098 110.032C38.6055 110.165 42.3157 105.36 44.0149 103.662C47.1567 100.521 49.6688 101.107 52.2177 99.4704C55.9462 97.0705 50.3717 95.7599 46.1665 98.4197C44.6812 99.3598 42.548 103.081 40.6654 101.743C39.1923 99.5699 47.6518 94.5378 49.5221 93.7249C48.0674 91.8337 44.9257 93.6862 43.4587 94.8641C38.8867 98.5359 38.6666 106.294 39.119 111.437C39.4918 115.673 42.3707 121.435 42.1629 125.167C41.8695 130.404 34.1619 145.539 32.1142 152.065C28.0006 165.176 25.6963 176.528 31.5091 189.656C35.3477 198.327 41.9306 206.517 48.0246 213.999L70.9153 189.944C64.4729 184.16 55.9829 176.434 55.0416 167.819C54.2653 160.73 56.4902 137.67 60.4143 131.77C63.7516 126.743 72.2722 128.004 75.8173 123.309L75.8112 123.304ZM227.391 100.079C226.841 96.1967 222.837 92.2208 218.228 92.8954C216.969 93.8466 223.424 96.3239 224.029 96.7663C225.441 97.7838 225.979 99.2216 227.385 100.084L227.391 100.079ZM209.977 123.304H191.945C196.004 127.943 204.598 126.898 207.856 132.412C211.56 138.688 213.516 160.58 212.721 167.813C212.14 173.083 208.858 177.574 205.374 181.627C204.011 183.214 198.162 188.263 197.734 189.12C197.52 189.546 197.288 189.9 197.514 190.381L219.151 214.535C225.264 206.998 232.048 198.697 236.064 190.032C242.134 176.954 240.269 167.415 236.394 154.149C233.913 145.644 225.325 129.558 226.242 121.977C226.712 118.111 228.955 113.881 229.218 109.745C229.402 106.88 228.662 104.519 228.613 101.732C224.952 103.209 225.484 101.08 223.424 99.5202C221.841 98.3202 216.456 95.2622 214.83 97.2917C214.09 100.001 218.21 100.029 220.38 101.163C223.711 102.904 226.951 106.388 226.779 110.021L224.414 109.955C224.817 106.786 217.232 100.847 214.543 102.539C212.079 104.088 218.534 107.566 219.176 109.441C221.266 115.507 215.514 117.481 213.919 122.436C213.173 124.753 213.711 126.096 213.332 128.27C210.771 128.22 210.851 125.991 210.784 124.222L209.971 123.298L209.977 123.304ZM81.9236 107.82C77.9689 103.092 69.271 107.002 63.5805 106.161V107.82H81.9236ZM94.4538 105.609C91.3854 105.221 87.5408 105.891 84.3685 105.609C84.3563 106.355 86.1777 106.792 86.8256 106.974C90.2302 107.942 92.614 107.649 95.9758 106.709C96.2019 106.156 94.6983 105.642 94.4538 105.609ZM119.209 107.82C117.344 105.15 108.806 104.066 108.207 107.82H119.209ZM139.379 105.609H121.654C125.407 108.788 135.718 108.987 139.379 105.609ZM160.773 105.609H144.269C146.085 108.666 153.401 108.141 156.842 107.859C158.15 107.749 161.09 107.256 160.773 105.609ZM183.999 105.609H166.885C166.634 106.88 166.97 106.493 167.667 106.847C170.833 108.451 181.42 108.738 183.999 105.609ZM204.17 105.609H189.195C189.011 105.609 186.646 107.306 186.444 107.82H204.17V105.609ZM212.721 107.815C212.544 105.133 209.433 105.526 207.22 105.609V107.815H212.721ZM60.5304 106.161L56.0501 106.134L55.0293 107.809H60.5365V106.156L60.5304 106.161ZM56.3496 120.451L210.594 120.545C211.138 120.556 211.45 120.296 211.823 119.997C212.085 119.787 215.447 115.114 215.704 114.661C216.474 113.278 217.153 111.122 215.435 110.099L52.8961 110.585C47.6884 111.465 56.1723 118.327 56.3557 120.451H56.3496ZM147.411 203.409C151.097 205.687 154.08 203.625 157.405 203.602C159.721 203.591 161.879 204.979 163.572 205.145C166.414 205.422 174.8 199.615 177.465 197.857C180.485 195.855 189.048 188.561 191.352 187.748C192.948 187.184 194.28 187.776 195.955 186.936C198.351 185.725 207.018 175.146 208.137 172.519C211.529 164.567 208.938 145.534 206.432 137.023C203.926 128.513 198.015 131.079 191.744 127.086C190.057 126.014 188.639 123.525 187.367 123.304L79.4847 123.586C75.5056 131.118 64.5462 127.672 61.8201 135.807C58.9045 144.505 56.099 165.159 60.0109 173.271C61.4473 176.246 68.9471 185.343 71.826 186.947C73.2013 187.71 74.4176 186.897 76.3491 187.776C82.1864 190.43 91.0004 198.836 97.8645 202.613C105.462 206.793 102.76 203.868 109.282 203.636C111.605 203.553 113.867 204.88 115.23 204.919C115.554 204.93 119.643 203.912 119.832 203.779C121.067 202.922 121.385 196.895 120.462 195.44C120.229 195.075 116.489 192.288 116.177 192.189C115.382 191.946 114.331 192.57 113.439 192.443C109.001 191.818 104.307 189.844 103.451 185.382C103.146 183.784 104.02 181.074 103.867 180.891C103.726 180.72 102.528 180.504 101.813 179.686C100.004 177.607 99.0564 175.461 98.9769 172.79C98.9464 171.706 99.7349 170.562 99.5209 169.6C99.2826 168.532 96.7826 166.459 96.0369 164.988C93.3903 159.745 95.7741 155.288 100.817 152.275C94.9245 141.724 106.66 133.368 117.925 136.537C120.731 129.895 129.52 127.114 136.739 129.824C138.597 130.52 141.769 133.628 142.112 133.656C142.698 133.7 144.263 132.467 145.314 132.268C153.591 130.714 159.923 135.508 159.006 143.134C165.986 144.323 169.715 147.104 168.651 153.945C168.462 155.178 167.013 157.495 167.044 157.871C167.135 158.938 171.597 160.365 171.121 164.982C170.907 167.072 169.201 168.333 168.853 169.605C167.783 173.476 169.617 175.666 165.986 179.741C165.406 180.394 163.871 180.709 163.768 181.185C163.566 182.114 164.489 183.568 164.403 184.89C164.25 187.273 161.677 190.342 159.348 191.426C155.522 193.212 149.954 191.426 147.264 195.424C145.7 197.757 147.545 200.838 147.393 203.403L147.411 203.409ZM163.92 159.723C162.539 157.771 169.88 149.974 162.166 146.651C160.204 145.805 158.101 146.413 156.433 145.202C154.862 143.432 157.661 136.376 151.17 135.033C146.201 134.004 143.786 136.88 141.555 136.598C139.991 136.399 137.784 133.341 135.645 132.489C127.919 129.409 122.271 134.004 118.836 139.833C113.555 137.825 106.024 138.157 103.182 143.372C100.34 148.586 105.169 151.379 104.582 153.923C97.5467 156.201 95.3951 162.112 101.171 166.94C104.9 163.843 108.182 163.412 112.473 165.884C113.084 163.815 113.805 158.297 112.522 156.704C111.849 155.869 109.997 156.311 110.645 154.276C117.95 155.852 122.167 153.911 127.962 150.306C128.512 149.963 135.822 143.792 133.75 148.907C132.968 150.842 125.859 153.309 133.542 153.746C140.076 154.116 142.656 151.324 146.409 147.099C148.242 147.077 145.339 155.581 151.849 155.36C153.872 155.294 157.753 151.821 157.435 155.399C153.303 157.014 152.661 163.163 155.577 165.834C157.649 163.871 160.32 163.838 163.059 164.656C164.843 165.192 165.705 166.801 167.496 166.99C168.376 164.656 168.633 162.306 166.261 160.641C165.62 160.193 164.055 159.911 163.926 159.729L163.92 159.723ZM154.507 168.223C154.348 167.974 153.315 167.769 152.918 167.205C150.73 164.136 150.534 161.714 151.347 158.114C148.267 157.285 145.388 156.428 144.868 153.165C140.681 155.681 137.099 157.169 131.886 156.35C130.296 156.101 127.43 154.288 126.959 154.354C126.568 154.409 123.915 156.079 122.589 156.499C120.535 157.152 118.359 157.628 116.153 157.589C116.006 159.828 116.415 162.134 116 164.363C115.535 166.868 113.341 168.051 113.054 169.992C111.886 177.988 114.527 189.042 122.907 193.212C126.684 195.092 130.18 194.666 133.897 196.087C135.021 199.875 125.608 199.886 124.074 200.976C122.986 201.744 123.83 206.207 120.431 206.262C125.009 216.559 142.937 216.631 147.27 206.301C143.89 205.908 143.151 197.188 143.658 194.921C143.97 193.511 148.915 190.624 150.369 188.827C153.285 185.227 156.689 171.629 154.501 168.217L154.507 168.223ZM109.343 167.067C98.928 165.541 100.646 180.455 109.172 180.25C111.104 180.206 110.413 176.418 109.875 175.417C109.405 174.543 104.551 171.994 104.551 171.69L106.061 170.473L110.034 172.519L109.343 167.067ZM157.105 180.256C162.887 180.184 166.928 176.191 165.369 170.838C164.532 167.974 160.51 165.38 157.802 167.891L157.716 171.955C158.053 172.298 163.493 168.295 162.612 172.226C162.508 172.685 160.864 172.801 160.173 173.349C158.034 175.035 157.099 177.723 157.105 180.25V180.256ZM111.134 183.137C110.804 182.915 106.544 182.318 106.379 182.473C105.505 186.792 109.331 189.33 113.708 189.656C113.439 188.661 111.519 183.391 111.134 183.137ZM161.384 182.473C155.785 181.655 155.296 185.736 154.055 189.662C158.609 189.889 162.142 186.604 161.384 182.473ZM49.1004 220.463C50.9585 221.121 52.1138 223.891 54.1492 222.326L79.1975 194.611L79.2097 193.549L74.8822 190.314C65.3775 199.344 56.808 209.287 48.5258 219.257L49.0943 220.468L49.1004 220.463ZM218.656 220.463L219.225 219.252L193.797 190.469L192.917 190.237C189.696 193.195 186.689 192.46 190.13 196.557C197.563 205.4 206.713 213.517 213.944 222.581L215.374 222.774L218.656 220.457V220.463ZM98.3779 240.492C99.0564 239.873 99.3926 225.567 99.6554 223.117C100.187 218.157 101.52 213.246 102.027 208.281L82.1497 195.805L55.7078 224.87L80.4016 243.848C81.2206 241.487 79.772 238.496 82.2292 236.676C84.4174 236.649 83.8489 246.127 83.7817 248.024C83.6839 250.733 83.3355 254.029 83.1399 256.844C82.4676 266.333 80.8111 275.838 80.096 285.328C88.6288 279.765 90.5114 268.849 92.1373 260.007C93.1152 254.698 93.0908 248.057 94.2766 243.141C95.0406 239.983 98.0173 240.824 98.3779 240.492ZM212.03 225.534L211.81 223.947L186.096 195.75L165.632 208.297C167.814 218.821 168.566 229.499 169.305 240.177C172.478 241.144 172.478 240.995 173.211 243.931C176.652 257.723 174.531 274.948 187.367 285.322L184.097 238.131L184.58 237.462L186.438 237.213L187.355 243.843L212.03 225.528V225.534ZM112.393 206.887C103.983 204.482 104.264 212.201 103.402 217.665C101.978 226.695 102.149 235.919 100.872 244.954C102.73 245.225 102.357 243.13 103.94 242.472C111.22 239.452 111.446 253.692 102.1 248.278C100.872 249.417 106.018 251.817 108.799 249.644C112.125 247.05 109.246 239.95 110.01 236.367L112.393 206.887ZM158.328 248.278C159.782 250.285 160.522 251.242 163.865 250.247C167.606 249.135 166.463 239.546 166.298 236.367C166.078 232.087 165.577 226.85 165.045 222.57C164.733 220.037 163.199 208.458 161.634 207.407C160.442 206.611 156.744 205.676 155.54 206.777C154.672 207.916 156.989 222.52 157.13 225.313C157.46 231.888 156.378 239.425 157.105 245.806C157.307 247.576 157.631 247.316 158.328 248.283C155.577 240.536 167.808 240.343 165.534 247.338C164.648 250.064 160.442 249.788 158.328 248.283V248.278ZM152.209 207.357C149.679 207.092 148.945 209.945 147.332 211.521C140.003 218.677 127.754 218.66 120.407 211.521C118.793 209.951 118.078 207.086 115.535 207.357L113.353 240.016L154.055 240.298C154.691 239.884 154.611 239.242 154.679 238.634C155.064 235.178 154.336 227.48 154.061 223.654C153.67 218.229 152.668 212.776 152.197 207.363L152.209 207.357Z" fill="#2A5BAE"/>
<path d="M247.531 76.3226C247.83 76.494 248.374 80.8404 249.731 82.3611C251.058 83.8431 252.39 83.8542 254.022 84.5454C254.957 84.938 255.141 84.374 254.909 85.9776C249.297 87.3601 249.627 89.7158 248.148 93.6917C246.492 98.1322 245.618 91.9332 245.159 90.9268C243.533 87.3324 241.761 87.6642 238.417 85.9776C241.37 83.6606 243.741 84.3408 245.098 80.4201C245.654 78.8165 245.294 75.0452 247.537 76.3226H247.531ZM247.555 82.3888L246.296 82.7371L243.943 85.4965L246.364 89.0135L247.617 88.6762L250.013 85.4246L247.568 82.3888H247.555Z" fill="#2A5BAE"/>
<path d="M9.18073 61.923C9.40078 67.6961 10.9961 67.9726 15.7454 70.1016C18.2453 71.2241 12.9948 72.3356 11.6257 73.8121C9.62082 75.9632 10.0854 78.6341 8.27 80.7188C6.25293 77.4949 7.05364 74.8517 3.29457 72.5126C2.14545 71.7992 -0.238357 72.026 0.0244734 70.2288C5.50723 69.6703 6.61967 66.2805 7.38982 61.9451L9.18684 61.9285L9.18073 61.923ZM11.6257 71.3126L8.26388 67.4528L5.57446 70.5661L7.97049 74.6305C9.49246 74.0278 9.67583 71.285 11.6257 71.3071V71.3126Z" fill="#2A5BAE"/>
<path d="M44.0272 9.38407C41.1177 9.90387 39.1923 11.2697 38.2021 13.7969C37.8232 14.7756 38.2632 18.0438 36.399 17.6843C35.6594 17.5406 35.1765 12.4531 32.0226 10.5785C30.849 9.88175 28.5019 10.0808 28.7525 8.2947C34.8587 7.73065 34.5469 4.11968 36.3929 0.00549316C38.2694 1.64232 37.8415 4.22475 39.4735 6.05512C41.1055 7.88549 43.8621 7.24956 44.0272 9.3896V9.38407ZM37.2914 6.07724L36.0322 6.42562L34.3391 8.64308L36.399 11.596L39.0578 9.00804L37.2914 6.07724Z" fill="#2A5BAE"/>
<path d="M174.825 0.536349C174.837 2.10129 175.32 4.25792 176.371 5.50213C177.569 6.92329 178.676 6.64127 179.892 7.29379C183.119 9.01356 177.783 9.47254 176.634 10.7499C174.825 12.7573 176.096 17.2751 172.997 16.5784C172.789 14.2171 172.508 11.4301 170.167 10.0089C169.324 9.49466 166.537 9.31771 166.885 8.01267C167.074 7.29932 170.124 6.87905 171.182 5.8118C173.205 3.77682 171.75 -0.11064 174.825 0.536349ZM173.615 11.0485L175.968 8.45505L173.908 6.09382L171.811 8.08456L173.615 11.0485Z" fill="#2A5BAE"/>
<path d="M225.557 248.831C225.85 250.413 226.309 253.288 227.366 254.516C228.601 255.953 232.445 255.345 231.681 257.397C226.205 258.469 226.822 261.787 224.646 265.404L222.177 259.907C221.969 258.348 216.957 257.999 217.623 256.849C218.136 255.964 220.722 255.815 221.92 254.648C223.821 252.79 222.794 249.163 225.563 248.825L225.557 248.831ZM224.347 254.361L222.543 257.325L224.64 259.316L226.7 256.954L224.347 254.361Z" fill="#2A5BAE"/>
<path d="M37.9084 236.665C38.1835 239.906 39.1248 244.086 43.599 243.86L44.033 245.231C38.593 246.249 39.3081 249.727 36.9977 253.238C35.0601 250.208 35.598 245.939 30.3964 246.05L29.9624 244.678C32.8046 243.688 34.0638 243.334 35.3474 240.691C36.0442 239.264 35.6591 236.566 37.9145 236.66L37.9084 236.665ZM36.6982 247.725C39.5893 245.762 39.4548 244.418 36.9916 242.201L34.9012 244.767L36.6982 247.731V247.725Z" fill="#2A5BAE"/>
<path d="M109.869 257.247L156.212 257.098C157.239 257.12 158.835 257.264 159.562 257.938C160.925 259.199 160.937 272.089 160.76 274.539C160.063 284.371 158.248 291.184 146.341 293.014C138.713 294.186 118.127 294.352 112.271 289.669C106.415 284.985 106.256 268.65 107.063 261.898C107.283 260.067 107.43 257.557 109.869 257.247ZM110.957 259.89L110.04 260.72V277.862C110.04 279.084 111.586 283.929 112.357 285.167C113.28 286.644 115.413 288.469 117.13 289.143C121.446 290.846 134.116 291.134 139.098 290.88C144.807 290.587 152.814 290.028 155.583 284.78C156.359 283.315 157.716 277.696 157.716 276.203V260.72L156.799 259.89H110.957Z" fill="#2A5BAE"/>
<path d="M78.8611 147.63C79.1117 151.213 80.3097 154.796 84.9795 154.829V156.472C80.3219 156.511 79.1178 160.061 78.8611 163.672H77.0335L76.0616 159.292C75.8905 157.545 70.3283 156.687 70.9212 155.659C71.4468 154.758 74.0446 154.636 75.2181 153.458C76.5567 152.12 76.8929 149.405 77.0335 147.63H78.8611ZM77.9503 153.176L75.8783 156.129L77.9503 158.12L80.1141 155.653L77.9503 153.176Z" fill="#2A5BAE"/>
<path d="M188.272 143.764C188.932 148.442 190.386 149.897 194.989 151.782C191.841 153.331 190.668 153.292 189.188 156.477C188.657 157.628 189.366 159.972 187.061 159.795C186.297 156.411 185.576 152.711 180.943 152.601V150.959C183.504 150.914 185.148 149.648 186.034 147.541C186.609 146.17 185.9 143.643 188.272 143.764ZM188.265 154.271L190.075 151.782L187.972 149.294L185.228 151.782L188.259 154.271H188.265Z" fill="#2A5BAE"/>
<path d="M114.191 97.4742C135.565 96.971 159.978 97.524 181.273 98.9451C182.367 99.017 183.254 98.7903 183.987 99.7967C183.254 100.803 182.374 100.576 181.273 100.648C171.475 101.306 159.44 99.6695 149.489 99.4926C134.056 99.2216 117.791 99.1553 102.375 99.4926C101.012 99.5202 92.9136 101.08 92.938 99.2382C93.3598 98.7073 93.7265 98.5083 94.4478 98.4032C100.193 97.5627 108.207 97.6069 114.191 97.4631V97.4742Z" fill="#2A5BAE"/>
<path d="M60.5244 93.4429L60.8912 91.7784L144.257 92.066C140.853 94.2282 136.262 93.2383 132.356 93.454C131.158 93.5203 130.009 93.9793 128.707 94.0235C106 94.8254 83.1706 93.3931 60.5244 93.4429Z" fill="#2A5BAE"/>
<path d="M169.941 94.0014C170.864 93.8521 171.505 93.5535 172.508 93.5811C182.654 93.8521 194.598 93.8576 204.5 94.5267C205.594 94.5986 206.48 94.3719 207.214 95.3783C206.48 96.3848 205.6 96.158 204.5 96.2299C198.216 96.6557 189.439 96.4788 183.052 96.2299C180.423 96.1249 174.329 95.9479 172.208 95.5332C171.359 95.3673 170.173 94.8364 169.935 94.0014H169.941Z" fill="#2A5BAE"/>
<path d="M73.9774 71.3181C73.8124 70.5605 74.1913 69.9854 74.9982 69.7587C77.492 69.0453 91.9477 69.5486 95.7006 69.6426C108.757 69.9578 121.69 71.1909 134.819 70.7928C139.44 70.6545 145.626 69.3384 150.1 69.637C151.194 69.7089 152.081 69.4877 152.808 70.4886C152.826 71.2462 147.338 71.7107 146.329 71.8047C122.283 74.0166 98.0416 70.9587 73.9774 71.3181Z" fill="#2A5BAE"/>
<path d="M195.613 76.3005V77.9539C188.852 78.7059 181.945 78.6175 175.106 78.5345C161.946 78.3631 148.645 77.6718 135.369 77.9318C133.682 77.9649 128.408 79.6184 128.365 77.1355C129.502 76.7373 131.134 76.4 132.35 76.306C149.636 74.9788 167.019 76.6544 184.274 76.8756C188.125 76.9253 191.805 76.4719 195.613 76.3005Z" fill="#2A5BAE"/>
<path d="M99.0319 77.9539C93.8303 78.435 88.7021 78.5677 83.4577 78.5013C76.997 78.4239 66.8872 78.5953 60.8054 77.9815C59.8947 77.8875 58.4338 77.7161 58.6967 76.5825C59.1307 74.741 65.4325 76.2783 66.9178 76.3226C76.2574 76.5991 88.0481 75.3217 96.9232 76.2728C98.1517 76.4055 99.203 76.5216 99.0258 77.9594L99.0319 77.9539Z" fill="#2A5BAE"/>
<path d="M209.054 72.977L185.497 73.0047L179.109 71.6057C179.825 70.6324 180.741 70.8094 181.823 70.7375C190.338 70.19 199.415 71.9264 208.033 71.4176L209.054 72.977Z" fill="#2A5BAE"/>
<path d="M213.112 76.3392C215.734 75.9466 215.459 80.3483 212.434 79.6184C210.753 79.2147 211.725 76.5438 213.112 76.3392Z" fill="#2A5BAE"/>
<path d="M214.5 70.2729C215.41 70.7651 214.634 73.8507 213.051 73.53C210.588 73.0268 211.743 68.7965 214.5 70.2729Z" fill="#2A5BAE"/>
<path d="M124.71 178.602C129.056 179.553 132.393 181.002 137.1 180.134C138.646 179.847 143.071 176.412 143.065 179.437C140.895 183.574 128.133 183.275 125.327 180.521C124.624 179.83 124.575 179.542 124.71 178.597V178.602Z" fill="#2A5BAE"/>
<path d="M133.878 163.672C136.25 163.583 138.041 171.994 137.961 173.266C137.711 177.308 131.293 178.171 129.612 174.449C131.232 172.707 134.135 175.528 135.608 173.365L133.878 163.672Z" fill="#2A5BAE"/>
<path d="M149.153 162.007C147.362 162.239 145.706 161.465 143.958 161.41C142.802 161.371 139.166 162.638 138.774 161.15C137.827 157.556 149.862 157.766 149.153 162.007Z" fill="#2A5BAE"/>
<path d="M128.371 162.013C126.58 161.891 125.058 161.272 123.175 161.427C121.843 161.537 120.235 162.593 119.6 162.477C117.191 162.04 118.377 160.182 120.26 159.375C123.096 158.158 129.196 158.147 128.371 162.013Z" fill="#2A5BAE"/>
<path d="M143.426 164.258C145.406 163.959 145.956 167.581 145.4 168.842C141.317 172.663 140.596 164.678 143.426 164.258Z" fill="#2A5BAE"/>
<path d="M125.29 164.805C127.204 170.02 121.348 172.448 122.357 165.685L123.255 164.844L125.29 164.805Z" fill="#2A5BAE"/>
<path d="M139.373 113.909C139.648 115.369 139.11 114.882 138.053 115.17C125.058 118.675 104.331 117.818 90.7802 117.227C82.3086 116.862 72.8467 116.701 64.4789 115.584C63.4337 115.446 62.3763 115.479 62.3579 114.185C62.3335 113.09 84.6679 115.474 86.5138 115.557C97.3877 116.049 109.906 116.187 120.731 115.557C126.929 115.197 133.114 113.771 139.373 113.903V113.909Z" fill="#2A5BAE"/>
<path d="M156.488 115.562L156.855 113.898L206.603 115.291C205.454 116.452 203.638 116.569 202.055 116.696C187.19 117.901 171.408 114.998 156.494 115.568L156.488 115.562Z" fill="#2A5BAE"/>
<path d="M117.369 54.7287C115.297 54.795 112.839 54.7784 111.269 53.3517C112.185 51.1619 118.768 53.678 117.369 54.7287Z" fill="#2A5BAE"/>
<path d="M76.4224 60.8115C75.4261 60.0373 78.9101 58.1517 79.6497 57.9249C84.2339 56.5148 79.5213 62.0778 76.4224 60.8115Z" fill="#2A5BAE"/>
<path d="M212.116 54.7341H210.894V62.4759H212.116V54.7341Z" fill="#2A5BAE"/>
<path d="M56.2518 55.2872V63.029C53.4523 63.2612 53.4462 55.0605 56.2518 55.2872Z" fill="#2A5BAE"/>
</g>
<defs>
<clipPath id="clip0_757_397">
<rect width="255" height="308" fill="white"/>
</clipPath>
</defs>
</svg>
