<svg width="443" height="304" viewBox="0 0 443 304" fill="none" xmlns="http://www.w3.org/2000/svg">
<g clip-path="url(#clip0_249_126)">
<path d="M0.00463366 82.7244C69.197 11.2765 167.698 -16.4552 257.07 10.3524L258.561 10.7923C303.171 23.9497 339.012 44.141 364.997 70.5118C432.15 75.0369 491.551 109.426 500.892 115.071L477.956 153.812C475.443 152.294 441.817 132.284 399.592 121.778C400.004 122.744 400.407 123.72 400.796 124.691C422.319 178.222 412.246 216.663 399.992 239.481C379.061 278.494 332.188 314.197 278.764 300.383C224.267 286.275 195.836 229.835 199.843 183.411C202.966 147.081 225.248 116.332 266.048 92.0066C277.137 85.395 288.609 80.4992 300.234 77.0309C284.774 67.9285 266.791 60.3215 246.48 54.3324L244.788 53.8269C171.681 31.9007 90.5093 55.1964 32.9463 114.636L-0.00022471 82.7197L0.00463366 82.7244ZM344.472 115.6C325.62 116.489 306.893 120.992 289.899 131.129C279.502 137.32 247.877 156.176 245.121 188.192C242.81 215.025 260.027 248.847 289.337 256.432C321.282 264.688 349.014 237.617 359.859 217.405C371.085 196.489 370.684 170.753 358.687 140.904C355.094 131.962 350.337 123.518 344.472 115.6Z" fill="#78D604"/>
</g>
<defs>
<clipPath id="clip0_249_126">
<rect width="1920" height="5031" fill="white" transform="translate(-1477 -983)"/>
</clipPath>
</defs>
</svg>
