<svg width="754" height="106" viewBox="0 0 754 106" fill="none" xmlns="http://www.w3.org/2000/svg">
<g clip-path="url(#clip0_249_126)">
<path d="M8.38855 39.524C4.88156 38.7571 1.41692 40.9784 0.650044 44.4854C-0.116829 47.9924 2.10447 51.4571 5.61145 52.2239L7 45.874L8.38855 39.524ZM271.177 62.5343L269.339 56.2996L271.177 62.5343ZM754 33.3788L681.385 14.395L701.252 86.7734L754 33.3788ZM7 45.874L5.61145 52.2239C36.5079 58.9801 86.7998 67.9112 137.465 72.7876C187.822 77.6344 239.663 78.602 273.015 68.7689L271.177 62.5343L269.339 56.2996C238.648 65.3481 189.087 64.696 138.71 59.8474C88.6416 55.0284 38.8666 46.1887 8.38855 39.524L7 45.874ZM271.177 62.5343L273.015 68.7689C293.382 62.7643 308.415 56.1211 318.793 49.3416C328.933 42.7168 335.678 35.2633 337.333 27.2274C339.178 18.2672 334.34 11.1035 327.153 6.78621C320.182 2.59862 310.371 0.5 299.196 0.5V7V13.5C309.034 13.5 316.235 15.3929 320.459 17.9302C324.467 20.3377 325.007 22.6322 324.6 24.6053C324.004 27.5027 320.868 32.4576 311.683 38.4583C302.734 44.3041 288.999 50.5032 269.339 56.2996L271.177 62.5343ZM299.196 7V0.5C286.9 0.5 277.569 5.17676 271.714 13.1864C266.056 20.9279 264.249 30.948 264.943 40.7787C266.315 60.1894 277.738 82.2994 296.195 91.9025L299.196 86.1363L302.196 80.3701C288.632 73.313 279.041 55.8548 277.911 39.8624C277.355 31.9915 278.925 25.3514 282.209 20.858C285.298 16.6327 290.477 13.5 299.196 13.5V7ZM299.196 86.1363L296.195 91.9025C304.725 96.3404 319.121 100.021 339.118 102.238C359.299 104.476 385.74 105.281 418.747 103.606C484.771 100.257 577.365 86.9753 699.222 55.1548L697.579 48.8657L695.937 42.5765C574.745 74.2235 483.045 87.3282 418.089 90.6232C385.606 92.2709 359.884 91.4617 340.551 89.3177C321.035 87.1534 308.564 83.6836 302.196 80.3701L299.196 86.1363Z" fill="#78D604"/>
</g>
<defs>
<clipPath id="clip0_249_126">
<rect width="1920" height="5031" fill="white" transform="translate(-491 -1384)"/>
</clipPath>
</defs>
</svg>
