<svg width="266" height="306" viewBox="0 0 266 306" fill="none" xmlns="http://www.w3.org/2000/svg">
<path d="M217.019 99.4752C211.801 96.4948 213.345 94.1631 212.479 89.6667C211.707 85.6392 207.657 83.6929 203.921 83.9755C202.834 81.6117 203.695 79.3828 202.238 77.0255C200.342 73.9551 196.587 74.7644 195.94 73.833C195.607 73.3448 195.312 69.3366 194.866 67.8657C191.049 55.3079 175.935 59.1363 175.54 71.5206C175.464 73.9294 176.733 77.6357 176.607 78.6313C176.438 80.0188 170.856 81.1364 171.954 88.0865C172.721 92.9234 177.329 95.1651 178.711 99.4816C174.648 98.8714 171.785 102.346 168.068 102.674C166.467 97.5932 165.249 87.1616 158.304 87.2194C156.552 87.2322 154.643 88.594 154.003 88.4719C152.961 88.2664 150.286 84.1297 147.774 83.2818C140.434 80.8088 135.31 86.41 138.211 93.707C139.442 96.7902 143.53 98.6659 140.076 102.045C139.134 102.963 137.665 102.892 136.642 103.67C135.7 104.389 135.147 106.284 134.375 106.477C133.992 106.573 130.538 105.224 128.787 105.218C122.357 105.186 117.98 111.294 120.31 117.467L107.714 115.264C106.019 114.069 107.878 103.984 107.834 101.492C132.937 96.4626 134.482 65.5404 129.101 44.902C149.426 41.5747 148.396 12.7721 126.595 14.6927C125.553 -1.41718 104.562 -5.34186 96.7199 8.26291C85.6814 -1.46213 71.221 3.99777 68.2259 18.2834C55.4482 14.4101 45.5274 28.1433 52.497 39.7376C39.3614 43.2897 38.8403 61.8534 51.2412 66.7351C44.7299 79.9288 54.8705 88.9986 67.5666 87.9259L64.4208 111.044C38.2249 110.318 7.32611 123.499 1.31714 152.154C-2.83325 171.931 3.48343 188.805 11.0935 206.412L7.91006 252.68C6.60403 266.342 4.07361 280.076 3.52734 293.802C3.43317 296.089 2.97482 303.9 4.40643 305.088C5.51779 306.013 6.65433 306 7.18176 304.607L9.44217 274.166C13.8626 273.421 17.8308 273.068 22.201 271.802C34.3445 268.302 46.1365 259.591 50.6322 247.233C60.3206 251.305 70.0656 252.288 80.338 249.841C82.5796 253.72 83.5215 257.305 87.4395 259.964C95.4703 265.417 114.301 264.338 123.581 262.463C135.442 260.067 140.239 252.416 141.043 240.501C141.294 236.808 140.566 209.733 139.046 208.769L135.995 208.365L148.54 193.912C149.256 197.426 149.884 201.029 150.349 204.594C154.147 233.679 154.511 265.854 153.576 295.087C153.469 298.318 152.446 309.893 157.061 303.81C158.568 281.405 158.48 258.692 156.709 236.307L166.322 242.203C194.628 256.335 219.336 228.297 232.942 206.059C235.705 201.55 239.127 192.865 241.808 189.435C244.489 186.005 247.886 185.176 250.906 180.115C258.008 168.218 258.899 156.38 255.754 143.007C254.448 137.444 250.668 133.166 246.492 129.691C249.795 129.447 249.048 124.154 250.241 122.914C251.208 121.912 256.702 120.563 258.636 119.298C268.952 112.547 267.715 95.9873 253.361 99.1284C250.134 99.8349 248.627 102.417 246.285 103.464C245.513 103.805 244.816 104.036 244.608 103.008C244.414 101.544 245.751 100.484 245.845 99.1412C245.952 97.6253 244.753 95.846 244.878 94.6641C244.96 93.8933 247.302 91.1184 247.874 89.6603C251.597 80.1793 242.687 70.4607 233.3 74.7515C230.336 76.1069 228.955 79.7361 227.655 80.539C226.355 81.342 223.982 80.4298 221.772 81.5861C220.259 82.3761 216.981 86.6284 216.981 88.2471V99.4881L217.019 99.4752ZM78.8813 43.5916C77.6757 46.1546 80.7336 47.4585 81.261 49.8287C81.9078 52.7578 81.7947 56.6183 78.6929 57.8901C75.8862 59.0463 75.9176 55.7961 74.4986 54.1774C69.1803 48.1137 59.3537 50.2334 56.7103 57.8451C53.3824 67.4224 59.7932 75.7151 69.1928 76.9676C68.207 80.8088 69.8082 85.0161 64.8415 84.6372C54.8391 83.8792 49.4079 75.7407 54.9208 66.4846C49.6213 61.5258 43.4491 57.4533 46.8335 49.0194C48.8804 43.9256 52.8487 44.0926 56.1954 40.5726C53.9035 34.8301 51.6808 28.4131 57.2 23.6662C61.6329 19.8571 65.6076 21.5465 70.7375 21.463C72.483 12.2583 78.8311 4.7493 88.8021 7.41501C91.6402 8.17297 95.8973 12.7786 96.7638 12.785C98.434 12.7914 100.079 8.64189 101.448 7.28013C107.595 1.18432 119.268 3.05351 122.658 11.3204C123.531 13.4466 123.179 15.8104 124.693 17.5897C130.049 18.0457 135.549 17.9044 138.645 23.2294C143.643 31.8239 136.441 40.7589 127.901 41.6004C128.102 40.0844 126.451 38.8126 126.237 37.8619C125.917 36.4681 129.797 28.9591 123.456 28.8242C126.363 36.5516 121.484 39.7247 114.514 36.3589C112.022 35.1577 107.451 28.7086 106.528 33.0315C105.605 37.3545 104.663 40.6047 98.9363 39.4806C94.8173 38.6713 92.6448 34.7916 88.9214 34.6117C90.0139 42.9621 86.9121 46.7969 78.875 43.6045L78.8813 43.5916ZM92.0734 39.7376C98.1075 44.4074 106.333 44.6001 109.334 36.5259C113.321 40.5341 118.784 42.2363 124.115 40.0009C130.287 55.8475 131.003 88.6775 112.323 96.1029C104.556 99.1926 98.7228 97.3427 90.8113 96.8995C91.4141 103.162 98.7731 107.434 104.041 109.496C103.928 116.6 105.623 121.572 97.7182 124.192C87.7598 127.494 74.756 120.987 67.8742 113.575L72.3951 75.4581L71.8489 73.9036C63.2216 74.5524 55.2159 63.395 61.5891 56.3999C68.7596 48.5312 73.4061 60.5944 76.2002 61.4487C82.724 63.44 87.5714 53.5479 83.9108 48.0944C88.6074 47.6255 92.086 44.8121 92.086 39.7376H92.0734ZM191.275 102.045V89.5189C191.275 88.6454 195.921 82.344 195.042 81.4961C191.928 80.9116 192.436 85.1382 190.025 85.9861L187.501 75.0663C185.718 74.668 186.208 75.9656 186.233 77.3273C186.289 79.9802 189.134 90.3411 188.129 91.7671C187.438 90.9385 181.178 86.2045 182.472 90.1613C182.685 90.8229 191.086 96.2378 188.763 100.118C188.343 100.561 183.326 99.2183 182.503 98.4989C182.145 98.1841 177.361 91.4396 176.94 90.7009C172.62 83.0699 178.949 83.4553 179.841 80.3977C181.028 76.3381 177.367 71.3536 180.695 66.4975C184.023 61.6414 189.611 63.6455 191.419 68.8228C192.204 71.0645 191.809 74.0643 193.133 76.0619C195.042 78.9332 199.601 76.1968 200.084 81.8237C200.379 85.2345 199.055 86.1145 198.144 88.8509C197.642 90.3604 197.679 92.3131 197.095 93.5593C195.909 96.0773 190.98 95.1908 192.518 101.749L191.275 102.057V102.045ZM232.302 79.7811C238.411 74.4175 246.304 78.946 245.243 86.8918C244.878 89.6346 242.097 91.6901 241.62 93.54C240.86 96.4948 243.981 99.1091 240.219 102.334C235.786 106.13 227.592 103.721 225.721 110.337L222.324 109.117C222.086 108.808 225.326 102.815 225.822 102.379C227.574 100.818 237.023 99.4367 237.093 97.863C234.838 95.3129 231.492 99.1091 228.949 97.863C231.19 94.2466 235.008 91.3111 237.45 87.9324C238.085 87.0524 238.625 86.6284 238.361 85.3373C237.469 84.3481 231.297 90.9 230.512 91.7543C230.167 91.3946 229.997 85.6713 228.327 87.2644C227.222 88.3178 227.994 92.7692 228.051 94.3493C226.148 96.0965 220.139 108.641 219.116 108.995C217.979 109.393 216.366 108.982 215.135 109.091C214.381 108.429 219.524 102.533 219.876 101.422C221.351 96.771 218.884 90.6366 221.483 86.3651C223.605 82.8772 226.362 85.2731 228.296 84.3866C229.696 83.7443 231.259 80.6868 232.302 79.7746V79.7811ZM149.212 103.31C150.838 103.715 153.601 104.081 155.008 104.781C157.908 106.226 166.454 119.221 157.638 118.694C155.874 118.591 151.039 108.776 148.911 106.528C147.272 104.8 145.369 103.862 143.592 102.372C148.484 97.9336 137.791 91.3625 141.665 86.9368C145.068 83.0506 151.416 91.5423 153.588 92.1526C156.213 92.8912 157.682 87.9131 161.142 92.7243C161.858 93.7199 165.983 104.884 165.939 105.571C165.908 106.034 163.095 110.395 162.706 110.382C158.869 107.029 161.72 101.55 158.938 97.5482L157.381 103.323C157.111 102.045 156.288 100.792 155.472 99.8092C154.468 98.5952 147.925 91.3046 146.7 92.4095L152.986 101.068L149.206 101.402V103.31H149.212ZM195.833 98.3511C196.662 97.4775 199.023 97.4776 200.003 95.8846C201.51 93.4244 199.978 87.5598 204.762 87.2194C211.255 86.7569 208.63 93.8869 209.597 97.1114C210.118 98.8457 213.666 99.2375 213.86 102.411C213.942 103.76 211.851 109.297 210.997 110.344C209.829 111.782 205.855 112.823 204.467 114.891C204.373 113.356 204.367 112.027 204.938 110.562C205.17 109.965 212.605 101.736 207.914 103.316C207.569 103.432 206.37 106.49 205.095 106.541C204.536 104.98 206.997 94.9853 204.775 94.9917L201.014 115.527C199.708 113.973 199.827 111.821 198.923 109.958C197.679 107.382 192.976 101.357 195.833 98.3511ZM253.43 108.468C246.831 109.554 241.293 114.602 236.797 119.369L234.097 115.322C236 112.997 238.235 107.273 241.343 106.644C243.428 106.22 245.092 107.627 247.308 107.042C248.759 106.657 251.283 104.017 253.01 103.214C262.485 98.8072 264.682 108.622 258.466 114.577C255.377 117.531 249.814 118.444 247.811 120.377C245.958 122.163 247.064 125.098 245.249 126.749C244.627 127.321 239.24 129.241 238.995 129.016C236.195 119.638 239.648 119.561 247.779 118.733C247.685 115.193 244.822 118.444 243.397 116.491C243.472 115.489 250.737 111.545 252.005 110.536C252.771 109.926 253.707 109.791 253.43 108.468ZM164.903 116.812C168.671 95.1459 199.978 99.3082 196.869 122.221C196.141 127.597 192.455 131.38 187.815 133.506C187.212 133.461 185.58 128.496 185.008 127.404C184.387 126.209 182.754 124.841 182.484 124.199C181.655 122.246 188.123 124.07 187.501 121.321C185.335 121.308 183.307 120.865 181.53 122.381C177.147 119.947 179.546 120.589 180.324 118.142C180.732 116.863 180.789 116.388 179.653 115.547L178.076 120.03C174.045 117.942 169.468 116.677 164.897 116.812H164.903ZM137.828 110.96C138.833 107.948 137.897 104.582 142.274 106.246C148.044 108.442 150.462 116.574 154.223 121L149.601 124.482C146.33 122.079 145.043 117.949 143.467 114.339L141.671 114.255L142.921 119.388C138.607 118.251 135.091 114.467 130.369 114.898C130.017 116.619 130.815 116.003 131.606 116.491C135.31 118.765 139.304 120.505 142.921 122.927C142.355 122.606 132.328 126.171 136.987 127.077C138.783 127.43 146.123 123.287 147.655 127.122C148.138 128.329 145.212 135.286 145.426 137.373C140.999 132.254 133.157 136.403 130.344 129.967C130.111 127.603 133.132 125.933 131.945 123.261C130.758 120.589 119.72 118.09 123.801 111.712C127.882 105.333 135.7 112.354 137.828 110.96ZM234.594 108.468C235.253 109.085 231.002 115.688 229.231 111.686C228.296 109.573 233.068 108.301 234.594 108.468ZM201.315 130.95C201.516 103.104 244.106 109.316 233.589 136.769L230.204 136.725C234.757 130.622 232.396 118.045 224.189 116.851C216.937 115.797 219.185 122.394 219.53 126.775C219.606 127.693 218.846 128.843 218.902 129.338C219.066 130.764 220.905 129.993 221.282 128.573C222.306 124.681 218.582 119.124 223.599 119.349C230.274 119.651 232.44 131.489 227.693 135.774C225.294 135.594 215.066 137.193 213.873 136.416C213.308 136.05 213.17 134.971 212.63 134.476L214.507 133.192C213.634 129.691 209.992 134.463 207.249 131.631C206.439 128.085 206.702 125.304 209.465 122.908C215.863 117.358 212.611 131.078 218.268 130.95C216.573 126.601 216.008 116.491 209.245 120.114C205.666 122.034 204.14 127.038 204.461 130.95H201.315ZM49.998 115.54L60.8607 114.236C69.0736 126.081 73.99 139.988 77.3241 154.061C77.9708 156.798 80.5201 172.464 81.3741 173.042L104.952 173.344L80.451 187.469C80.338 185.234 81.8889 184.078 81.3929 181.393C80.8968 178.708 77.3053 176.884 74.8628 177.205C73.1863 177.423 71.2335 179.826 70.7249 179.453C64.8729 171.231 65.4192 161.622 63.6234 152.025C61.2186 139.191 56.9237 126.524 50.0106 115.54H49.998ZM12.9584 200.323C4.88989 182.189 -0.754852 159.316 9.93823 141.035C17.5735 127.969 32.9067 119.259 47.386 116.902C54.4938 129.909 59.4039 144.407 61.2939 159.213C60.5718 160.228 55.5235 146.629 52.5159 148.299L62.556 170.769C46.3311 175.31 31.2678 184.283 18.5969 195.499C17.7241 196.276 13.7872 201.093 12.9584 200.329V200.323ZM107.143 118.745C108.612 118.424 108.148 118.951 108.543 119.574C113.171 126.897 117.472 141.581 119.387 150.214C119.883 152.449 121.899 161.069 121.478 162.598C121.057 164.127 112.819 169.188 111.187 169.452C103.288 170.756 92.2367 168.63 83.9924 169.394L78.4166 143.944L68.8412 119.381C78.335 128.368 101.843 134.965 107.143 118.739V118.745ZM112.16 119.388C121.013 119.606 122.156 122.709 125.452 129.871C126.614 132.402 130.677 141.696 130.111 143.803C129.49 146.103 124.762 151.839 123.77 154.71C121.528 142.403 117.434 130.622 112.16 119.388ZM149.206 140.579C146.261 122.188 170.083 113.594 180.858 127.147C182.861 129.672 186.999 136.737 181.229 136.725C183.671 130.931 172.67 120.184 169.769 127.256C169.342 128.291 167.842 134.63 170.24 132.877L171.76 128.014C175.96 124.963 183.935 138.446 176.224 139.647C175.483 139.763 175.012 138.896 174.648 138.915C173.92 138.96 172.582 140.546 171.176 139.943C171.659 136.339 169.606 133.436 165.902 133.564C162.806 133.673 161.889 135.755 158.317 132.871L157.444 134.374C159.723 136.339 157.124 137.309 154.851 137.367C152.578 133.275 160.564 124.546 163.66 126.717C164.489 127.301 165.154 134.663 166.473 132.241C168.419 128.67 166.146 123.993 161.5 124.571C154.292 125.471 152.245 132.941 152.653 139.3L149.2 140.579H149.206ZM252.175 141.87C250.178 140.611 248.621 138.086 246.354 137.232C244.408 136.493 238.348 137.155 241.45 133.147C244.765 128.862 252.884 141.047 252.175 141.876V141.87ZM177.467 145.724C176.814 142.441 180.362 141.15 182.792 139.936C189.831 136.416 198.797 133.866 206.671 134.798C210.168 135.209 211.01 137.02 209.635 140.431C207.18 146.514 186.371 155.365 180.387 153.335C179.219 152.937 179.182 151.338 178.522 150.413C178.164 149.905 174.755 148.524 178.076 148.312C178.146 150.336 181.147 150.779 182.767 150.901C188.418 151.331 192.719 149.7 190.628 143.167L188.763 143.154C190.201 149.565 184.381 150.227 179.941 147.888C178.949 144.111 188.864 142.93 186.873 141.234C183.125 140.842 180.117 143.437 177.461 145.724H177.467ZM72.527 191.895L67.2463 195.171L66.9262 196.141L67.8868 197.734C77.2676 192.512 86.931 187.765 96.2552 182.446C101.09 179.684 122.47 167.737 124.228 164.172C128.127 156.232 129.452 148.043 136.045 140.932C141.489 135.054 143.743 141.407 140.685 146.963C139.442 149.225 134.745 150.156 137.59 152.777C141.972 150.31 145.953 147.111 150.273 144.568C152.848 143.052 165.895 135.202 168.049 137.38C168.306 140.958 165.669 143.559 163.352 145.743C160.772 148.177 152.132 152.892 151.046 154.35C150.744 154.755 150.443 155.134 150.436 155.674L151.397 157.267C156.86 154.89 161.632 151.177 166.165 147.336C168.432 145.415 168.558 142.987 172.124 142.827C179.037 142.525 170.41 153.175 168.451 155.128C164.752 158.821 159.786 160.934 156.113 164.679L157.067 166.279C159.516 166.78 173.367 155.731 174.403 152.237L176.237 152.43C178.177 158.185 171.691 164.615 167.716 168.186C167.245 168.604 158.291 174.25 161.456 174.629C167.572 173.871 171.716 168.045 176.199 164.345C177.009 166.439 175.49 168.7 174.428 170.557C170.962 176.64 163.516 182.594 157.563 186.063C154.267 187.983 147.655 189.885 145.464 191.67C142.387 194.175 137.609 201.434 134.463 204.825C117.754 222.817 88.89 251.434 62.5371 246.269C42.5072 242.345 25.6608 221.912 15.7274 204.845C15.3821 202.558 31.2176 190.617 33.9741 188.741C42.9153 182.665 53.1814 177.218 63.4036 174.051L72.527 191.895ZM254.071 157.279C253.142 153.804 250.09 150.548 247.453 148.306C246.028 147.092 237.099 142.339 241.494 139.602C246.436 136.532 253.688 148.858 254.535 153.258C254.686 154.029 255.295 157.138 254.065 157.273L254.071 157.279ZM225.495 150.862C221.175 151.357 216.102 150.496 211.682 150.862L211.047 149.578C214.344 147.066 214.94 144.092 215.719 140.219C221.646 139.294 226.713 138.729 232.578 140.405C246.536 144.394 232.044 150.111 225.495 150.862ZM180.079 156.11C189.14 156.534 197.786 153.117 205.296 148.184L212.623 141.876C207.889 153.644 190.917 158.866 179.351 157.928L180.086 156.117L180.079 156.11ZM239.679 148.987C247.748 147.445 255.484 160.889 252.803 168.199L249.041 160.819C246.392 156.252 238.436 154.973 239.679 148.987ZM206.344 154.71C206.445 151.261 211.795 153.92 214.199 154.061C222.098 154.524 229.005 153.201 236.477 150.862C238.888 153.066 226.299 155.828 225.414 155.918C219.235 156.554 212.366 156.04 206.338 154.704L206.344 154.71ZM181.856 161.789C185.567 160.992 188.732 161.14 192.524 160.17C195.111 159.508 202.257 155.519 203.004 155.481C203.99 155.429 212.73 160.909 215.763 159.219C210.991 168.418 205.177 158.371 198.659 159.354C192.863 160.221 187.118 169.998 181.863 161.795L181.856 161.789ZM179.345 164.352C181.235 164.364 181.888 166.568 183.564 167.409C189.919 170.614 194.27 162.72 199.13 162.38C203.99 162.039 206.476 167.159 212.265 166.24C216.284 165.604 217.496 160.08 219.97 159.341C223.693 158.23 230.468 159.804 234.587 156.637L235.083 163.311C234.393 167.101 215.838 170.268 212.222 170.685C201.051 171.989 189.266 171.623 178.083 170.762L179.339 164.345L179.345 164.352ZM237.903 178.644C238.763 177.924 240.489 178.393 241.808 176.537C246.498 169.94 235.378 161.769 238.016 157.89C240.232 154.633 246.737 162.354 247.892 164.564C253.569 175.413 246.75 182.421 237.946 188.003C236.245 189.082 232.245 189.159 233.664 191.972L237.111 192.287C226.085 211.467 204.762 244.336 179.74 241.991C173.932 241.445 157.142 234.611 156.157 228.226C155.265 222.477 155.956 215.096 154.982 209.136C158.273 203.117 161.889 196.976 167.459 192.929L179.979 194.542C180.582 195.068 175.37 200.592 174.811 201.774C174.391 202.674 173.606 204.491 175.282 204.183C177.549 203.766 182.516 196.321 185.454 195.319C198.885 195.621 224.17 195.023 234.292 184.9C235.849 183.346 237.306 179.151 237.909 178.644H237.903ZM225.809 171.424C229.897 171.09 233.181 168.694 236.735 166.966C245.13 179.035 233.4 174.732 226.732 172.715C225.828 172.439 225.633 173.107 225.809 171.424ZM206.972 174.635L221.414 172.708C217.628 178.965 212.341 179.28 206.972 174.635ZM174.322 177.834C174.705 172.31 178.874 174.79 182.478 175.278L176.858 177.552L174.322 177.841V177.834ZM163.019 186.198C165.33 186.011 170.297 180.147 171.578 179.89C172.501 179.704 174.039 180.988 175.728 180.905C179.295 180.725 181.944 177.32 186.289 178.772C187.884 179.305 189.699 181.798 191.451 182.478C198.138 185.08 200.204 178.785 204.781 178.445C208.975 178.13 212.071 181.958 216.567 180.924C219.405 180.269 220.723 176.055 224.453 175.625C227.737 175.246 230.757 177.899 233.972 177.847C234.217 180.924 231.052 182.915 228.754 184.393C215.355 192.987 178.861 194.137 164.558 187.514C163.936 187.225 163.089 187.084 163.019 186.204V186.198ZM186.88 175.271H202.577L196.901 179.414C195.369 180.07 193.579 179.973 192.079 179.26L186.88 175.265V175.271ZM76.5518 179.858C78.9064 180.417 79.8232 183.937 77.3493 185.587C72.4454 188.85 71.5098 178.663 76.5518 179.858ZM152.421 192.043L159.051 188.857L163.635 191.651C160.382 195.1 156.514 198.216 154.844 202.886L153.601 202.564L152.421 192.043ZM128.485 217.659C129.86 213.741 132.836 210.221 137.276 211.236V217.023L128.485 217.659ZM14.2079 211.885C15.6583 211.512 15.2439 212.174 15.6395 212.694C23.8712 223.434 28.48 231.007 39.3803 239.756C41.0505 241.092 47.4425 244.773 47.4676 246.231C47.4927 247.56 42.6767 254.241 41.5151 255.57C34.1059 264.056 21.3973 269.336 10.4216 269.695L14.1953 211.885H14.2079ZM137.904 221.199C138.789 226.537 137.904 237.045 137.904 243.038C137.904 243.867 136.56 247.837 136.127 248.929C134.293 253.566 131.964 256.142 127.386 257.973C119.406 261.178 101.002 261.64 92.8269 258.949C88.0298 257.369 85.0096 253.964 83.848 248.877C99.5014 242.55 112.493 232.125 124.737 220.576L137.163 219.683C137.263 220.19 137.835 220.839 137.891 221.186L137.904 221.199Z" fill="#2A5BAE"/>
<path d="M110.935 69.9724L111.274 71.8609C121.836 72.0986 118.294 68.8226 116.078 62.3864C115.155 59.695 115.023 56.3933 113.102 54.5241C110.351 54.4149 114.508 67.3067 115.915 68.328L110.942 69.9724H110.935Z" fill="#2A5BAE"/>
<path d="M99.5265 71.938L98.0384 71.8545C95.7591 72.696 99.3193 77.096 100.205 77.9696C103.52 81.2519 110.709 83.9434 114.653 80.5197C111.538 78.7661 108.135 79.6461 104.801 77.764C102.892 76.6849 100.424 73.9485 99.5203 71.938H99.5265Z" fill="#2A5BAE"/>
<path d="M103.056 53.4517C99.8095 53.4517 99.0184 61.6351 103.056 61.6351C107.093 61.6351 106.302 53.4517 103.056 53.4517Z" fill="#2A5BAE"/>
<path d="M121.158 53.2912C117.868 52.3919 117.353 60.6331 120.649 60.9736C124.253 61.3461 124.26 54.6144 121.158 53.2912Z" fill="#2A5BAE"/>
<path d="M63.8122 59.0079C63.3538 61.8149 66.3552 61.77 67.9249 63.4657C69.2498 64.9046 69.8588 69.0349 71.9748 66.3756C70.8572 62.8234 67.8307 58.6675 63.8122 59.0079Z" fill="#2A5BAE"/>
<path d="M181.228 109.753C181.147 113.838 183.162 115.47 186.245 117.454C186.553 117.082 182.289 108.545 181.228 109.753Z" fill="#2A5BAE"/>
<path d="M184.995 109.11C184.436 109.631 188.323 114.969 190.012 114.243C190.747 113.491 186.929 108.185 184.995 109.11Z" fill="#2A5BAE"/>
<path d="M178.088 110.401C177.027 109.47 172.801 114.647 175.263 116.163C177.222 114.789 177.297 112.463 178.088 110.401Z" fill="#2A5BAE"/>
<path d="M193.787 139.294C194.785 140.155 203.708 136.404 203.814 138.973C202.54 141.684 198.728 146.007 195.476 144.985C194.371 144.638 193.272 141.151 191.903 142.512C191.137 143.27 193.391 146.835 194.421 147.323C198.935 149.456 209.704 139.153 204.31 136.564C201.529 135.228 191.859 137.631 193.787 139.294Z" fill="#2A5BAE"/>
<path d="M232.71 143.79C233.087 140.392 224.547 140.681 224.566 142.191C226.776 144.028 230.048 143.816 232.71 143.79Z" fill="#2A5BAE"/>
</svg>
