<svg width="264" height="306" viewBox="0 0 264 306" fill="none" xmlns="http://www.w3.org/2000/svg">
<path d="M210.921 37.6407C221.886 42.0908 225.02 58.1465 216.818 66.9808C216.188 67.6626 213.678 69.0776 213.589 69.4955C213.307 70.8078 214.329 74.1803 214.014 76.7829C212.772 87.0395 203.357 91.6656 194.573 91.7609L197.892 110.888C213.362 111.255 229.902 115.119 242.39 125.243C271.253 148.638 266.343 205.009 253.876 236.863C256.002 250.976 259.197 265.646 260.377 279.869C260.665 283.315 261.639 300.969 260.432 302.596C259.156 304.319 256.64 303.66 256.153 301.248C255.254 296.805 256.283 288.901 256.057 283.909C255.872 279.884 255.076 275.448 254.713 271.394C245.661 270.089 236.89 268.352 229.121 262.919C209.076 271.863 185.391 272.399 163.831 271.46C158.551 271.233 152.036 269.664 146.989 269.686C145.919 269.686 139.789 271.856 139.37 272.589L140.618 296.028C140.166 298.491 137.814 298.689 135.866 298.784C135.194 299.532 138.259 307.677 132.17 304.429L131.491 299.921L106.743 305.727C82.8512 303.22 58.809 299.767 35.0548 295.756C33.025 295.412 21.7651 293.777 21.1891 292.846C21.1822 291.629 20.6816 290.36 20.661 289.165C20.229 255.463 26.3939 208.249 34.5131 175.602C36.4949 167.633 37.5441 171.101 44.5112 171.16C45.9239 170.295 45.8553 164.664 46.7399 163.088C48.084 160.698 54.9414 163.608 57.5335 162.699C55.4283 156.16 56.2512 147.831 62.6766 144.642C63.5818 144.195 64.9396 144.349 65.5499 143.938C66.4619 143.315 67.1614 141.306 69.5066 140.324C72.6542 139.012 74.2452 140.441 76.1584 139.913C77.6122 139.51 78.8465 137.399 81.2603 137.142C83.9484 136.863 85.2034 138.594 86.7257 138.726C89.1875 138.946 90.5042 135.852 95.4347 138.168C101.222 140.881 100.262 145.449 102.443 149.862C103.211 151.416 105.337 152.318 106.482 153.689C108.43 156.028 108.628 158.205 109.691 160.72C109.979 161.409 109.438 161.768 110.823 161.534C110.83 160.808 110.926 160.038 111.255 159.393C119.305 143.696 126.478 131.497 141.818 122.853C146.722 120.089 151.604 118.652 156.829 116.79L155.917 106.35C131.937 103.447 127.089 75.1406 130.956 53.9603C112.619 53.5424 109.726 26.5776 127.082 21.3284C126.334 1.26241 147.49 -6.07631 160.519 6.81225C170.489 -5.09391 186.851 -0.475131 192.406 13.5571C195.937 13.5058 198.365 13.1172 201.958 14.3856C211.003 17.5674 214.864 28.4985 210.928 37.6333L210.921 37.6407ZM189.773 18.9823C186.927 7.60404 174.563 -0.445801 165.209 8.31519C163.543 9.87677 162.158 13.3225 160.046 13.3225C158.379 13.3225 156.871 10.1993 155.43 8.89435C148.429 2.55271 136.936 4.06299 132.835 13.2419C131.018 17.3035 131.717 20.038 131.231 24.3196C127.342 26.3064 123.386 27.2155 121.26 31.6876C117.118 40.4046 122.583 48.975 131.258 49.7375C131.813 49.6275 133.631 44.6055 133.617 43.7697C133.583 41.8635 128.494 35.8372 131.717 32.9779C134.488 30.5292 134.433 36.409 135.18 38.0952C137.841 44.063 147.531 42.6773 148.34 37.9559C148.628 36.2844 147.476 31.2697 150.253 31.2697C152.502 31.2697 151.974 34.5542 152.4 35.9691C154.628 43.3372 161.78 44.2242 166.588 38.865C167.932 37.3694 168.247 34.7448 170.366 34.7155C173.143 34.6788 171.964 38.865 173.253 41.5776C174.33 43.8357 176.599 45.4046 179.006 45.2213C180.933 45.0747 187.325 40.2873 186.817 44.8621C186.529 47.4427 182.305 47.7506 181.633 50.8885C181.125 53.2785 181.249 56.6803 183.128 58.3445C184.335 59.0263 185.631 56.0864 186.694 55.1333C197.083 45.8225 208.843 54.1876 207.033 68.1539C206.176 74.7668 199.27 81.233 192.941 80.7125L194.086 87.0395C201.663 87.8459 209.872 82.9486 209.844 74.019C209.844 72.2448 208.775 69.4588 208.987 68.4251C209.275 67.0175 212.677 64.8107 213.883 63.2711C219.198 56.4969 217.401 46.475 210.167 42.2301C208.823 41.4383 205.977 41.3284 205.51 39.5981C206.004 36.343 208.199 33.5498 208.199 29.8328C208.205 23.6451 203.104 18.4471 197.487 17.9633C194.497 17.7067 192.632 19.5102 189.752 18.9823H189.773ZM177.683 49.3562C173.63 48.6964 170.894 46.6069 168.748 42.9266C162.823 48.2125 155.732 48.4984 150.253 42.3548C146.879 46.409 141.688 47.736 136.936 45.8225C130.387 67.384 133.446 104.635 162.158 101.578C165.463 101.226 168.857 99.2535 171.607 98.8503C172.382 98.7403 173.088 98.5131 173.678 99.2902C175.29 101.739 168.316 108.894 166.56 110.353C164.805 111.812 162.59 112.589 160.951 114.239C158.9 126.922 164.942 130.126 175.667 127.648C180.049 126.636 192.488 119.869 194.319 115.581C194.875 114.276 192.44 104.781 192.036 102.333C191.124 96.8122 188.374 83.5351 188.627 78.7404C188.662 78.0732 188.97 77.3327 189.224 76.7242C196.548 77.3474 204.022 72.1641 203.227 63.6304C202.617 57.0615 196.568 53.5497 191.13 56.9588C187.023 59.5322 186.817 66.1451 180.81 62.0102C177.052 59.4222 176.846 53.5864 177.69 49.3635L177.683 49.3562ZM209.81 116.768L202.02 115.661C191.124 132.611 188.202 153.784 186.316 173.931L185.062 174.921C172.725 175.163 160.388 175.236 148.052 175.471C146.351 175.507 142.737 177.061 141.544 174.921C141.133 174.188 141.695 167.963 141.825 166.482C143.101 151.988 146.434 137.443 151.611 124.026C149.842 123.931 144.171 126.622 143.204 127.824C142.086 129.21 140.173 136.204 139.507 138.41C135.311 152.296 132.588 167.377 131.498 181.885C136.312 175.896 144.431 179.437 142.058 187.685C141.112 190.969 135.942 191.805 133.439 189.957C132.499 189.268 132.986 187.89 131.498 188.286L134.728 217.677L136.387 217.926C136.826 217.457 134.358 207.538 136.902 204.818C138.383 203.234 145.035 204.136 147.558 204.004C158.29 203.44 168.878 203.623 179.644 203.425C182.195 203.374 188.511 201.453 190.136 204.371C191.343 206.534 190.431 213.476 190.774 213.865L203.028 210.404C204.249 208.425 201.259 193.997 201.081 190.346C200.861 185.874 201.218 181.394 201.657 176.959C201.41 174.481 198.44 176.292 197.24 174.679C195.972 172.978 198.022 157.531 198.475 154.371C200.402 140.94 203.954 128.792 209.803 116.776L209.81 116.768ZM258.745 187.699C259.959 185.243 258.82 183.198 258.759 181.006C258.039 154.166 251.263 131.966 226.254 121.563C224.142 120.683 215.701 117.391 214.158 118.19C213.259 118.66 210.331 125.353 209.707 126.834C203.782 140.837 202.013 156.262 200.553 171.416H204.365C204.722 171.013 204.653 162.685 205.264 161.086C205.819 159.642 207.815 159.803 208.445 160.947C209.954 163.66 207.053 183.029 208.164 184.217C225.068 184.305 242.232 183.286 258.738 187.707L258.745 187.699ZM157.049 122.575C156.164 121.446 155.177 124.906 155.012 125.339C149.567 139.334 146.557 156.343 145.631 171.424L182.559 170.778C183.848 154.319 187.112 138.432 192.948 123.168C192.625 122.802 188.655 126.262 187.873 126.754C181.914 130.507 175.228 133.139 168.185 132.494C163.07 132.025 157.213 128.726 157.049 122.589V122.575ZM128.721 169.613L136.929 132.465C125.278 140.353 118.688 154.429 112.537 167.164L113.819 168.513L128.721 169.613ZM84.1679 141.783C74.8349 137.545 73.58 163.638 77.4682 164.957C82.0969 166.534 80.7529 156.768 80.986 154.334C81.4249 149.767 82.9335 146.057 84.1679 141.783ZM97.7662 148.74C96.6347 140.119 89.5784 138.256 86.2457 147.179C85.1348 150.163 82.6524 163.088 87.624 162.575C92.2459 162.098 89.791 155.969 90.1887 153.139C90.7236 149.327 94.4678 147.017 97.7593 148.74H97.7662ZM72.0576 143.601C65.3716 144.693 66.4277 165.61 70.8576 165.632C71.8039 165.632 72.0851 165.001 72.2291 164.136C72.5788 162.032 71.4816 157.347 71.6873 154.275C71.8999 151.042 72.9148 147.501 73.8337 144.415C73.292 143.55 73.0108 143.447 72.0576 143.601ZM64.055 148.74C62.9441 147.421 60.6605 153.029 60.4891 153.938C59.7142 158.11 61.4629 163.674 65.1385 165.602C64.0207 159.855 62.6972 154.686 64.055 148.74ZM106.482 167.347C108.683 162.061 98.8565 149.144 94.4815 152.479C91.5808 154.686 97.4782 158.286 98.5617 159.825C99.9469 161.812 100.866 164.935 101.661 167.267L106.482 167.347ZM97.2245 166.761C97.9788 165.984 95.0918 161.614 94.2346 160.962L90.1613 165.896L97.2245 166.761ZM56.4432 166.768L49.9835 166.255L48.8452 171.38C51.1081 172.311 53.5288 171.951 55.9015 171.995L56.4432 166.761V166.768ZM98.3217 170.83C94.9478 170.947 91.5808 169.987 88.2549 169.679C82.7895 169.166 77.2761 169.239 71.9616 169.129C68.0049 169.048 64.007 169.598 60.5303 167.34L59.7828 172.501L98.0748 177.098C99.6383 176.856 97.7662 172.215 98.3285 170.83H98.3217ZM124.421 173.161L102.121 171.409L102.361 177.259L117.042 178.938C118.195 178.953 125.505 174.173 124.421 173.161ZM114.594 183.095L39.0253 174.554C30.3575 212.047 25.5367 250.925 24.6109 289.466L103.684 301.57L105.94 269.407C103.108 267.039 103.869 263.572 102.957 261.526C102.512 260.529 99.6177 259.356 98.644 256.834C97.6702 254.312 98.6714 252.531 98.2325 250.918C97.9651 249.928 96.1273 248.381 95.5787 246.739C93.5832 240.742 97.7456 240.764 98.2394 238.454C98.4314 237.575 97.6908 236.482 97.8622 235.221C98.5617 230.17 105.344 229.605 109.143 229.488L114.594 183.088V183.095ZM129.859 214.444L126.876 177.237L122.336 181.71C123.187 186.446 122.652 191.314 122.803 196.123C122.837 197.223 123.31 198.359 123.365 199.591C123.488 202.523 122.474 210.932 124.455 212.384C124.75 212.597 129.674 214.671 129.866 214.444H129.859ZM135.372 187.032C138.225 188.96 141.208 182.97 137.114 182.597C134.44 182.355 134.275 186.292 135.372 187.032ZM113.003 229.561C115.068 228.733 120.197 229.965 120.622 227.523C121.28 223.777 117.955 221.812 117.865 218.205C117.797 215.316 119.785 214.253 120.094 211.863L118.976 183.638L113.003 229.569V229.561ZM113.819 260.962C116.864 261.328 120.958 260.962 124.154 260.962C125.169 260.962 125.957 264.422 122.487 264.994C117.262 265.852 112.078 264.319 107.024 263.293C107.703 265.58 109.287 266.358 111.179 267.274C118.373 270.749 129.934 270.346 137.478 268.234C140.481 267.399 143.972 265.053 146.996 264.979C153.291 264.833 161.568 266.592 168.185 266.797C187.592 267.399 217.333 265.874 233.914 254.451C252.422 241.702 255.92 214.723 258.793 193.234C258.608 191.365 253.519 191.086 251.798 190.786C237.384 188.278 222.743 188.924 208.185 188.858L207.095 209.796C210.503 209.085 213.465 211.658 209.659 213.982L147.942 230.602C145.679 230.72 142.244 227.164 140.159 225.83C137.862 224.363 124.593 215.837 123.111 216.226C119.957 217.047 124.599 223.396 125.532 224.605C127.054 226.577 131.265 229.063 129.07 231.336C126.245 234.261 109.129 232.912 104.157 234.349C95.4964 236.849 110.631 240.94 113.291 241.189C115.616 241.409 123.852 240.163 124.332 242.736C124.689 244.627 122.768 245.111 121.452 245.265C116.542 245.837 110.74 244.972 105.94 243.814C104.137 243.381 100.886 241.042 99.556 242.501C96.1478 246.233 105.303 249.928 107.71 250.646C110.116 251.365 113.511 252.105 116.014 252.23C118.86 252.377 121.171 251.262 123.831 252.296C124.071 254.547 124.222 255.463 122.014 255.756C115.506 256.607 108.203 255.331 102.141 252.824C101.339 257.78 110.384 260.544 113.833 260.962H113.819ZM139.652 207.465V219.965C141.901 221.702 145.782 225.617 148.546 225.463L187.523 214.715L186.968 206.885L139.652 207.472V207.465ZM253.862 266.768L250.331 243.513C246.429 251.145 240.346 256.182 233.743 260.947C240.175 264.187 246.744 266.116 253.862 266.768ZM120.622 273.748C116.652 274.143 113.038 272.047 109.198 271.424L108.114 297.582L120.334 283.623L120.622 273.748ZM135.297 273.176L123.879 274.334C124.161 277.289 122.954 281.372 125.23 283.652L136.387 291.196L135.297 273.176ZM133.665 294.114L122.508 286.709L110.823 300.492C117.968 298.792 125.889 297.472 132.876 295.28C133.665 295.031 133.823 295.61 133.665 294.114Z" fill="#2A5BAE"/>
<path d="M9.59354 151.732C10.4576 156.959 11.9525 160.536 17.0407 162.083L17.2807 163.85C10.7319 163.865 11.3902 171.101 9.38095 173.726C7.37172 176.35 7.214 171.739 6.65855 170.273C4.76589 165.229 4.08015 166.358 0.767997 163.777C-1.86526 161.724 2.99667 161.218 4.50531 159.796C6.45282 157.956 7.39915 154.385 7.51573 151.673L9.58668 151.732H9.59354ZM9.11351 166.182L11.2668 162.479L8.85293 159.21L5.89737 162.985C6.72026 163.476 8.13976 166.907 9.11351 166.182Z" fill="#2A5BAE"/>
<path d="M62.8482 211.116C97.8555 206.658 98.2052 267.553 63.7945 264.437C35.2333 261.856 34.2869 214.752 62.8482 211.116ZM63.3899 215.192C39.0803 218.176 40.3695 258.051 63.7877 260.375C93.0278 263.271 93.1444 211.541 63.3899 215.192Z" fill="#2A5BAE"/>
<path d="M147.936 80.2654C149.273 78.9237 162.432 76.9369 165.038 75.0381C169.777 75.6906 168.042 83.0806 166.217 86.1378C163.358 90.9325 156.555 92.1641 152.187 89.1143C150.425 87.8826 145.796 82.4061 147.936 80.2654ZM164.668 78.9677L151.632 83.3225C156.754 90.0601 163.975 87.626 164.668 78.9677Z" fill="#2A5BAE"/>
<path d="M148.128 58.0519C153.093 56.417 147.833 69.8334 146.722 71.6882C147.47 73.1178 150.014 72.0254 150.487 73.499C151.851 77.7732 143.204 76.3583 142.868 72.2894C142.614 69.2029 144.185 68.631 145.021 66.3949C145.563 64.9507 147.483 58.2645 148.121 58.0519H148.128Z" fill="#2A5BAE"/>
<path d="M161.281 56.4236C162.584 57.8679 162.44 64.2535 160.499 64.928C153.875 66.6142 156.954 51.6142 161.281 56.4236Z" fill="#2A5BAE"/>
<path d="M142.278 56.3941C143.615 57.2445 144.136 63.6815 141.825 64.7372L140.029 64.9351C136.209 62.9923 138.143 53.7695 142.278 56.3941Z" fill="#2A5BAE"/>
<path d="M198.88 60.4191L198.413 63.0071C192.955 62.1787 193.832 69.9646 189.732 68.4616C187.894 65.6024 195.629 57.6992 198.88 60.4265V60.4191Z" fill="#2A5BAE"/>
<path d="M194.943 179.752C200.038 185.089 192.426 193.916 186.947 188.594C181.468 183.271 189.388 173.931 194.943 179.752ZM189.286 185.808C191.096 187.78 194.682 184.569 192.186 182.413C189.985 180.514 187.379 183.726 189.286 185.808Z" fill="#2A5BAE"/>
</svg>
