<svg width="316" height="364" viewBox="0 0 316 364" fill="none" xmlns="http://www.w3.org/2000/svg">
<path d="M258.383 118.436C252.171 114.887 254.01 112.111 252.978 106.758C252.059 101.962 247.237 99.6452 242.789 99.9817C241.496 97.1673 242.52 94.5136 240.785 91.7069C238.528 88.0512 234.057 89.0148 233.287 87.9059C232.891 87.3247 232.54 82.5525 232.009 80.8012C227.464 65.8499 209.469 70.4079 208.998 85.1527C208.909 88.0206 210.419 92.4334 210.269 93.6188C210.067 95.2707 203.422 96.6014 204.73 104.876C205.642 110.635 211.129 113.304 212.774 118.443C207.937 117.717 204.528 121.854 200.102 122.244C198.196 116.195 196.746 103.775 188.477 103.844C186.392 103.859 184.119 105.48 183.357 105.335C182.116 105.09 178.931 100.165 175.941 99.1557C167.201 96.2114 161.101 102.88 164.555 111.568C166.02 115.239 170.887 117.472 166.775 121.495C165.654 122.588 163.905 122.504 162.686 123.43C161.565 124.286 160.907 126.542 159.987 126.772C159.531 126.886 155.42 125.28 153.334 125.273C145.679 125.234 140.468 132.507 143.242 139.857L128.245 137.234C126.227 135.811 128.44 123.804 128.387 120.837C158.275 114.849 160.114 78.0327 153.708 53.4605C177.907 49.499 176.681 15.2065 150.725 17.4932C149.484 -1.6873 124.492 -6.36005 115.155 9.83785C102.013 -1.74082 84.796 4.75976 81.2301 21.7683C66.0169 17.1567 54.2051 33.5076 62.5032 47.3117C46.8639 51.5409 46.2434 73.6429 61.0081 79.4552C53.2557 95.1636 65.3291 105.962 80.4451 104.685L76.6997 132.209C45.5108 131.345 8.7225 147.038 1.56818 181.155C-3.3733 204.702 4.14738 224.793 13.208 245.755L9.41774 300.842C7.86278 317.108 4.85006 333.459 4.19967 349.803C4.08753 352.525 3.54182 361.825 5.2463 363.24C6.56951 364.341 7.92266 364.326 8.55062 362.666L11.2419 326.423C16.5048 325.536 21.2295 325.116 26.4326 323.609C40.8908 319.441 54.9303 309.071 60.2829 294.356C71.818 299.205 83.4204 300.375 95.6508 297.461C98.3197 302.081 99.441 306.348 104.106 309.514C113.667 316.007 136.087 314.722 147.136 312.489C161.258 309.637 166.97 300.528 167.927 286.342C168.226 281.944 167.358 249.709 165.549 248.562L161.916 248.08L176.853 230.873C177.705 235.056 178.452 239.346 179.006 243.591C183.529 278.22 183.962 316.527 182.848 351.332C182.721 355.179 181.503 368.96 186.997 361.718C188.791 335.042 188.687 308 186.579 281.348L198.024 288.368C231.725 305.193 261.142 271.811 277.342 245.335C280.631 239.966 284.706 229.626 287.898 225.542C291.09 221.458 295.134 220.472 298.73 214.445C307.185 200.282 308.247 186.187 304.501 170.264C302.946 163.641 298.446 158.548 293.475 154.411C297.407 154.12 296.517 147.818 297.938 146.342C299.089 145.149 305.63 143.543 307.933 142.037C320.216 133.999 318.743 114.283 301.653 118.023C297.811 118.864 296.016 121.938 293.228 123.185C292.309 123.59 291.479 123.866 291.232 122.642C291 120.898 292.593 119.636 292.705 118.038C292.832 116.233 291.404 114.115 291.553 112.708C291.651 111.79 294.439 108.486 295.119 106.75C299.553 95.4619 288.944 83.8908 277.768 88.9995C274.24 90.6132 272.595 94.9342 271.047 95.8901C269.5 96.8461 266.674 95.7601 264.043 97.1367C262.241 98.0774 258.339 103.14 258.339 105.067V118.451L258.383 118.436ZM93.9164 51.9004C92.4811 54.9518 96.1218 56.5043 96.7498 59.3263C97.5198 62.8137 97.3852 67.41 93.6922 68.9242C90.3505 70.3008 90.3879 66.4311 88.6983 64.5038C82.3664 57.2844 70.6668 59.8081 67.5195 68.8707C63.5574 80.2735 71.1901 90.1467 82.3813 91.638C81.2076 96.2114 83.1139 101.221 77.2006 100.769C65.2917 99.867 58.8252 90.1773 65.3889 79.1569C59.0794 73.2529 51.7307 68.4042 55.7601 58.3627C58.1972 52.2981 62.9219 52.4969 66.9065 48.3059C64.1778 41.4689 61.5314 33.8288 68.1026 28.1771C73.3805 23.642 78.1127 25.6534 84.2204 25.5539C86.2986 14.5947 93.8567 5.65454 105.728 8.82835C109.107 9.73078 114.176 15.2142 115.207 15.2219C117.196 15.2295 119.155 10.2891 120.784 8.66775C128.103 1.41005 142.001 3.63553 146.038 13.4782C147.077 16.0096 146.658 18.8239 148.46 20.9424C154.836 21.4853 161.385 21.3171 165.071 27.6571C171.022 37.8897 162.447 48.5277 152.28 49.5296C152.519 47.7247 150.553 46.2105 150.299 45.0786C149.917 43.419 154.537 34.4788 146.987 34.3182C150.448 43.5185 144.64 47.2964 136.341 43.289C133.374 41.8589 127.931 34.1806 126.832 39.3275C125.733 44.4744 124.612 48.3442 117.794 47.0058C112.89 46.0422 110.303 41.423 105.87 41.2088C107.171 51.1509 103.478 55.7166 93.909 51.9157L93.9164 51.9004ZM109.623 47.3117C116.807 52.8717 126.6 53.1011 130.174 43.4879C134.921 48.2601 141.425 50.2867 147.772 47.6253C155.121 66.4923 155.973 105.58 133.732 114.421C124.485 118.099 117.54 115.897 108.12 115.369C108.838 122.825 117.6 127.911 123.872 130.366C123.737 138.825 125.756 144.744 116.344 147.864C104.487 151.795 89.0048 144.048 80.8114 135.222L86.194 89.8408L85.5436 87.99C75.2719 88.7624 65.7403 75.4783 73.3282 67.15C81.8655 57.7815 87.3976 72.144 90.7243 73.1611C98.4916 75.5319 104.263 63.7544 99.9045 57.2614C105.496 56.7032 109.638 53.3535 109.638 47.3117H109.623ZM227.733 121.495V106.582C227.733 105.542 233.265 98.0392 232.218 97.0297C228.51 96.3337 229.116 101.366 226.245 102.375L223.24 89.3743C221.117 88.9001 221.7 90.445 221.73 92.0663C221.797 95.2248 225.184 107.561 223.987 109.258C223.165 108.272 215.712 102.635 217.252 107.346C217.506 108.134 227.508 114.581 224.742 119.2C224.242 119.728 218.268 118.13 217.289 117.273C216.863 116.898 211.166 108.868 210.666 107.989C205.522 98.9034 213.058 99.3622 214.119 95.7219C215.532 90.8886 211.174 84.9539 215.136 79.1722C219.098 73.3905 225.752 75.7766 227.905 81.9407C228.839 84.6097 228.368 88.1813 229.946 90.5597C232.218 93.9782 237.646 90.7203 238.221 97.4197C238.573 101.481 236.995 102.528 235.911 105.786C235.313 107.584 235.358 109.908 234.663 111.392C233.25 114.39 227.381 113.335 229.213 121.143L227.733 121.51V121.495ZM276.579 94.9877C283.853 88.6019 293.25 93.9935 291.987 103.454C291.553 106.719 288.242 109.167 287.674 111.369C286.769 114.887 290.484 118 286.006 121.839C280.729 126.359 270.973 123.491 268.745 131.368L264.7 129.915C264.416 129.548 268.274 122.412 268.864 121.892C270.95 120.034 282.201 118.39 282.283 116.516C279.6 113.48 275.615 118 272.587 116.516C275.256 112.21 279.802 108.715 282.71 104.693C283.465 103.645 284.108 103.14 283.794 101.603C282.732 100.425 275.383 108.226 274.449 109.243C274.038 108.815 273.836 102.001 271.847 103.897C270.532 105.152 271.451 110.451 271.518 112.333C269.253 114.413 262.099 129.349 260.88 129.77C259.527 130.244 257.606 129.754 256.141 129.884C255.244 129.097 261.366 122.076 261.785 120.753C263.542 115.216 260.604 107.912 263.699 102.827C266.226 98.6739 269.507 101.527 271.81 100.471C273.477 99.7064 275.338 96.066 276.579 94.9801V94.9877ZM177.653 123.001C179.589 123.483 182.878 123.919 184.553 124.753C188.007 126.473 198.181 141.945 187.685 141.318C185.584 141.195 179.828 129.51 177.294 126.833C175.343 124.776 173.077 123.659 170.962 121.885C176.785 116.6 164.054 108.777 168.667 103.507C172.719 98.8804 180.277 108.991 182.863 109.717C185.988 110.597 187.737 104.67 191.857 110.398C192.709 111.583 197.62 124.875 197.568 125.693C197.531 126.244 194.181 131.437 193.718 131.422C189.15 127.429 192.544 120.906 189.233 116.141L187.379 123.017C187.057 121.495 186.078 120.003 185.106 118.833C183.91 117.388 176.12 108.708 174.662 110.023L182.145 120.332L177.645 120.73V123.001H177.653ZM233.16 117.097C234.147 116.057 236.958 116.057 238.124 114.161C239.918 111.232 238.094 104.249 243.791 103.844C251.521 103.293 248.396 111.782 249.547 115.621C250.168 117.686 254.391 118.153 254.623 121.931C254.72 123.537 252.231 130.129 251.214 131.376C249.824 133.089 245.091 134.328 243.439 136.79C243.327 134.962 243.32 133.379 244 131.636C244.277 130.924 253.128 121.128 247.544 123.009C247.132 123.147 245.705 126.787 244.187 126.848C243.522 124.99 246.452 113.09 243.806 113.098L239.328 137.547C237.773 135.697 237.915 133.135 236.838 130.917C235.358 127.85 229.759 120.676 233.16 117.097ZM301.735 129.142C293.878 130.435 287.285 136.446 281.932 142.121L278.718 137.303C280.983 134.534 283.644 127.72 287.345 126.971C289.827 126.466 291.808 128.141 294.447 127.445C296.173 126.986 299.179 123.843 301.235 122.887C312.515 117.64 315.132 129.326 307.731 136.415C304.053 139.933 297.429 141.019 295.045 143.321C292.839 145.447 294.155 148.942 291.995 150.908C291.254 151.589 284.84 153.875 284.549 153.608C281.214 142.442 285.326 142.35 295.007 141.364C294.895 137.15 291.486 141.019 289.789 138.695C289.879 137.501 298.528 132.806 300.038 131.605C300.95 130.879 302.064 130.718 301.735 129.142ZM196.334 139.077C200.82 113.281 238.094 118.237 234.394 145.516C233.526 151.917 229.138 156.422 223.614 158.953C222.896 158.9 220.952 152.988 220.272 151.688C219.532 150.266 217.588 148.637 217.267 147.872C216.28 145.547 223.98 147.719 223.24 144.446C220.661 144.43 218.246 143.903 216.13 145.707C210.912 142.809 213.768 143.574 214.695 140.66C215.181 139.138 215.248 138.572 213.895 137.57L212.019 142.908C207.219 140.423 201.769 138.916 196.327 139.077H196.334ZM164.099 132.11C165.295 128.523 164.181 124.516 169.392 126.496C176.262 129.112 179.14 138.794 183.618 144.063L178.116 148.208C174.221 145.348 172.689 140.431 170.812 136.133L168.674 136.033L170.162 142.144C165.026 140.79 160.84 136.285 155.218 136.798C154.799 138.847 155.749 138.113 156.69 138.695C161.101 141.402 165.856 143.474 170.162 146.358C169.489 145.975 157.55 150.22 163.097 151.298C165.235 151.719 173.974 146.786 175.799 151.352C176.374 152.789 172.891 161.072 173.145 163.557C167.874 157.462 158.537 162.402 155.188 154.739C154.911 151.925 158.507 149.937 157.094 146.755C155.681 143.574 142.539 140.599 147.398 133.005C152.257 125.41 161.565 133.769 164.099 132.11ZM279.308 129.142C280.093 129.877 275.032 137.739 272.924 132.974C271.81 130.458 277.492 128.944 279.308 129.142ZM239.687 155.91C239.926 122.757 290.634 130.152 278.112 162.838L274.083 162.785C279.502 155.52 276.692 140.545 266.921 139.123C258.286 137.869 260.963 145.723 261.374 150.939C261.463 152.032 260.559 153.401 260.626 153.99C260.821 155.688 263.011 154.77 263.459 153.08C264.678 148.445 260.245 141.83 266.218 142.098C274.165 142.457 276.744 156.552 271.092 161.653C268.236 161.439 256.058 163.343 254.638 162.418C253.965 161.982 253.801 160.697 253.158 160.108L255.393 158.579C254.354 154.411 250.018 160.093 246.751 156.72C245.787 152.499 246.101 149.187 249.39 146.335C257.008 139.727 253.135 156.063 259.871 155.91C257.853 150.732 257.18 138.695 249.128 143.008C244.867 145.294 243.051 151.252 243.432 155.91H239.687ZM59.5279 137.563L72.461 136.01C82.2393 150.113 88.0928 166.67 92.0624 183.426C92.8324 186.684 95.8676 205.337 96.8843 206.025L124.956 206.385L95.7854 223.202C95.6508 220.541 97.4973 219.164 96.9067 215.967C96.3161 212.77 92.04 210.598 89.132 210.981C87.1359 211.241 84.8109 214.101 84.2054 213.658C77.238 203.868 77.8884 192.427 75.7503 181.002C72.8871 165.722 67.7737 150.64 59.5428 137.563H59.5279ZM15.4283 238.505C5.82193 216.916 -0.898746 189.682 11.8325 167.916C20.923 152.361 39.1789 141.991 56.418 139.184C64.8806 154.671 70.7266 171.932 72.9768 189.56C72.1171 190.768 66.1066 174.578 62.5257 176.566L74.4794 203.318C55.162 208.725 37.2276 219.409 22.1415 232.762C21.1024 233.687 16.4151 239.423 15.4283 238.513V238.505ZM127.565 141.379C129.314 140.996 128.761 141.624 129.232 142.365C134.742 151.084 139.863 168.567 142.143 178.845C142.733 181.507 145.133 191.77 144.632 193.59C144.131 195.41 134.323 201.436 132.379 201.75C122.975 203.303 109.817 200.771 100.002 201.681L93.3632 171.381L81.9627 142.136C93.266 152.835 121.255 160.689 127.565 141.371V141.379ZM133.538 142.144C144.079 142.404 145.439 146.098 149.364 154.625C150.747 157.638 155.584 168.704 154.911 171.213C154.171 173.951 148.542 180.78 147.361 184.199C144.692 169.545 139.818 155.52 133.538 142.144ZM177.645 167.374C174.139 145.478 202.502 135.245 215.33 151.382C217.715 154.388 222.642 162.8 215.772 162.785C218.68 155.887 205.582 143.092 202.128 151.512C201.62 152.743 199.833 160.292 202.689 158.204L204.498 152.415C209.499 148.782 218.994 164.834 209.813 166.265C208.931 166.402 208.371 165.37 207.937 165.393C207.07 165.446 205.477 167.335 203.803 166.616C204.378 162.326 201.934 158.869 197.523 159.022C193.838 159.152 192.746 161.63 188.492 158.196L187.453 159.986C190.167 162.326 187.072 163.481 184.366 163.55C181.66 158.678 191.169 148.285 194.854 150.87C195.841 151.566 196.634 160.33 198.203 157.447C200.521 153.195 197.815 147.627 192.283 148.315C183.7 149.386 181.263 158.28 181.749 165.852L177.638 167.374H177.645ZM300.24 168.911C297.863 167.412 296.009 164.406 293.31 163.389C290.993 162.51 283.779 163.297 287.472 158.525C291.419 153.424 301.085 167.932 300.24 168.918V168.911ZM211.294 173.499C210.516 169.591 214.74 168.054 217.633 166.609C226.013 162.418 236.689 159.382 246.063 160.491C250.227 160.98 251.229 163.137 249.592 167.198C246.669 174.44 221.894 184.979 214.77 182.562C213.379 182.088 213.334 180.183 212.549 179.082C212.123 178.478 208.064 176.834 212.019 176.581C212.101 178.99 215.674 179.518 217.603 179.663C224.331 180.176 229.452 178.233 226.963 170.456L224.742 170.44C226.454 178.073 219.524 178.86 214.239 176.077C213.058 171.58 224.862 170.173 222.492 168.154C218.029 167.687 214.448 170.777 211.286 173.499H211.294ZM86.3509 228.471L80.0638 232.372L79.6826 233.526L80.8263 235.423C91.9951 229.205 103.5 223.554 114.602 217.221C120.358 213.933 145.813 199.708 147.906 195.464C152.549 186.011 154.126 176.26 161.976 167.794C168.457 160.796 171.141 168.36 167.5 174.975C166.02 177.667 160.428 178.776 163.815 181.897C169.033 178.96 173.773 175.151 178.916 172.123C181.981 170.318 197.516 160.972 200.08 163.565C200.386 167.825 197.247 170.922 194.488 173.522C191.415 176.421 181.129 182.034 179.836 183.77C179.477 184.252 179.118 184.703 179.11 185.346L180.254 187.242C186.758 184.413 192.44 179.992 197.837 175.419C200.536 173.132 200.685 170.241 204.932 170.05C213.162 169.691 202.891 182.371 200.558 184.696C196.155 189.093 190.242 191.609 185.868 196.068L187.005 197.972C189.92 198.569 206.412 185.415 207.645 181.254L209.828 181.484C212.138 188.336 204.416 195.991 199.684 200.243C199.123 200.741 188.463 207.463 192.23 207.914C199.512 207.012 204.446 200.075 209.783 195.67C210.748 198.163 208.939 200.855 207.675 203.065C203.549 210.308 194.682 217.397 187.595 221.527C183.671 223.814 175.799 226.078 173.19 228.204C169.526 231.186 163.837 239.828 160.092 243.866C140.199 265.287 105.833 299.358 74.457 293.209C50.6093 288.537 30.5518 264.209 18.7251 243.889C18.314 241.167 37.1678 226.949 40.4497 224.716C51.0952 217.481 63.3181 210.996 75.4886 207.226L86.3509 228.471ZM302.498 187.258C301.392 183.12 297.758 179.243 294.619 176.574C292.922 175.128 282.291 169.469 287.524 166.211C293.407 162.555 302.042 177.231 303.051 182.47C303.231 183.388 303.956 187.089 302.49 187.25L302.498 187.258ZM268.476 179.618C263.332 180.206 257.292 179.182 252.029 179.618L251.274 178.088C255.199 175.098 255.909 171.557 256.836 166.945C263.893 165.844 269.926 165.171 276.908 167.167C293.527 171.916 276.273 178.723 268.476 179.618ZM214.403 185.866C225.191 186.371 235.485 182.302 244.426 176.428L253.15 168.918C247.514 182.929 227.307 189.147 213.536 188.03L214.411 185.873L214.403 185.866ZM285.363 177.384C294.97 175.549 304.18 191.556 300.988 200.259L296.51 191.472C293.355 186.034 283.883 184.512 285.363 177.384ZM245.675 184.199C245.794 180.092 252.164 183.258 255.027 183.426C264.431 183.977 272.655 182.401 281.551 179.618C284.422 182.241 269.433 185.529 268.379 185.636C261.022 186.393 252.844 185.782 245.667 184.191L245.675 184.199ZM216.519 192.626C220.937 191.678 224.705 191.854 229.22 190.699C232.3 189.911 240.808 185.162 241.698 185.116C242.871 185.055 253.277 191.579 256.888 189.567C251.207 200.519 244.284 188.558 236.524 189.728C229.624 190.76 222.784 202.4 216.527 192.634L216.519 192.626ZM213.529 195.678C215.779 195.693 216.556 198.316 218.553 199.318C226.118 203.134 231.299 193.735 237.085 193.33C242.871 192.925 245.832 199.02 252.724 197.926C257.509 197.169 258.952 190.592 261.897 189.713C266.33 188.389 274.397 190.263 279.301 186.493L279.891 194.439C279.069 198.951 256.978 202.721 252.672 203.218C239.373 204.771 225.341 204.335 212.026 203.31L213.521 195.67L213.529 195.678ZM283.248 212.694C284.272 211.837 286.328 212.396 287.898 210.186C293.482 202.331 280.243 192.603 283.382 187.984C286.021 184.107 293.766 193.299 295.142 195.93C301.9 208.847 293.781 217.191 283.3 223.837C281.274 225.122 276.512 225.213 278.202 228.563L282.306 228.938C269.178 251.774 243.791 290.907 214 288.116C207.085 287.466 187.094 279.329 185.921 271.727C184.859 264.882 185.682 256.095 184.523 248.998C188.44 241.832 192.746 234.521 199.377 229.703L214.284 231.622C215.002 232.249 208.797 238.826 208.131 240.233C207.63 241.304 206.696 243.468 208.692 243.101C211.391 242.604 217.304 233.741 220.803 232.547C236.793 232.907 266.898 232.196 278.949 220.143C280.803 218.292 282.538 213.298 283.255 212.694H283.248ZM268.849 204.098C273.716 203.7 277.626 200.848 281.857 198.79C291.852 213.16 277.888 208.037 269.948 205.635C268.872 205.306 268.64 206.102 268.849 204.098ZM246.422 207.922L263.616 205.627C259.109 213.076 252.814 213.451 246.422 207.922ZM207.548 211.73C208.004 205.153 212.968 208.105 217.259 208.687L210.568 211.394L207.548 211.738V211.73ZM194.092 221.688C196.843 221.466 202.756 214.484 204.281 214.178C205.38 213.956 207.212 215.485 209.223 215.386C213.469 215.172 216.624 211.119 221.797 212.847C223.696 213.482 225.856 216.449 227.942 217.26C235.904 220.357 238.363 212.862 243.813 212.457C248.807 212.082 252.493 216.64 257.845 215.409C261.224 214.629 262.794 209.612 267.235 209.1C271.145 208.648 274.74 211.807 278.568 211.746C278.86 215.409 275.092 217.78 272.356 219.539C256.402 229.771 212.953 231.14 195.923 223.255C195.183 222.911 194.174 222.743 194.092 221.695V221.688ZM222.5 208.679H241.189L234.431 213.612C232.607 214.392 230.476 214.277 228.69 213.428L222.5 208.671V208.679ZM91.1429 214.139C93.9464 214.805 95.0378 218.996 92.0924 220.961C86.2538 224.846 85.1399 212.717 91.1429 214.139ZM181.473 228.647L189.367 224.854L194.824 228.181C190.952 232.287 186.347 235.997 184.358 241.557L182.878 241.174L181.473 228.647ZM152.975 259.146C154.612 254.481 158.156 250.29 163.441 251.499V258.389L152.975 259.146ZM16.916 252.271C18.6429 251.827 18.1495 252.615 18.6205 253.235C28.4212 266.022 33.9085 275.038 46.8864 285.455C48.875 287.045 56.4852 291.427 56.5151 293.163C56.545 294.747 50.8111 302.7 49.4281 304.283C40.6067 314.386 25.4757 320.672 12.4081 321.101L16.901 252.271H16.916ZM164.189 263.36C165.243 269.715 164.189 282.227 164.189 289.362C164.189 290.349 162.589 295.075 162.073 296.375C159.89 301.897 157.117 304.964 151.667 307.143C142.165 310.96 120.254 311.51 110.52 308.306C104.809 306.425 101.213 302.371 99.8298 296.314C118.467 288.781 133.934 276.369 148.512 262.618L163.307 261.555C163.426 262.16 164.106 262.932 164.174 263.345L164.189 263.36Z" fill="#2A5BAE"/>
<path d="M132.08 83.3095L132.484 85.5579C145.058 85.8409 140.842 81.9406 138.203 74.2775C137.104 71.0731 136.947 67.1422 134.659 64.9167C131.385 64.7867 136.334 80.1357 138.008 81.3517L132.088 83.3095H132.08Z" fill="#2A5BAE"/>
<path d="M118.497 85.6498L116.725 85.5504C114.011 86.5523 118.25 91.791 119.304 92.8311C123.251 96.7391 131.811 99.9435 136.506 95.8672C132.798 93.7794 128.746 94.8271 124.776 92.5863C122.504 91.3015 119.566 88.0436 118.489 85.6498H118.497Z" fill="#2A5BAE"/>
<path d="M122.698 63.6396C118.833 63.6396 117.891 73.3829 122.698 73.3829C127.505 73.3829 126.563 63.6396 122.698 63.6396Z" fill="#2A5BAE"/>
<path d="M144.251 63.4485C140.333 62.3779 139.72 72.1899 143.645 72.5952C147.936 73.0388 147.944 65.024 144.251 63.4485Z" fill="#2A5BAE"/>
<path d="M75.9744 70.255C75.4286 73.5971 79.0021 73.5436 80.871 75.5626C82.4484 77.2757 83.1735 82.1932 85.6929 79.027C84.3622 74.7978 80.7589 69.8497 75.9744 70.255Z" fill="#2A5BAE"/>
<path d="M215.772 130.672C215.674 135.536 218.074 137.478 221.745 139.842C222.111 139.398 217.035 129.234 215.772 130.672Z" fill="#2A5BAE"/>
<path d="M220.257 129.907C219.592 130.527 224.219 136.882 226.23 136.018C227.105 135.123 222.559 128.806 220.257 129.907Z" fill="#2A5BAE"/>
<path d="M212.033 131.444C210.77 130.335 205.739 136.5 208.669 138.304C211.002 136.668 211.091 133.899 212.033 131.444Z" fill="#2A5BAE"/>
<path d="M230.724 165.844C231.912 166.869 242.535 162.403 242.662 165.462C241.145 168.689 236.607 173.836 232.735 172.62C231.419 172.207 230.111 168.054 228.481 169.675C227.569 170.578 230.253 174.822 231.479 175.404C236.854 177.943 249.675 165.676 243.253 162.594C239.941 161.003 228.429 163.863 230.724 165.844Z" fill="#2A5BAE"/>
<path d="M277.066 171.197C277.514 167.152 267.347 167.496 267.37 169.293C270.001 171.48 273.896 171.228 277.066 171.197Z" fill="#2A5BAE"/>
</svg>
