<svg width="289" height="336" viewBox="0 0 289 336" fill="none" xmlns="http://www.w3.org/2000/svg">
<path d="M185.742 107.366C185.861 108.901 186.398 112.864 186.806 114.276C188.478 120.046 190.644 118.704 195.422 119.476C198.993 120.055 204.484 121.085 207.618 122.685C212.064 124.956 214.096 125.553 218.689 127.372C248.121 139.052 266.558 166.889 278.76 192.968C279.249 195.524 276.138 195.147 276.043 195.914C282.892 213.316 290.22 234.204 288.828 252.943C287.299 273.546 268.083 287.69 246.069 281.644L249.385 313.874C249.138 316.724 250.814 334.485 249.423 335.384C248.587 335.923 246.506 335.726 246.54 334.476C245.927 320.512 245.618 306.407 243.448 292.609C231.731 288.83 223.799 279.899 218.912 269.661C217.326 266.338 216.39 261.844 214.818 258.972C213.474 256.525 210.492 253.487 208.824 250.913C200.589 238.181 194.073 224.598 187.276 211.177C183.249 208.086 179.658 205.495 177.407 200.974C160.77 209.958 140.376 212.273 121.635 208.423C120.832 211.786 122.917 215.916 122.385 218.964C121.763 222.559 117.849 224.869 114.724 222.037C110.564 218.271 115.693 211.264 114.273 206.665C110.92 205.034 107.396 203.723 104.048 202.075C103.069 201.592 100.922 199.803 100.248 200.303C99.9583 200.518 98.2201 204.982 96.9235 206.442C95.0379 208.572 92.4068 209.27 90.8395 211.348C88.8875 213.939 83.7866 222.739 83.0124 225.606C82.1148 228.934 82.6135 234.686 82.2098 238.457C80.0393 258.779 73.4613 283.867 51.3101 292.872C50.7971 299.585 50.6404 306.276 50.3839 312.988C50.1274 319.701 50.6879 328.106 49.9375 334.06C49.624 336.542 46.7839 336.239 46.2329 333.49C45.245 328.553 46.4656 322.774 46.6081 317.833C46.8361 310.059 46.9216 302.352 47.5438 294.582C48.0852 287.786 49.0968 280.96 49.909 274.19C25.1075 290.237 -1.29924 272.686 0.0495914 246.353C1.02322 227.342 13.9559 207.007 24.2241 191.035L21.5882 188.036C35.7272 167.696 54.4637 148.751 77.2514 136.518C74.1358 132.52 77.5458 128.986 82.2098 128.617C81.0272 126.627 80.12 124.873 81.9438 122.896C84.1618 120.484 87.6241 122.361 89.3386 121.392C89.7186 121.181 91.8131 117.253 92.4638 116.385C96.4438 111.053 101.445 106.48 107.32 102.916C110.379 101.061 113.703 99.7985 116.852 98.1061C113.366 92.8886 111.979 86.9958 111.58 80.8971C103.321 77.9814 101.559 68.0068 105.957 61.5485C98.5145 58.7205 96.629 51.6001 101.682 45.7644C84.5845 36.921 96.1351 11.7542 115.005 15.3188C117.764 0.832534 138.609 -5.53369 149.481 5.82643C153.081 3.0423 155.84 0.622081 160.817 0.161713C170.307 -0.715178 178.571 2.75293 182.223 11.0834C188.098 8.54918 194.097 10.3906 198.105 14.8321C201.387 18.4668 201.501 21.4263 201.634 26.0432C213.721 28.8711 219.781 43.7651 210.924 52.5516C219.986 58.2382 220.788 70.8917 209.998 75.3946C214.495 83.861 207.281 93.2832 197.16 92.2484C196.628 97.6325 191.123 100.035 185.742 99.246V107.357V107.366ZM148.36 10.1232C147.771 9.70667 146.821 7.56267 146.032 6.78662C138.956 -0.232888 123.729 3.23522 119.474 11.5613C118.272 13.9157 118.719 16.336 117.346 18.3747C112.616 18.2914 108.935 17.4233 104.546 19.7076C97.5409 23.3511 93.8886 33.1942 98.6095 39.5999C99.8064 41.2221 105.23 44.6552 105.406 45.1945C105.9 46.7334 102.699 48.9388 102.252 50.9074C101.074 56.0767 106.261 61.0662 111.575 58.418C111.813 55.5988 112.487 52.7971 113.204 50.0612C113.523 48.8467 115.351 44.8568 115.275 44.2255C115.228 43.8265 112.701 41.3624 112.335 40.0822C111.651 37.6883 112.183 31.6991 115.28 30.9274C118.377 30.1558 115.266 33.808 115.071 34.6849C112.924 44.2167 124.784 45.2076 131.067 40.6872C134.886 37.9382 132.311 38.0215 132.563 34.6498C132.715 32.6505 133.959 28.5379 136.809 29.5463C135.303 34.9304 134.924 40.0559 140.936 43.0505C148.578 46.8518 158.704 43.0154 162.546 36.2107C166.203 35.2067 165.144 39.35 166.317 41.9806C168.112 46.0056 172.344 48.268 177.022 48.2285C178.951 48.211 182.76 46.2467 183.615 47.9523C184.598 49.9121 177.787 51.5782 176.229 51.0302C175.84 53.3934 175.811 55.5374 177.44 57.5762C178.699 59.1502 180.784 59.2466 181.829 60.9522C181.064 64.0388 177.488 69.7912 183.33 69.8658C184.223 65.6611 186.55 59.4132 191.774 58.589C207.979 56.0372 209.656 83.4313 192.088 86.0576C191.142 86.1979 188.483 85.8033 188.051 86.3689L185.856 95.9927C186.151 97.4922 190.178 96.1418 191.128 95.699C194.23 94.2477 194.073 92.0555 195.198 89.3722C202.384 89.6528 208.54 87.2896 208.074 79.7396C207.927 77.3325 206.535 76.6617 206.217 75.263C205.68 72.8823 208.938 72.6061 210.582 71.5669C216.291 67.9585 215.602 60.5137 211.152 56.2784C210.078 55.2568 207.2 54.2966 207.072 52.9856C206.967 51.9158 210.069 49.1536 210.776 47.6322C214.714 39.1702 207.927 29.406 198.286 28.2617C197.763 26.0125 198.718 24.4823 198.333 22.0752C197.364 15.9721 190.758 11.5481 184.185 13.4422C182.741 13.8588 181.777 15.3144 180.019 14.4331C179.084 13.9859 178.59 11.0264 177.915 9.79875C173.893 2.44601 160.124 0.928993 153.67 6.31749C152.007 7.70298 150.891 11.934 148.345 10.1363L148.36 10.1232ZM173.394 50.5873C167.604 49.9209 164.555 46.1196 162.708 41.3844C154.89 48.5793 142.209 50.3988 134.691 41.893C130.169 45.5321 123.587 47.6234 117.83 45.3216C114.739 54.507 113.632 63.9994 114.007 73.6189C114.173 77.9113 114.705 83.2296 115.684 87.4168C116.477 90.7972 117.579 93.9891 119.721 96.8653L132.449 94.331C133.309 91.1742 133.394 88.1227 131.955 85.1061C131.632 84.4222 128.973 82.265 130.925 81.7389C133.636 81.0067 133.594 84.6195 135.047 85.3561C136.88 86.2856 141.568 86.6232 143.7 86.5311C145.349 86.4609 153.503 85.0842 154.562 84.3871C155.384 83.8434 155.27 79.5861 157.944 79.9632C159.73 80.4235 157.099 83.9267 156.875 85.1105C156.296 88.2323 156.951 91.7442 159.15 94.2039C160.765 96.0103 164.018 96.3523 162.926 98.8076C161.563 99.5354 158.789 97.1415 158.424 97.1459C158.167 97.1459 157.436 98.0578 156.928 98.3121C153.57 99.9651 150.749 101.009 146.797 100.579C147.642 103.639 147.514 106.805 151.779 107.169C153.484 107.313 155.788 106.463 156.913 106.774C157.949 107.063 157.991 108.217 158.286 108.379C159.236 108.901 163.966 107.309 165.173 106.796C167.904 105.634 175.754 99.3293 171.67 107.094C170.254 109.786 167.809 111.864 165.795 114.162C169.333 114.447 172.952 114.026 175.032 111.08C176.296 109.286 175.631 106.919 178.951 107.914C180.599 108.41 181.278 109.966 182.888 110.22C182.142 103.582 182.123 97.0494 183.6 90.4859C183.914 89.0872 185.277 83.5014 186.531 83.1068C187.785 82.7122 190.178 83.1814 191.679 83.0367C204.341 81.8134 204.764 59.3825 192.173 61.5748C186.573 62.5481 188.055 72.7244 182.674 72.8911C176.277 73.0883 176.424 65.797 178.082 61.851C174.016 59.1195 171.917 55.2655 173.394 50.5917V50.5873ZM111.176 77.3325V61.11C105.985 63.2321 105.909 70.4401 108.241 74.5615C108.484 74.9956 110.483 78.0559 111.176 77.3325ZM152.853 90.5692C150.012 90.898 145.595 94.4231 145.083 97.0494C144.988 97.5448 144.741 97.7904 145.353 98.1762C149.186 98.8602 153.332 97.6545 156.567 95.7604L154.097 90.521C153.684 90.3894 153.266 90.5253 152.857 90.5736L152.853 90.5692ZM137.294 97.0626C116.98 97.6018 95.1804 109.909 89.8041 128.626C93.8601 127.434 99.4027 124.935 103.706 125.662C108.697 126.504 109.804 131.362 106.902 134.76C110.649 134.392 115.384 135.142 116.201 139.131C116.923 142.661 113.622 144.814 113.637 145.511C113.641 145.756 114.644 146.366 114.872 146.918C118.267 155.139 107.762 156.81 103.102 161.062C122.338 168.941 146.061 170.296 165.785 163.035C166.517 162.764 172.501 160.414 171.964 159.76C167.818 158.094 160.38 154.271 160.599 149.483C160.665 148.014 162.446 146.138 162.389 145.577C162.304 144.687 160.342 143.095 160.11 141.521C159.374 136.523 165.021 134.054 169.59 135.199C167.998 132.542 166.878 130.687 169.11 127.964C173.299 122.865 184.436 128.341 189.532 129.937C189.247 124.386 186.801 118.621 182.874 114.386C182.152 113.609 179.164 110.453 178.158 111.102C176.381 115.981 169.77 118.06 164.626 116.762C163.629 116.508 161.136 115.135 160.794 115.157C160.537 115.175 158.899 116.617 158.139 116.959C153.888 118.875 148.322 118.489 145.738 114.464C145.292 113.767 144.494 111.251 144.332 111.154C143.943 110.917 141.397 110.909 139.967 110.141C134.814 107.384 135.147 101.517 137.284 97.0538L137.294 97.0626ZM146.963 107.866C144.627 105.77 145.486 104.051 144.665 102.754C144.251 102.105 140.053 101.144 139.426 99.6932C136.947 105.183 140.642 109.028 146.826 108.646C147.604 109.133 146.688 112.864 149.941 114.535C152.824 116.012 155.997 115.043 158.666 113.71C157.602 113.237 155.959 109.97 155.745 109.843C154.42 109.058 150.383 110.931 146.963 107.861V107.866ZM192.221 122.115C190.52 122.637 192.202 125.483 192.335 126.701C192.496 128.17 192.088 130.13 192.482 131.388C192.752 132.248 195.773 134.523 196.799 134.282C197.122 134.208 199.582 132.011 199.744 131.691C201.316 128.587 195.987 129.679 194.538 128.175C192.881 126.452 194.628 124.452 195.232 122.72C195.065 121.94 192.957 121.887 192.216 122.115H192.221ZM204.73 141.78L207.043 125.851C206.73 124.983 199.307 122.672 198.39 122.957L196.661 126.425C201.377 126.855 205.177 130.003 201.444 134.107C201.444 134.515 205.082 135.9 204.655 138.811C204.507 139.829 202.945 141.166 204.726 141.78H204.73ZM87.8996 124.246C80.652 123.825 85.6104 126.807 84.8647 129.073C83.8863 132.051 76.9759 131.06 79.5881 134.756C80.9179 133.392 84.784 132.055 85.7576 130.814C86.9022 129.363 87.0257 126.022 87.8996 124.246ZM274.556 192.639C275.834 191.306 263.248 171.191 261.453 168.564C249.161 150.549 232.733 134.054 209.964 127.749L207.552 145.059C212.111 153.284 213.621 161.825 214.704 170.941C215.379 176.614 214.923 182.98 216.813 188.286L237.34 203.07C249.304 198.449 261.809 194.919 274.552 192.635L274.556 192.639ZM111.01 152.592C113.01 150.54 113.242 146.914 109.543 147.023C104.513 147.172 95.2707 152.723 91.4569 155.801C90.2695 156.757 87.0352 160.545 86.4842 160.856C83.7201 162.43 83.7866 159.453 85.5439 157.358C89.0584 153.175 97.2892 147.856 102.637 145.954C106.351 144.63 114.881 144.643 112.867 139.123C111.623 135.703 102.214 138.18 99.4027 139.026C93.7509 140.727 87.4531 144.358 83.1312 148.12C82.243 148.891 79.8446 152.456 78.6952 152.276L77.5126 151.114C77.0566 149.487 83.5254 144.033 85.0879 142.911C90.317 139.145 94.6722 138.285 100.243 135.856C106.166 133.278 108.764 127.548 99.1794 128.736C92.0506 129.617 81.0462 136.444 76.254 141.332C68.0185 149.724 66.7457 158.708 65.5773 169.621C64.8364 176.535 65.1689 183.629 63.877 190.412L15.7084 229.223L14.2883 229.022C14.2361 228.671 14.2266 228.316 14.2883 227.965C14.7158 225.742 25.1455 217.227 27.5677 215.21C33.5615 210.221 40.0492 205.692 46.0857 200.746C43.8107 199.444 28.4084 191.578 27.164 192.253C17.5654 207.608 6.06235 225.308 3.83013 243.28C1.41267 262.734 15.4947 282.648 38.7478 275.953C65.2211 268.328 74.0408 230.455 87.3296 211.19C90.0036 207.314 91.2574 207.792 94.0548 205.122C101.687 197.844 95.1567 188.022 92.6157 180.591C89.6331 171.875 92.9102 164.693 100.229 159.085C103.036 156.932 109.039 154.587 110.991 152.583L111.01 152.592ZM240.361 205.363C245.727 210.164 251.849 214.184 257.463 218.722C259.534 220.397 271.184 229.535 270.757 231.433C270.629 231.999 269.413 232.367 268.867 231.871C251.137 216.85 231.717 203.6 213.56 189.097C210.582 174.764 212.909 155.727 202.351 143.761C197.958 138.781 190.734 133.506 184.298 131.051C181.748 130.077 170.183 126.061 171.01 131.441C171.594 135.225 178.423 136.518 181.311 137.755C185.989 139.754 191.655 142.959 195.255 146.366C195.692 146.782 198.414 149.755 198.485 149.979C198.889 151.246 198.167 152.302 196.661 151.645C195.697 151.224 191.142 146.695 189.499 145.541C185.723 142.898 180.698 140.219 176.134 139.026C172.933 138.189 164.441 136.115 163.24 140.122C161.891 144.621 169.495 144.893 172.553 145.84C177.896 147.493 185.391 152.066 189.295 155.814C190.178 156.665 193.888 160.427 191.147 161.041C190.174 161.26 182.94 154.446 181.135 153.262C178.319 151.412 171.665 147.913 168.359 147.523C161.601 146.721 163.078 151.517 167.253 154.24C172.064 157.375 176.78 158.519 180.703 163.307C192.581 177.789 175.716 186.058 180.48 199.466C182.608 205.459 186.516 205.464 189.461 209.151C192.406 212.838 195.403 221.072 197.83 225.54C209.803 247.59 232.842 290.474 266.938 277.913C292.737 268.411 285.637 236.387 280.108 217.1C278.109 210.129 275.592 203.315 272.875 196.568L272.433 196.27C261.462 198.365 250.686 201.399 240.346 205.363H240.361ZM25.6869 187.812L48.7264 198.348L60.8564 188.939C62.5187 177.715 61.6448 165.206 64.9694 154.153C65.9145 151.018 67.6813 148.299 68.8972 145.287C56.4917 153.271 45.1928 164.057 35.6702 174.895C34.5589 176.163 25.1693 187.172 25.6822 187.812H25.6869ZM142.385 174.974C143.069 174.466 143.705 172.971 144.912 172.273C149.447 169.652 152.387 173.979 156.039 173.348C159.274 172.791 158.01 167.885 164.142 168.512C165.32 168.63 166.046 169.253 167.011 169.384C171.779 170.046 169.903 166.337 172.168 164.987C173.836 163.996 175.868 165.298 177.179 163.921C174.548 160.26 172.705 163.272 169.433 164.653C148.412 173.532 121.388 172.642 100.951 162.816C99.9251 162.965 97.1657 165.565 97.8686 166.328C100.989 166.872 104.024 165.026 107.244 166.227C110.084 167.284 110.108 172.225 112.449 172.392C114.739 172.212 116.486 170.366 118.928 170.432C122.366 170.528 123.796 174.501 125.672 174.676C128.517 174.944 130.469 170.322 135.095 172.523C137.156 173.506 139.284 177.263 142.38 174.97L142.385 174.974ZM178.613 166.78C176.747 167.012 173.028 165.776 173.394 168.529C173.532 168.665 176.723 167.749 177.317 167.547C177.816 167.376 178.727 167.398 178.613 166.784V166.78ZM120.196 175.097L119.987 173.764C117.759 172.423 115.66 174.882 113.238 174.948C107.458 175.106 108.303 169.047 105.487 168.257C103.254 167.63 98.714 170.735 95.9783 168.082C94.544 169.845 102.836 174.027 104.352 174.597C109.889 176.68 114.482 176.921 120.196 175.093V175.097ZM180.988 169.397C180.608 168.349 180.466 168.709 179.73 168.884C177.602 169.393 173.926 170.292 171.96 170.932C171.39 171.116 170.663 171.414 170.539 172.028C174.192 171.708 177.659 170.765 180.988 169.397ZM165.315 171.164C160.794 169.643 161.411 172.8 159.378 174.667C154.591 179.074 149.694 172.589 146.047 174.637C145.344 175.031 144.874 176.259 144.175 176.855C141.815 178.881 138.566 178.6 136.097 176.86C135.436 178.508 133.005 178.736 132.136 176.987C131.656 175.163 134.624 174.873 132.767 174.645C131.884 174.685 128.108 176.447 128.745 177.289C137.417 182.117 153.161 182.621 160.813 175.992C162.252 174.746 162.755 173.44 163.876 172.243C164.379 171.704 165.353 171.839 165.31 171.164H165.315ZM121.62 176.86C114.715 179.157 107.548 178.451 101.046 175.465L94.5535 171.16C94.3493 171.984 95.0569 172.199 95.4986 172.694C100.234 177.969 110.464 180.179 117.531 179.004C118.861 178.784 121.63 178.491 121.616 176.86H121.62ZM181.938 171.598C177.825 173.238 173.536 173.896 169.115 174.444L166.27 178.609L181.895 175.062L181.938 171.598ZM124.95 176.86C124.404 177.373 126.907 179.346 127.362 179.67C137.597 187.071 159.606 185.707 166.255 174.444C165.648 173.891 165.776 173.571 165.106 174.251C163.904 175.474 162.978 176.829 161.52 177.96C152.059 185.308 134.097 184.493 124.95 176.86ZM143.943 186.51C136.491 186.589 128.892 184.655 123.691 179.56C118.704 181.665 113.727 182.165 108.322 181.248L127.125 194.845L143.943 186.51ZM178.139 185.629C174.952 186.983 172.04 188.685 168.758 189.899C161.919 192.433 152.938 194.625 145.6 195.266C141.449 195.629 135.888 195.134 131.855 195.73C130.198 195.976 129.405 197.418 127.548 197.493C124.893 197.602 123.682 195.415 121.625 194.608C119.569 193.801 116.339 193.56 114.021 192.859C108.735 191.249 103.164 189.71 99.056 186.067C98.7235 186.768 100.186 191.565 100.547 191.806C103.473 193.753 107.548 188.834 111.376 193.551C115.565 198.716 117.403 204.815 116.862 211.273C116.7 213.194 113.751 221.116 118.044 220.735C121.264 220.45 118.932 213.904 118.776 212.15C118.419 208.086 119.778 201.54 124.304 199.733C127.5 198.457 128.146 200.198 130.288 200.01C133.489 199.733 136.51 196.134 140.376 196.121C144.242 196.107 147.756 199.545 151.072 199.049C154.296 198.567 155.075 195.397 157.469 193.959C162.389 190.995 166.607 194.731 170.055 193.297C171.371 192.749 172.092 189.947 173.883 188.939C175.84 187.834 178.319 188.812 178.134 185.633L178.139 185.629ZM176.714 190.89C174.234 190.609 174.035 193.529 172.643 194.801C168.977 198.142 164.075 194.433 160.219 195.612C157.403 196.476 156.581 199.4 154.372 200.733C148.616 204.197 144.56 198.159 139.473 198.799C137.17 199.089 134.71 201.755 132.197 202.189C128.213 202.877 125.719 200.167 123.311 203.631C122.827 204.328 122.437 204.916 122.57 205.797C140.675 209.322 160.371 207.112 176.234 198.124L176.714 190.894V190.89ZM113.546 203.162C114.406 202.333 109.6 195.09 108.507 194.446C106.437 193.218 103.155 195.292 100.723 194.836C100.794 195.476 100.505 196.397 100.832 196.936C101.336 197.769 113.01 203.688 113.546 203.166V203.162ZM51.8087 289.097C57.736 286.581 62.7087 281.793 66.2517 276.786C74.7104 264.825 77.8308 249.238 78.8709 235.173L67.2016 255.745C65.1499 258.257 63.5683 261.142 61.4976 263.632C59.7593 265.728 54.8674 269.613 53.9745 271.156C53.1338 272.616 52.4832 279.351 52.2789 281.429C52.032 283.959 51.88 286.559 51.804 289.097H51.8087ZM243.206 289.097C243.51 288.782 242.745 281.613 242.009 280.78C234.243 277.715 227.817 273.015 221.843 267.613C225.652 276.887 233.037 285.406 243.206 289.093V289.097Z" fill="#2A5BAE"/>
<path d="M106.764 240.968C109.086 240.486 110.777 241.288 112.814 241.328C138.371 241.806 163.989 240.758 189.546 241.521C190.871 242.135 191.265 247.466 191.436 248.983C192.989 262.746 193.141 286.54 178.147 294.147C165.115 300.759 131.869 300.645 118.528 294.805C103.786 288.351 103.235 270.318 103.596 257.331C103.672 254.639 103.838 243.095 105.472 241.525C105.766 241.24 106.341 241.056 106.768 240.968H106.764ZM187.641 243.937L108.127 243.915C107.523 244.011 107.229 248.838 107.376 249.641H188.121L187.646 243.937H187.641ZM188.591 252.267C167.209 253.109 145.671 252.53 124.213 252.727L106.897 251.829C106.949 264.298 105.097 285.05 119.397 291.81C130.853 297.225 163.011 297.23 174.661 292.244C190.277 285.558 188.363 265.631 188.591 252.267Z" fill="#2A5BAE"/>
<path d="M171.494 18.1389C171.679 14.2894 178.499 16.1352 180.537 17.9022C181.886 19.0684 183.861 22.7382 181.701 23.8343C179.207 19.1956 177.63 17.3366 171.489 18.1389H171.494Z" fill="#2A5BAE"/>
<path d="M192.637 38.3071C197.301 39.4865 198.246 45.8045 194.527 48.3826L193.478 47.2996C194.38 45.9054 194.584 44.156 194.185 42.5644C193.748 40.8194 190.59 39.9075 192.637 38.3071Z" fill="#2A5BAE"/>
<path d="M135.807 137.022L136.368 140.617C132.521 143.09 132.763 135.294 135.807 137.022Z" fill="#2A5BAE"/>
<path d="M110.696 118.109C110.958 120.433 108.497 121.511 106.431 120.722C106.237 118.061 108.35 117.973 110.696 118.109Z" fill="#2A5BAE"/>
<path d="M117.218 130.011C117.617 129.954 117.978 129.831 118.31 130.151L118.704 131.405C114.933 136.447 113.542 130.528 117.218 130.011Z" fill="#2A5BAE"/>
<path d="M131.12 120.737C131.557 122.162 130.369 125.363 128.251 124.043C126.765 123.114 129.253 119.948 131.12 120.737Z" fill="#2A5BAE"/>
<path d="M123.387 107.646C124.204 107.532 124.46 107.642 124.945 108.247C125.377 109.694 122.57 111.391 121.131 110.444C119.744 109.611 122.546 107.765 123.387 107.646Z" fill="#2A5BAE"/>
<path d="M148.493 127.338C150.706 126.746 152.468 130.429 150.825 130.819C149.504 131.31 146.569 127.851 148.493 127.338Z" fill="#2A5BAE"/>
<path d="M164.251 67.5366C163.344 68.1679 162.38 68.0671 161.511 67.4357C160.746 65.0725 160.134 60.6047 156.277 61.6877C153.147 62.5646 153.945 67.1858 152.672 67.5979C148.236 69.0229 149.105 61.3632 153.109 59.2236C159.597 55.7599 166.351 61.3939 164.251 67.5366Z" fill="#2A5BAE"/>
<path d="M135.812 67.5837C130.901 68.785 133.718 61.954 129.472 61.9058C124.936 61.8532 126.223 67.5267 125.363 68.0221L122.528 67.4653C119.431 55.1976 139.184 55.5264 135.812 67.5837Z" fill="#2A5BAE"/>
<path d="M142.45 63.807C143.671 64.4734 142.683 69.4147 142.184 70.6642C140.57 74.7111 134.661 76.4167 143.946 78.2143C144.127 81.7657 137.938 79.4156 136.799 77.5742C134.367 73.6413 139.188 72.1243 140.175 69.2437C140.826 67.3496 140.622 65.6616 140.627 63.7368L142.455 63.8026L142.45 63.807Z" fill="#2A5BAE"/>
<path d="M187.643 76.4567C185.994 73.142 193.584 65.0176 196.681 67.0169C198.903 68.4507 193.883 69.652 192.848 70.5157C190.288 72.6554 190.943 76.7154 187.647 76.4567H187.643Z" fill="#2A5BAE"/>
</svg>
