<svg width="314" height="364" viewBox="0 0 314 364" fill="none" xmlns="http://www.w3.org/2000/svg">
<path d="M251.124 44.8152C264.179 50.1135 267.91 69.2295 258.145 79.7477C257.394 80.5594 254.406 82.2441 254.3 82.7417C253.965 84.3041 255.181 88.3194 254.806 91.4181C253.328 103.63 242.118 109.137 231.659 109.251L235.611 132.024C254.03 132.461 273.723 137.061 288.591 149.115C322.955 176.969 317.109 244.084 302.266 282.011C304.797 298.814 308.602 316.28 310.006 333.214C310.349 337.316 311.508 358.335 310.071 360.273C308.553 362.324 305.556 361.538 304.977 358.667C303.907 353.377 305.132 343.967 304.862 338.023C304.642 333.231 303.695 327.95 303.262 323.123C292.485 321.569 282.043 319.501 272.792 313.033C248.927 323.682 220.727 324.319 195.058 323.202C188.771 322.931 181.015 321.063 175.006 321.089C173.732 321.089 166.433 323.673 165.935 324.546L167.421 352.452C166.882 355.385 164.082 355.62 161.763 355.734C160.963 356.624 164.612 366.322 157.362 362.455L156.554 357.087L127.088 364C98.6432 361.015 70.0184 356.904 41.7365 352.129C39.3198 351.719 25.9137 349.772 25.2279 348.664C25.2197 347.215 24.6237 345.705 24.5992 344.282C24.0848 304.156 31.4247 247.942 41.0915 209.073C43.4511 199.585 44.7002 203.714 52.9954 203.783C54.6773 202.753 54.5956 196.05 55.6488 194.173C57.2491 191.328 65.4136 194.793 68.4998 193.711C65.9933 185.924 66.973 176.009 74.6232 172.212C75.7009 171.679 77.3175 171.862 78.0441 171.374C79.13 170.632 79.9628 168.24 82.755 167.07C86.5025 165.508 88.3967 167.21 90.6746 166.581C92.4055 166.101 93.8751 163.587 96.749 163.282C99.9495 162.95 101.444 165.01 103.256 165.167C106.187 165.429 107.755 161.746 113.625 164.504C120.516 167.734 119.373 173.172 121.969 178.426C122.884 180.277 125.415 181.351 126.778 182.983C129.097 185.767 129.334 188.36 130.599 191.354C130.942 192.174 130.297 192.602 131.946 192.323C131.954 191.458 132.069 190.542 132.461 189.774C142.046 171.086 150.586 156.561 168.85 146.27C174.687 142.979 180.501 141.268 186.722 139.051L185.636 126.621C157.085 123.165 151.312 89.4628 155.917 64.2454C134.085 63.7479 130.64 31.6435 151.304 25.3937C150.414 1.50303 175.602 -7.23448 191.114 8.11069C202.986 -6.06483 222.466 -0.565693 229.079 16.1412C233.284 16.0801 236.174 15.6174 240.453 17.1275C251.222 20.9158 255.818 33.9304 251.132 44.8064L251.124 44.8152ZM225.944 22.6005C222.556 9.0534 207.835 -0.530773 196.699 9.9001C194.715 11.7593 193.066 15.8618 190.551 15.8618C188.567 15.8618 186.771 12.1434 185.056 10.5897C176.72 3.03927 163.037 4.83742 158.154 15.7658C155.991 20.6016 156.823 23.8574 156.244 28.955C151.615 31.3205 146.904 32.4028 144.373 37.7274C139.441 48.1059 145.948 58.3098 156.276 59.2176C156.938 59.0867 159.101 53.1075 159.085 52.1124C159.044 49.8429 152.986 42.6679 156.823 39.2637C160.122 36.3483 160.057 43.3487 160.947 45.3564C164.114 52.4616 175.651 50.8118 176.614 45.1905C176.957 43.2003 175.586 37.2299 178.892 37.2299C181.57 37.2299 180.941 41.1404 181.448 42.825C184.101 51.5974 192.617 52.6536 198.34 46.2729C199.94 44.4922 200.316 41.3673 202.839 41.3324C206.145 41.2887 204.741 46.2729 206.276 49.5025C207.558 52.191 210.26 54.0589 213.126 53.8407C215.42 53.6661 223.03 47.9662 222.425 53.413C222.082 56.4855 217.053 56.8521 216.253 60.588C215.649 63.4336 215.796 67.4838 218.033 69.4652C219.47 70.277 221.013 66.7767 222.278 65.642C234.648 54.5565 248.65 64.516 246.494 81.1443C245.474 89.0177 237.252 96.7164 229.716 96.0967L231.08 103.63C240.101 104.59 249.874 98.759 249.842 88.1273C249.842 86.015 248.568 82.698 248.821 81.4673C249.164 79.7913 253.214 77.164 254.651 75.3309C260.978 67.2655 258.839 55.3333 250.226 50.2794C248.625 49.3367 245.237 49.2057 244.682 47.1457C245.27 43.2702 247.882 39.9445 247.882 35.519C247.89 28.1519 241.816 21.9632 235.129 21.3871C231.57 21.0816 229.349 23.2289 225.92 22.6005H225.944ZM211.55 58.7637C206.725 57.9781 203.467 55.4905 200.912 51.1086C193.858 57.4021 185.416 57.7425 178.892 50.4278C174.875 55.2548 168.695 56.8347 163.037 54.5565C155.24 80.2278 158.881 124.579 193.066 120.939C197.001 120.52 201.042 118.172 204.316 117.692C205.239 117.561 206.08 117.29 206.782 118.215C208.701 121.131 200.397 129.65 198.307 131.387C196.217 133.124 193.58 134.049 191.629 136.013C189.188 151.114 196.381 154.929 209.15 151.978C214.367 150.774 229.177 142.717 231.357 137.611C232.019 136.057 229.12 124.753 228.639 121.838C227.553 115.265 224.279 99.4573 224.581 93.7486C224.622 92.9543 224.989 92.0727 225.291 91.3482C234.011 92.0902 242.91 85.919 241.963 75.7587C241.236 67.9377 234.035 63.7566 227.561 67.8155C222.67 70.8793 222.425 78.7526 215.273 73.8296C210.799 70.7483 210.554 63.8002 211.558 58.7725L211.55 58.7637ZM249.801 139.025L240.526 137.707C227.553 157.888 224.075 183.096 221.829 207.083L220.335 208.261C205.647 208.549 190.959 208.637 176.271 208.916C174.247 208.96 169.944 210.81 168.523 208.261C168.033 207.388 168.703 199.978 168.858 198.215C170.377 180.958 174.345 163.64 180.509 147.666C178.402 147.553 171.65 150.756 170.499 152.188C169.168 153.837 166.89 162.165 166.098 164.792C161.102 181.324 157.86 199.279 156.562 216.554C162.294 209.422 171.96 213.638 169.136 223.458C168.009 227.369 161.853 228.364 158.873 226.164C157.754 225.344 158.334 223.703 156.562 224.174L160.408 259.168L162.384 259.464C162.906 258.906 159.967 247.096 162.996 243.857C164.759 241.972 172.679 243.045 175.683 242.888C188.461 242.216 201.067 242.434 213.885 242.199C216.922 242.138 224.442 239.851 226.377 243.325C227.814 245.9 226.728 254.166 227.136 254.629L241.726 250.509C243.18 248.152 239.62 230.974 239.408 226.627C239.146 221.302 239.571 215.969 240.093 210.688C239.799 207.738 236.264 209.894 234.835 207.973C233.325 205.948 235.766 187.557 236.305 183.795C238.599 167.803 242.828 153.34 249.793 139.033L249.801 139.025ZM308.063 223.476C309.508 220.551 308.153 218.116 308.079 215.506C307.222 183.55 299.155 157.119 269.379 144.733C266.865 143.686 256.814 139.767 254.977 140.718C253.908 141.277 250.421 149.246 249.678 151.009C242.624 167.681 240.518 186.047 238.779 204.089H243.318C243.743 203.609 243.661 193.693 244.388 191.79C245.049 190.071 247.425 190.263 248.176 191.624C249.972 194.854 246.519 217.915 247.841 219.329C267.967 219.434 288.403 218.221 308.055 223.484L308.063 223.476ZM186.983 145.938C185.93 144.594 184.754 148.714 184.558 149.229C178.076 165.892 174.491 186.143 173.389 204.098L217.355 203.33C218.89 183.733 222.776 164.818 229.724 146.645C229.341 146.209 224.613 150.329 223.683 150.913C216.588 155.382 208.627 158.516 200.242 157.748C194.152 157.189 187.179 153.261 186.983 145.955V145.938ZM153.256 201.942L163.028 157.713C149.157 167.105 141.311 183.864 133.987 199.026L135.514 200.632L153.256 201.942ZM100.211 168.807C89.0988 163.762 87.6047 194.828 92.234 196.399C97.7451 198.276 96.1448 186.649 96.4224 183.751C96.9449 178.313 98.7411 173.896 100.211 168.807ZM116.401 177.091C115.054 166.826 106.653 164.609 102.685 175.232C101.362 178.784 98.4064 194.173 104.326 193.562C109.829 192.995 106.906 185.697 107.379 182.328C108.016 177.789 112.474 175.04 116.393 177.091H116.401ZM85.7922 170.972C77.8318 172.273 79.0891 197.176 84.3634 197.202C85.4901 197.202 85.8249 196.451 85.9963 195.421C86.4127 192.916 85.1064 187.338 85.3513 183.681C85.6044 179.832 86.8128 175.616 87.9068 171.941C87.2618 170.911 86.9271 170.789 85.7922 170.972ZM76.2642 177.091C74.9416 175.52 72.2228 182.197 72.0187 183.28C71.0961 188.246 73.178 194.871 77.5542 197.167C76.2234 190.324 74.6477 184.17 76.2642 177.091ZM126.778 199.245C129.399 192.951 117.699 177.571 112.49 181.543C109.037 184.17 116.058 188.456 117.348 190.289C118.997 192.654 120.091 196.373 121.038 199.149L126.778 199.245ZM115.756 198.546C116.654 197.621 113.217 192.419 112.196 191.642L107.347 197.516L115.756 198.546ZM67.2016 198.555L59.5106 197.944L58.1553 204.045C60.8496 205.154 63.7317 204.726 66.5566 204.779L67.2016 198.546V198.555ZM117.062 203.391C113.045 203.53 109.037 202.387 105.077 202.02C98.5697 201.409 92.0054 201.497 85.6779 201.366C80.967 201.27 76.2071 201.924 72.0677 199.236L71.1777 205.381L116.768 210.854C118.63 210.566 116.401 205.04 117.07 203.391H117.062ZM148.136 206.166L121.585 204.08L121.871 211.046L139.351 213.045C140.723 213.062 149.426 207.371 148.136 206.166ZM136.437 217.994L46.4638 207.825C36.1438 252.464 30.4042 298.752 29.302 344.64L123.447 359.051L126.133 320.758C122.761 317.938 123.667 313.81 122.582 311.374C122.051 310.187 118.605 308.791 117.446 305.788C116.287 302.785 117.479 300.664 116.956 298.744C116.638 297.565 114.45 295.724 113.796 293.768C111.421 286.628 116.376 286.654 116.964 283.905C117.193 282.857 116.311 281.557 116.515 280.055C117.348 274.041 125.423 273.369 129.946 273.23L136.437 217.985V217.994ZM154.611 255.318L151.059 211.02L145.654 216.344C146.667 221.983 146.03 227.779 146.21 233.505C146.25 234.814 146.814 236.167 146.879 237.634C147.026 241.125 145.818 251.137 148.177 252.865C148.528 253.118 154.39 255.589 154.619 255.318H154.611ZM161.175 222.681C164.572 224.977 168.123 217.846 163.249 217.4C160.065 217.112 159.869 221.8 161.175 222.681ZM134.543 273.317C137 272.33 143.107 273.797 143.613 270.89C144.397 266.43 140.437 264.091 140.331 259.796C140.25 256.357 142.617 255.091 142.985 252.246L141.654 218.64L134.543 273.326V273.317ZM135.514 310.702C139.139 311.139 144.013 310.702 147.818 310.702C149.026 310.702 149.965 314.822 145.834 315.503C139.613 316.524 133.44 314.7 127.423 313.478C128.231 316.201 130.117 317.127 132.371 318.218C140.935 322.355 154.701 321.875 163.682 319.361C167.258 318.366 171.413 315.573 175.014 315.485C182.509 315.311 192.364 317.406 200.242 317.65C223.348 318.366 258.757 316.55 278.499 302.951C300.535 287.772 304.699 255.65 308.12 230.066C307.9 227.84 301.842 227.508 299.792 227.15C282.63 224.165 265.199 224.933 247.866 224.855L246.568 249.784C250.626 248.937 254.153 252.001 249.621 254.768L176.141 274.556C173.446 274.696 169.356 270.463 166.874 268.874C164.139 267.128 148.341 256.977 146.577 257.439C142.821 258.417 148.349 265.976 149.459 267.416C151.272 269.764 156.285 272.723 153.672 275.429C150.308 278.912 129.93 277.306 124.01 279.017C113.699 281.993 131.718 286.864 134.885 287.161C137.653 287.423 147.459 285.939 148.03 289.002C148.455 291.254 146.169 291.831 144.601 292.014C138.755 292.695 131.848 291.665 126.133 290.286C123.986 289.771 120.116 286.986 118.532 288.723C114.474 293.166 125.374 297.565 128.24 298.421C131.105 299.276 135.147 300.158 138.127 300.306C141.515 300.481 144.266 299.154 147.434 300.385C147.72 303.064 147.9 304.156 145.271 304.505C137.523 305.517 128.827 303.998 121.61 301.013C120.655 306.914 131.424 310.205 135.53 310.702H135.514ZM166.27 247.008V261.891C168.948 263.96 173.569 268.621 176.859 268.437L223.266 255.641L222.605 246.319L166.27 247.017V247.008ZM302.25 317.615L298.045 289.928C293.399 299.014 286.158 305.011 278.295 310.685C285.953 314.543 293.775 316.838 302.25 317.615ZM143.613 325.925C138.886 326.396 134.583 323.9 130.011 323.158L128.721 354.302L143.27 337.683L143.613 325.925ZM161.085 325.244L147.491 326.623C147.826 330.141 146.389 335.003 149.1 337.718L162.384 346.7L161.085 325.244ZM159.142 350.174L145.859 341.358L131.946 357.768C140.454 355.743 149.884 354.171 158.203 351.562C159.142 351.265 159.33 351.954 159.142 350.174Z" fill="#2A5BAE"/>
<path d="M11.4221 180.652C12.4508 186.876 14.2307 191.135 20.2888 192.977L20.5745 195.081C12.7774 195.098 13.5612 203.714 11.169 206.838C8.77681 209.963 8.58902 204.473 7.9277 202.727C5.67429 196.722 4.85784 198.066 0.914381 194.993C-2.22079 192.549 3.56785 191.947 5.36404 190.254C7.68276 188.063 8.80946 183.812 8.94826 180.582L11.4139 180.652H11.4221ZM10.8506 197.857L13.4142 193.448L10.5403 189.555L7.02144 194.051C8.00118 194.636 9.69123 198.721 10.8506 197.857Z" fill="#2A5BAE"/>
<path d="M74.8269 251.355C116.507 246.048 116.923 318.549 75.9536 314.84C41.9484 311.767 40.8217 255.685 74.8269 251.355ZM75.4719 256.209C46.5287 259.761 48.0637 307.237 75.9455 310.004C110.759 313.452 110.898 251.862 75.4719 256.209Z" fill="#2A5BAE"/>
<path d="M176.133 95.5642C177.725 93.9668 193.393 91.6013 196.495 89.3406C202.137 90.1174 200.071 98.916 197.899 102.556C194.495 108.265 186.396 109.731 181.195 106.1C179.097 104.633 173.586 98.113 176.133 95.5642ZM196.054 94.0192L180.534 99.2041C186.632 107.226 195.23 104.328 196.054 94.0192Z" fill="#2A5BAE"/>
<path d="M176.361 69.116C182.272 67.1694 176.01 83.1431 174.687 85.3515C175.577 87.0536 178.606 85.753 179.17 87.5075C180.795 92.5963 170.499 90.9117 170.099 86.0672C169.797 82.3924 171.667 81.7116 172.663 79.0493C173.308 77.3297 175.594 69.3691 176.353 69.116H176.361Z" fill="#2A5BAE"/>
<path d="M192.022 67.1782C193.573 68.8977 193.401 76.5005 191.091 77.3035C183.204 79.3111 186.87 61.4521 192.022 67.1782Z" fill="#2A5BAE"/>
<path d="M169.397 67.1433C170.989 68.1558 171.609 75.8196 168.858 77.0766L166.719 77.3123C162.171 74.9991 164.474 64.0184 169.397 67.1433Z" fill="#2A5BAE"/>
<path d="M236.787 71.9355L236.231 75.0167C229.732 74.0303 230.778 83.3003 225.895 81.5109C223.707 78.1067 232.917 68.6971 236.787 71.9442V71.9355Z" fill="#2A5BAE"/>
<path d="M232.1 214.013C238.166 220.368 229.104 230.877 222.58 224.54C216.057 218.203 225.487 207.083 232.1 214.013ZM225.364 221.223C227.52 223.572 231.79 219.748 228.818 217.182C226.197 214.921 223.095 218.745 225.364 221.223Z" fill="#2A5BAE"/>
</svg>
