<svg width="338" height="395" viewBox="0 0 338 395" fill="none" xmlns="http://www.w3.org/2000/svg">
<path d="M217.233 126.114C217.372 127.917 218 132.572 218.478 134.231C220.433 141.008 222.966 139.432 228.554 140.338C232.731 141.018 239.152 142.229 242.818 144.108C248.017 146.776 250.395 147.476 255.766 149.614C290.188 163.333 311.751 196.031 326.021 226.664C326.593 229.666 322.955 229.223 322.844 230.125C330.854 250.565 339.424 275.1 337.797 297.111C336.008 321.312 313.534 337.926 287.789 330.824L291.666 368.682C291.377 372.029 293.338 392.892 291.71 393.948C290.732 394.581 288.3 394.35 288.338 392.882C287.622 376.479 287.261 359.911 284.722 343.704C271.019 339.265 261.743 328.774 256.027 316.749C254.172 312.845 253.078 307.566 251.239 304.193C249.667 301.319 246.179 297.75 244.229 294.727C234.597 279.771 226.976 263.816 219.028 248.052C214.317 244.421 210.118 241.377 207.485 236.068C188.027 246.62 164.175 249.339 142.257 244.818C141.318 248.768 143.757 253.619 143.134 257.198C142.407 261.422 137.83 264.136 134.175 260.809C129.309 256.385 135.308 248.155 133.647 242.753C129.726 240.837 125.604 239.297 121.688 237.36C120.544 236.794 118.033 234.693 117.244 235.28C116.905 235.532 114.872 240.775 113.356 242.49C111.151 244.993 108.074 245.812 106.241 248.253C103.958 251.296 97.9919 261.633 97.0865 265.001C96.0367 268.91 96.6199 275.667 96.1478 280.096C93.6093 303.966 85.9161 333.435 60.0093 344.013C59.4094 351.898 59.2261 359.757 58.9261 367.641C58.6261 375.526 59.2816 385.399 58.404 392.393C58.0374 395.308 54.7157 394.952 54.0713 391.723C52.916 385.924 54.3435 379.136 54.5102 373.332C54.7768 364.201 54.8768 355.147 55.6044 346.022C56.2377 338.039 57.4208 330.02 58.3706 322.069C29.3643 340.918 -1.51952 320.302 0.0579992 289.371C1.1967 267.04 16.322 243.154 28.3311 224.393L25.2483 220.87C41.7845 196.979 63.6975 174.725 90.3487 160.357C86.7049 155.66 90.6931 151.509 96.1478 151.076C94.7647 148.738 93.7037 146.678 95.8367 144.356C98.4307 141.523 102.48 143.727 104.485 142.589C104.93 142.342 107.379 137.727 108.14 136.708C112.795 130.445 118.644 125.074 125.515 120.887C129.092 118.708 132.981 117.225 136.663 115.237C132.586 109.109 130.964 102.187 130.498 95.0231C120.838 91.5983 118.777 79.882 123.921 72.2959C115.217 68.9741 113.012 60.6104 118.922 53.7557C98.9251 43.368 112.434 13.8067 134.503 17.9937C137.73 0.977909 162.109 -6.49997 174.824 6.84383C179.034 3.57354 182.261 0.730708 188.083 0.189951C199.181 -0.84006 208.846 3.23364 213.117 13.0187C219.989 10.042 227.004 12.205 231.692 17.422C235.53 21.6914 235.664 25.1677 235.819 30.5907C249.956 33.9125 257.044 51.4073 246.684 61.728C257.282 68.4076 258.221 83.2707 245.601 88.5598C250.861 98.5046 242.424 109.572 230.587 108.357C229.965 114.681 223.527 117.503 217.233 116.576V126.104V126.114ZM173.513 11.8909C172.824 11.4016 171.713 8.88325 170.791 7.97169C162.515 -0.273554 144.706 3.80014 139.729 13.5801C138.324 16.3457 138.846 19.1885 137.241 21.5833C131.709 21.4854 127.404 20.4657 122.271 23.1489C114.078 27.4286 109.807 38.9905 115.328 46.5147C116.728 48.4202 123.071 52.4527 123.277 53.0862C123.854 54.8939 120.11 57.4843 119.588 59.7967C118.211 65.8686 124.276 71.7294 130.492 68.6188C130.77 65.3073 131.559 62.0164 132.397 58.8028C132.77 57.3762 134.908 52.6896 134.819 51.948C134.764 51.4794 131.809 48.5851 131.381 47.0812C130.581 44.2693 131.203 37.2343 134.825 36.3279C138.446 35.4215 134.808 39.7115 134.58 40.7415C132.07 51.9377 145.94 53.1017 153.288 47.7919C157.754 44.5629 154.744 44.6607 155.038 40.7003C155.216 38.3519 156.671 33.5211 160.004 34.7056C158.243 41.0299 157.799 47.0503 164.831 50.5678C173.768 55.0329 185.611 50.5266 190.105 42.5337C194.382 41.3544 193.143 46.2212 194.515 49.3112C196.615 54.039 201.564 56.6964 207.035 56.65C209.29 56.6294 213.745 54.3222 214.745 56.3256C215.895 58.6277 207.929 60.5847 206.107 59.9409C205.652 62.7168 205.619 65.2352 207.524 67.63C208.996 69.4788 211.434 69.5921 212.656 71.5955C211.762 75.2211 207.579 81.978 214.412 82.0656C215.456 77.1267 218.178 69.7878 224.288 68.8196C243.24 65.8223 245.201 97.9999 224.654 101.085C223.549 101.25 220.438 100.786 219.933 101.45L217.367 112.755C217.711 114.516 222.421 112.93 223.532 112.41C227.16 110.705 226.976 108.13 228.293 104.978C236.697 105.308 243.896 102.532 243.351 93.6635C243.179 90.8361 241.552 90.0482 241.179 88.4053C240.552 85.6088 244.362 85.2844 246.284 84.0638C252.961 79.8253 252.155 71.0805 246.951 66.1055C245.695 64.9056 242.329 63.7777 242.179 62.2379C242.057 60.9812 245.684 57.7367 246.512 55.9496C251.117 46.01 243.179 34.5408 231.903 33.1967C231.292 30.5547 232.409 28.7573 231.959 25.9299C230.826 18.7611 223.099 13.5647 215.411 15.7895C213.723 16.2787 212.595 17.9886 210.54 16.9534C209.446 16.4281 208.868 12.9518 208.079 11.5098C203.375 2.87313 187.272 1.09121 179.723 7.42063C177.779 9.04805 176.473 14.0179 173.496 11.9063L173.513 11.8909ZM202.791 59.4208C196.02 58.638 192.454 54.1729 190.293 48.6108C181.15 57.062 166.32 59.1993 157.527 49.2082C152.239 53.4828 144.54 55.9393 137.808 53.2356C134.192 64.0249 132.897 75.1748 133.336 86.474C133.531 91.5159 134.153 97.763 135.297 102.681C136.225 106.652 137.513 110.401 140.018 113.78L154.905 110.803C155.91 107.095 156.01 103.51 154.327 99.9672C153.949 99.1638 150.839 96.6299 153.122 96.0119C156.293 95.1519 156.243 99.3955 157.943 100.261C160.087 101.353 165.57 101.749 168.064 101.641C169.991 101.559 179.529 99.9414 180.767 99.1226C181.728 98.484 181.595 93.4833 184.722 93.9262C186.811 94.4669 183.733 98.5818 183.472 99.9723C182.795 103.639 183.561 107.764 186.133 110.654C188.022 112.775 191.826 113.177 190.549 116.061C188.955 116.916 185.711 114.104 185.283 114.109C184.983 114.109 184.128 115.18 183.533 115.479C179.606 117.421 176.307 118.646 171.685 118.142C172.674 121.736 172.524 125.455 177.512 125.882C179.506 126.052 182.2 125.053 183.517 125.419C184.728 125.759 184.778 127.113 185.122 127.304C186.233 127.917 191.765 126.047 193.176 125.445C196.37 124.08 205.552 116.674 200.775 125.795C199.12 128.957 196.259 131.398 193.904 134.097C198.042 134.431 202.275 133.937 204.708 130.476C206.185 128.37 205.408 125.589 209.29 126.758C211.218 127.34 212.012 129.168 213.895 129.467C213.023 121.67 213.001 113.996 214.728 106.286C215.095 104.643 216.689 98.0823 218.155 97.6188C219.622 97.1552 222.421 97.7063 224.177 97.5363C238.985 96.0995 239.48 69.7518 224.754 72.3268C218.205 73.4701 219.939 85.4234 213.645 85.6191C206.163 85.8509 206.335 77.2863 208.274 72.6513C203.519 69.4428 201.064 64.9159 202.791 59.4259V59.4208ZM130.026 90.8361V71.7809C123.954 74.2735 123.865 82.7402 126.593 87.5813C126.876 88.0911 129.215 91.6859 130.026 90.8361ZM178.768 106.384C175.446 106.77 170.28 110.911 169.68 113.996C169.569 114.578 169.28 114.866 169.997 115.319C174.479 116.123 179.329 114.707 183.111 112.482L180.223 106.327C179.74 106.173 179.251 106.333 178.773 106.389L178.768 106.384ZM160.57 114.011C136.813 114.645 111.317 129.101 105.03 151.087C109.773 149.686 116.256 146.75 121.288 147.605C127.126 148.594 128.42 154.3 125.026 158.292C129.409 157.859 134.947 158.74 135.902 163.426C136.747 167.572 132.886 170.101 132.903 170.92C132.908 171.208 134.08 171.924 134.347 172.573C138.319 182.229 126.032 184.191 120.583 189.187C143.079 198.441 170.824 200.033 193.893 191.504C194.748 191.185 201.747 188.425 201.119 187.657C196.27 185.7 187.572 181.209 187.827 175.585C187.905 173.86 189.988 171.656 189.921 170.997C189.821 169.951 187.527 168.082 187.255 166.233C186.394 160.362 192.999 157.462 198.342 158.807C196.481 155.686 195.17 153.507 197.781 150.309C202.68 144.319 215.706 150.752 221.666 152.627C221.333 146.107 218.472 139.334 213.878 134.359C213.034 133.448 209.54 129.74 208.363 130.502C206.285 136.234 198.553 138.675 192.537 137.151C191.371 136.852 188.455 135.24 188.055 135.266C187.755 135.286 185.839 136.981 184.95 137.382C179.978 139.633 173.468 139.18 170.447 134.452C169.925 133.633 168.991 130.677 168.802 130.564C168.347 130.286 165.37 130.275 163.698 129.374C157.671 126.135 158.06 119.244 160.559 114.001L160.57 114.011ZM171.88 126.701C169.147 124.239 170.152 122.221 169.191 120.696C168.708 119.934 163.798 118.806 163.065 117.101C160.165 123.549 164.487 128.066 171.719 127.618C172.63 128.189 171.558 132.572 175.363 134.534C178.734 136.27 182.445 135.132 185.566 133.566C184.322 133.01 182.4 129.173 182.15 129.024C180.601 128.102 175.879 130.301 171.88 126.696V126.701ZM224.81 143.439C222.821 144.052 224.788 147.394 224.943 148.826C225.132 150.551 224.654 152.853 225.115 154.331C225.432 155.341 228.965 158.013 230.165 157.73C230.542 157.643 233.42 155.062 233.608 154.687C235.447 151.04 229.215 152.323 227.521 150.556C225.582 148.532 227.626 146.184 228.332 144.15C228.137 143.233 225.671 143.171 224.804 143.439H224.81ZM239.441 166.537L242.146 147.827C241.779 146.807 233.097 144.093 232.025 144.428L230.004 148.501C235.519 149.006 239.963 152.704 235.597 157.524C235.597 158.003 239.852 159.631 239.352 163.05C239.18 164.245 237.352 165.816 239.435 166.537H239.441ZM102.802 145.942C94.3258 145.447 100.125 148.949 99.2528 151.612C98.1086 155.109 90.0266 153.945 93.0816 158.286C94.6369 156.685 99.1584 155.114 100.297 153.657C101.636 151.952 101.78 148.028 102.802 145.942ZM321.105 226.278C322.599 224.712 307.88 201.083 305.78 197.999C291.405 176.837 272.191 157.462 245.562 150.057L242.74 170.389C248.073 180.051 249.839 190.083 251.106 200.79C251.894 207.454 251.361 214.932 253.572 221.164L277.579 238.53C291.571 233.101 306.197 228.956 321.1 226.272L321.105 226.278ZM129.831 179.237C132.17 176.827 132.442 172.568 128.115 172.696C122.232 172.871 111.423 179.391 106.963 183.007C105.574 184.129 101.791 188.579 101.147 188.945C97.9141 190.794 97.9919 187.297 100.047 184.835C104.158 179.922 113.784 173.675 120.038 171.44C124.382 169.884 134.358 169.9 132.003 163.416C130.548 159.399 119.544 162.309 116.256 163.303C109.646 165.301 102.28 169.565 97.2254 173.984C96.1867 174.89 93.3816 179.077 92.0373 178.866L90.6542 177.501C90.121 175.591 97.6864 169.184 99.5139 167.866C105.63 163.442 110.723 162.432 117.239 159.579C124.165 156.551 127.204 149.82 115.994 151.215C107.657 152.251 94.7869 160.269 89.1823 166.012C79.5505 175.869 78.0618 186.421 76.6954 199.24C75.8289 207.361 76.2177 215.694 74.7068 223.661L18.3717 269.25L16.7108 269.013C16.6497 268.601 16.6386 268.184 16.7108 267.772C17.2107 265.16 29.4087 255.159 32.2416 252.79C39.2516 246.929 46.8392 241.609 53.8992 235.8C51.2385 234.27 33.2248 225.031 31.7695 225.824C20.5435 243.86 7.09018 264.651 4.4795 285.761C1.65218 308.611 18.1217 332.003 45.3172 324.139C76.2788 315.183 86.5938 270.697 102.136 248.067C105.263 243.515 106.729 244.076 110.001 240.94C118.927 232.391 111.29 220.854 108.318 212.125C104.83 201.887 108.662 193.451 117.222 186.864C120.505 184.335 127.526 181.58 129.809 179.227L129.831 179.237ZM281.112 241.223C287.389 246.862 294.548 251.585 301.114 256.915C303.536 258.883 317.161 269.615 316.662 271.845C316.512 272.51 315.09 272.942 314.451 272.36C293.715 254.716 271.002 239.153 249.767 222.116C246.284 205.281 249.006 182.919 236.658 168.865C231.52 163.014 223.071 156.819 215.545 153.935C212.562 152.791 199.036 148.074 200.003 154.393C200.686 158.837 208.674 160.357 212.051 161.809C217.522 164.158 224.149 167.922 228.359 171.924C228.87 172.413 232.053 175.905 232.137 176.167C232.609 177.656 231.764 178.897 230.004 178.124C228.876 177.63 223.549 172.31 221.627 170.956C217.211 167.85 211.334 164.703 205.996 163.303C202.253 162.319 192.321 159.883 190.916 164.59C189.338 169.874 198.231 170.193 201.808 171.306C208.057 173.247 216.822 178.619 221.388 183.022C222.421 184.021 226.76 188.44 223.555 189.161C222.416 189.419 213.956 181.415 211.845 180.025C208.551 177.852 200.769 173.742 196.903 173.283C188.999 172.341 190.727 177.975 195.609 181.173C201.236 184.856 206.752 186.2 211.34 191.824C225.232 208.834 205.508 218.547 211.079 234.296C213.567 241.336 218.139 241.341 221.583 245.673C225.027 250.004 228.532 259.676 231.37 264.924C245.373 290.823 272.319 341.196 312.196 326.441C342.368 315.281 334.064 277.665 327.599 255.01C325.26 246.821 322.316 238.818 319.139 230.892L318.622 230.542C305.791 233.003 293.188 236.567 281.095 241.223H281.112ZM30.042 220.607L56.9875 232.983L71.1741 221.931C73.1182 208.747 72.0962 194.054 75.9844 181.07C77.0898 177.388 79.1561 174.195 80.5781 170.657C66.0694 180.035 52.8549 192.704 41.7178 205.435C40.418 206.924 29.4365 219.855 30.0364 220.607H30.042ZM166.525 205.528C167.325 204.931 168.069 203.174 169.48 202.355C174.785 199.276 178.223 204.359 182.495 203.617C186.277 202.963 184.8 197.2 191.971 197.937C193.348 198.076 194.198 198.807 195.326 198.962C200.903 199.739 198.709 195.382 201.358 193.796C203.308 192.632 205.685 194.162 207.218 192.545C204.141 188.244 201.986 191.782 198.159 193.405C173.574 203.834 141.968 202.788 118.066 191.247C116.867 191.422 113.639 194.476 114.461 195.372C118.111 196.011 121.66 193.842 125.426 195.254C128.748 196.495 128.776 202.299 131.514 202.495C134.192 202.283 136.236 200.115 139.091 200.192C143.112 200.306 144.784 204.972 146.978 205.178C150.306 205.492 152.588 200.064 157.999 202.649C160.409 203.803 162.898 208.216 166.52 205.523L166.525 205.528ZM208.896 195.902C206.713 196.175 202.364 194.723 202.791 197.957C202.952 198.117 206.685 197.041 207.379 196.804C207.963 196.603 209.029 196.629 208.896 195.908V195.902ZM140.574 205.672L140.329 204.107C137.724 202.531 135.269 205.42 132.436 205.497C125.676 205.682 126.665 198.565 123.371 197.638C120.76 196.902 115.45 200.548 112.251 197.432C110.573 199.502 120.272 204.416 122.044 205.085C128.52 207.531 133.892 207.815 140.574 205.667V205.672ZM211.673 198.977C211.229 197.746 211.062 198.169 210.201 198.374C207.713 198.972 203.413 200.028 201.114 200.78C200.447 200.996 199.597 201.346 199.453 202.067C203.725 201.691 207.779 200.584 211.673 198.977ZM193.343 201.053C188.055 199.265 188.777 202.973 186.4 205.167C180.801 210.343 175.074 202.726 170.808 205.131C169.986 205.595 169.436 207.037 168.619 207.737C165.859 210.117 162.059 209.787 159.171 207.742C158.399 209.679 155.555 209.947 154.538 207.892C153.977 205.749 157.449 205.409 155.277 205.142C154.244 205.188 149.828 207.258 150.572 208.247C160.715 213.917 179.129 214.51 188.077 206.723C189.76 205.26 190.349 203.725 191.66 202.319C192.249 201.686 193.387 201.846 193.337 201.053H193.343ZM142.24 207.742C134.164 210.441 125.782 209.612 118.177 206.105L110.584 201.047C110.345 202.016 111.173 202.268 111.69 202.85C117.228 209.045 129.192 211.641 137.458 210.261C139.013 210.003 142.251 209.658 142.235 207.742H142.24ZM212.784 201.562C207.974 203.488 202.958 204.261 197.787 204.905L194.459 209.797L212.734 205.631L212.784 201.562ZM146.134 207.742C145.495 208.345 148.423 210.663 148.956 211.044C160.926 219.737 186.666 218.135 194.443 204.905C193.732 204.256 193.882 203.88 193.098 204.678C191.693 206.115 190.61 207.706 188.905 209.035C177.84 217.667 156.832 216.709 146.134 207.742ZM168.347 219.078C159.632 219.17 150.744 216.899 144.662 210.915C138.83 213.387 133.008 213.974 126.687 212.898L148.678 228.868L168.347 219.078ZM208.34 218.043C204.613 219.634 201.208 221.632 197.37 223.059C189.371 226.035 178.867 228.61 170.286 229.362C165.431 229.79 158.926 229.208 154.21 229.908C152.272 230.197 151.344 231.891 149.172 231.979C146.067 232.107 144.651 229.537 142.246 228.59C139.841 227.642 136.063 227.359 133.353 226.535C127.17 224.645 120.655 222.837 115.85 218.558C115.461 219.382 117.172 225.016 117.594 225.299C121.016 227.586 125.782 221.807 130.259 227.349C135.158 233.415 137.308 240.579 136.674 248.165C136.486 250.421 133.036 259.727 138.058 259.279C141.824 258.944 139.096 251.255 138.913 249.195C138.496 244.421 140.085 236.732 145.379 234.61C149.117 233.112 149.872 235.156 152.377 234.935C156.121 234.61 159.654 230.382 164.175 230.367C168.697 230.351 172.807 234.389 176.685 233.807C180.456 233.24 181.367 229.517 184.167 227.828C189.921 224.346 194.854 228.734 198.886 227.05C200.425 226.406 201.269 223.115 203.363 221.931C205.652 220.633 208.551 221.782 208.335 218.048L208.34 218.043ZM206.674 224.223C203.775 223.893 203.541 227.323 201.914 228.816C197.626 232.741 191.893 228.384 187.383 229.769C184.089 230.784 183.128 234.219 180.545 235.785C173.813 239.853 169.069 232.761 163.12 233.513C160.426 233.853 157.549 236.984 154.61 237.494C149.95 238.303 147.034 235.12 144.218 239.189C143.651 240.008 143.196 240.698 143.351 241.733C164.525 245.873 187.561 243.278 206.113 232.72L206.674 224.228V224.223ZM132.797 238.638C133.803 237.664 128.181 229.156 126.904 228.399C124.482 226.957 120.644 229.393 117.8 228.858C117.883 229.61 117.544 230.691 117.928 231.325C118.516 232.303 132.17 239.256 132.797 238.643V238.638ZM60.5925 339.579C67.5247 336.623 73.3404 330.999 77.4842 325.117C87.377 311.068 91.0264 292.76 92.2429 276.238L78.5951 300.402C76.1955 303.353 74.3458 306.742 71.924 309.667C69.891 312.129 64.1697 316.692 63.1254 318.505C62.1422 320.22 61.3813 328.13 61.1424 330.571C60.8536 333.543 60.6758 336.597 60.5869 339.579H60.5925ZM284.439 339.579C284.795 339.208 283.9 330.788 283.039 329.809C273.957 326.209 266.442 320.688 259.454 314.344C263.909 325.236 272.547 335.242 284.439 339.574V339.579Z" fill="#2A5BAE"/>
<path d="M124.865 283.047C127.581 282.481 129.559 283.423 131.942 283.469C161.831 284.031 191.793 282.8 221.682 283.696C223.232 284.417 223.693 290.68 223.893 292.461C225.709 308.627 225.887 336.577 208.351 345.512C193.109 353.278 154.227 353.145 138.624 346.285C121.382 338.704 120.738 317.522 121.16 302.267C121.249 299.105 121.443 285.545 123.354 283.701C123.698 283.366 124.371 283.15 124.871 283.047H124.865ZM219.455 286.534L126.459 286.508C125.754 286.621 125.409 292.291 125.582 293.234H220.016L219.46 286.534H219.455ZM220.566 296.319C195.559 297.308 170.369 296.628 145.273 296.86L125.02 295.804C125.082 310.451 122.915 334.826 139.64 342.767C153.038 349.128 190.649 349.133 204.274 343.277C222.538 335.423 220.299 312.016 220.566 296.319Z" fill="#2A5BAE"/>
<path d="M200.57 21.3057C200.786 16.7839 208.763 18.9521 211.146 21.0276C212.723 22.3975 215.034 26.7081 212.506 27.9956C209.59 22.5469 207.746 20.3632 200.564 21.3057H200.57Z" fill="#2A5BAE"/>
<path d="M225.298 44.996C230.753 46.3813 231.858 53.8026 227.509 56.8308L226.282 55.5587C227.337 53.921 227.576 51.8661 227.109 49.9967C226.598 47.947 222.904 46.8757 225.298 44.996Z" fill="#2A5BAE"/>
<path d="M158.832 160.95L159.487 165.173C154.988 168.077 155.271 158.92 158.832 160.95Z" fill="#2A5BAE"/>
<path d="M129.465 138.732C129.77 141.462 126.893 142.729 124.477 141.802C124.249 138.676 126.721 138.573 129.465 138.732Z" fill="#2A5BAE"/>
<path d="M137.091 152.715C137.557 152.648 137.98 152.503 138.368 152.879L138.829 154.352C134.419 160.275 132.792 153.322 137.091 152.715Z" fill="#2A5BAE"/>
<path d="M153.349 141.822C153.861 143.496 152.472 147.256 149.994 145.705C148.256 144.614 151.167 140.895 153.349 141.822Z" fill="#2A5BAE"/>
<path d="M144.306 126.444C145.262 126.31 145.562 126.439 146.128 127.15C146.634 128.849 143.351 130.842 141.668 129.73C140.046 128.751 143.323 126.583 144.306 126.444Z" fill="#2A5BAE"/>
<path d="M173.668 149.573C176.257 148.878 178.317 153.204 176.395 153.662C174.851 154.239 171.418 150.176 173.668 149.573Z" fill="#2A5BAE"/>
<path d="M192.099 79.3295C191.038 80.0711 189.91 79.9527 188.894 79.2111C187.999 76.4352 187.283 71.1873 182.772 72.4593C179.112 73.4894 180.045 78.9175 178.556 79.4016C173.368 81.0754 174.385 72.0782 179.067 69.565C186.655 65.4965 194.554 72.1143 192.099 79.3295Z" fill="#2A5BAE"/>
<path d="M158.837 79.386C153.094 80.7971 156.388 72.7733 151.422 72.7166C146.117 72.6548 147.622 79.319 146.617 79.901L143.301 79.2469C139.679 64.837 162.781 65.2233 158.837 79.386Z" fill="#2A5BAE"/>
<path d="M166.603 74.9486C168.03 75.7314 166.875 81.5355 166.292 83.0033C164.403 87.7568 157.493 89.7602 168.352 91.8717C168.563 96.0432 161.326 93.2828 159.993 91.1198C157.149 86.5002 162.787 84.7183 163.942 81.3347C164.703 79.1099 164.464 77.1271 164.47 74.8662L166.608 74.9435L166.603 74.9486Z" fill="#2A5BAE"/>
<path d="M219.455 89.8067C217.528 85.9132 226.404 76.3702 230.026 78.7186C232.625 80.4027 226.754 81.8138 225.543 82.8283C222.549 85.3416 223.316 90.1105 219.461 89.8067H219.455Z" fill="#2A5BAE"/>
</svg>
