<svg width="142" height="99" viewBox="0 0 142 99" fill="none" xmlns="http://www.w3.org/2000/svg">
<path d="M0.000939776 12.207C25.0958 -3.2904 55.4307 -4.08612 79.1684 10.1308L79.565 10.3659C91.4296 17.3979 100.261 25.8131 105.81 35.2866C124.784 41.4796 139.354 55.6922 141.627 57.9955L132.212 67.4609C131.6 66.8416 123.392 58.6398 112.02 52.5437C112.068 52.8515 112.112 53.1613 112.153 53.4687C114.44 70.4244 108.745 80.7408 103.56 86.4072C94.7009 96.0968 78.6258 102.945 64.2754 95.0823C49.6374 87.0565 45.5765 68.7615 50.1105 55.7084C53.655 45.4927 62.3001 38.277 75.8006 34.2569C79.4699 33.1642 83.1241 32.5926 86.7183 32.4424C82.9374 28.6996 78.3224 25.2029 72.9201 22.0016L72.4705 21.733C53.0529 10.1042 28.0225 10.8873 7.14538 23.7801L-0.00011262 12.2053L0.000939776 12.207ZM96.6251 46.7522C91.1413 45.6343 85.4299 45.5645 79.8064 47.2404C76.3667 48.2627 65.9023 51.3789 62.7775 60.3813C60.1584 67.9263 62.6437 78.903 70.5163 83.2184C79.0976 87.919 89.0415 82.1577 93.6314 77.1376C98.3824 71.943 100.142 64.5159 98.8677 55.0616C98.4865 52.2293 97.7341 49.4554 96.6251 46.7522Z" fill="#78D604"/>
</svg>
