<svg width="1920" height="1228" viewBox="0 0 1920 1228" fill="none" xmlns="http://www.w3.org/2000/svg">
<g clip-path="url(#clip0_705_670)">
<path d="M-156.127 261.11C146.488 8.37143 576.311 -64.9569 965.617 69.7454L972.112 71.964C1166.43 138.334 1322.43 228.91 1435.38 340.006C1728.1 380.745 1986.63 534.44 2027.28 559.529L1926.78 701.612C1915.84 694.867 1769.5 605.758 1585.54 550.479C1587.32 554.363 1589.06 558.28 1590.75 562.174C1683.88 776.897 1639.46 922.266 1585.73 1006.39C1493.96 1150.21 1289.12 1272.26 1056.38 1200.3C818.962 1126.83 695.749 898.454 713.831 720.075C727.927 580.478 825.478 469.116 1003.69 389.029C1052.12 367.262 1102.2 352.27 1152.93 342.859C1085.64 302.268 1007.34 266.596 918.863 236.382L911.493 233.84C593.04 123.663 238.83 185.806 -12.9233 396.068L-156.148 261.09L-156.127 261.11ZM1345.3 507.5C1263.09 504.424 1181.38 515.387 1107.16 548.765C1061.75 569.144 923.616 631.223 911.175 754.242C900.746 857.347 975.37 994.264 1103.06 1033.76C1242.23 1076.78 1363.49 981.544 1411.04 907.028C1460.26 829.918 1458.85 730.125 1406.94 610.397C1391.39 574.529 1370.76 540.187 1345.3 507.5Z" fill="#F4F4F4"/>
</g>
<defs>
<clipPath id="clip0_705_670">
<rect width="1920" height="1785" fill="white" transform="translate(0 -216)"/>
</clipPath>
</defs>
</svg>
