<svg width="71" height="51" viewBox="0 0 71 51" fill="none" xmlns="http://www.w3.org/2000/svg">
<path d="M0.00119854 50.0324C-0.0347577 34.7679 9.03582 21.1776 23.6736 14.565L23.9169 14.4539C31.1957 11.1287 38.2299 9.5156 44.7764 9.63695C53.8493 2.94992 65.6214 0.378299 67.5019 0L69.3705 6.7166C68.8647 6.81857 62.1337 8.2145 55.4841 11.5764C55.6555 11.6386 55.8269 11.7028 55.9959 11.7681C65.3254 15.3553 68.788 20.6627 70.0476 24.4844C72.2038 31.0165 70.6625 39.96 62.1852 44.156C53.5353 48.4346 42.9714 45.2664 37.7553 39.7296C33.6719 35.398 32.7058 29.6307 34.88 22.5889C35.4709 20.6749 36.3218 18.9088 37.3682 17.2835C34.2855 17.9361 31.0674 19.0231 27.7535 20.5373L27.4766 20.6627C15.5032 26.0721 8.08297 37.3201 8.11294 50.0191L0 50.0324H0.00119854ZM47.7332 16.794C45.4523 18.9088 43.6329 21.4081 42.7281 24.3417C42.1731 26.1353 40.488 31.5936 44.086 35.4113C47.1015 38.611 53.455 40.4903 58.1066 38.1889C63.1752 35.6794 63.3538 29.7337 62.2367 26.3494C61.0813 22.8468 57.8573 20.058 52.6556 18.0574C51.0975 17.4579 49.4531 17.0377 47.7332 16.794Z" fill="#0A2A78"/>
</svg>
